<svg xmlns="http://www.w3.org/2000/svg" width="250" height="250" viewBox="0 0 250 250" preserveAspectRatio="xMidYMid meet" role="img" title="Bag Outputting CO2">
  <circle cx="125.7" cy="125" r="88.3" fill="#4daa50"/>
  <g fill="none" stroke="#4D4845" stroke-width="3" stroke-linecap="round" stroke-linejoin="round" stroke-miterlimit="10">
    <path d="M163 54.5l-11.2 2.3M97.5 68L84 70.8m4-.9s-4.5-49 33.6-56.7c34-6.9 36.9 42.2 36.9 42.2" />
    <path  d="M166 141.9L102.7 157l-14-13.3L97.5 68v-.1l.4-3.7 1.2 3.4 1.8 5.1 51-10.5z"/>
    <path d="M132.9 77.6l-5.7 1.2c-2 .4-3.9-.9-4.3-2.9-.4-2 .9-3.9 2.9-4.3l5.7-1.2c2-.4 3.9.9 4.3 2.9.3 1.9-1 3.9-2.9 4.3z" />
    <path d="M89.3 138.5l13 12.2 62.6-14.9"/>
    <path d="M89.9 133.2l12 11.3 62-14.7"/>
    <path d="M90.6 127.9l10.9 10.4 61.3-14.6"/>
    <path d="M91.2 122.7l10 9.4 60.5-14.5m-70.5 5.1l10 9.4m-9.4-14.5l9 8.5m-8.4-13.6l8.1 7.6M93 107.4l7.1 6.6m-6.5-11.7l6.1 5.7m-5.5-10.9l5.2 4.9m-4.6-10l4.2 4m-3.5-9.1l3.2 3m-3.2-3l3.2 3m-2.6-8.2l2.2 2"/>
    <path d="M153.6 61.9l-1.7.3-51 10.5-1.8-5.1-1.2-3.5 15.3-3.2c.1.1.2.1.2.2.9.9 1.2 2.2.8 3.3-.2.5-.4.9-.8 1.3l29.1-6c.4-.4.6-.8.8-1.2.4-1.1.1-2.5-.8-3.4l-.2-.2 8.2-1.7 1.2 3.5 1.9 5.2z" />
    <path d="M131.3 26.6h-17.5c-3.5 0-6.3-2.8-6.3-6.3s2.8-6.3 6.3-6.3h17.5c3.5 0 6.3 2.8 6.3 6.3s-2.9 6.3-6.3 6.3z"/>
    <circle cx="131.3" cy="20.3" r="6.3"/>
    <path d="M125.4 14c-3.5 0-6.3 2.8-6.3 6.3s2.8 6.3 6.3 6.3"/>
    <path d="M119.6 14c-3.5 0-6.3 2.8-6.3 6.3s2.8 6.3 6.3 6.3"/>
    <path stroke-dasharray="7" d="M155.1 237.5v-67.9m-29.6 67.9v-67.9m-30.6 67.9v-67.9"/>
    <path d="M87.9 234.5l7 6 7-6m16.6 0l7 6 6.9-6m15.7 0l7 6 7-6"/>
    <path d="M108.9 61.2c.4-.4 1-.7 1.5-.8l-1.9 1.3c.1-.2.2-.3.4-.5zm33.7-6l-.2-.2c-.8-.7-1.7-.9-2.7-.8l-29.3 6.1c1-.2 2 0 2.9.6.1.1.2.1.2.2.9.9 1.2 2.2.8 3.3-.2.5-.4.9-.8 1.3l29.1-6c.4-.4.6-.8.8-1.2.3-1.1.1-2.4-.8-3.3z" />
  </g>
</svg>
