<svg xmlns="http://www.w3.org/2000/svg" width="750" height="250" viewBox="0 0 750 250" preserveAspectRatio="xMidYMid meet" role="img" title="Instructions">
  <g fill="none" stroke-width="3" stroke-miterlimit="10" stroke-linecap="round" stroke-linejoin="round">
    <g stroke="#454e3e">
      <path d="M138.2 108.1l.2 13.7-5.9-13.4-8.5-19.5-6.2-.6 3.3-28.2.4-13.8 44.1-8.3.5 13.1 3.3 19.1-32.4 8.3 1 8.5z"/>
      <path d="M150.8 68.2l-4.8 1c-1.7.3-3.3-.7-3.6-2.4-.3-1.7.7-3.3 2.4-3.6l4.8-1c1.7-.3 3.3.7 3.6 2.4.4 1.7-.7 3.3-2.4 3.6zm-32.4 16.5l4.3 4.1m-3.8-8.4l3.5 3.3m-3-7.6l2.7 2.5m-2.7-2.5l2.7 2.5m-2.2-6.9l1.9 1.7"/>
      <path d="M196.5 104.9v46L138.4 168l-34.6-11.9V110h.5l-.5-.1 13-21.7 1 .1 6.2.6 8.5 19.5 5.9 13.4 38.2-11.2 19.2-5.7zm-19.1-29l-6.6 1.9L138 87l-1-8.5 32.4-8.3 7-1.8z"/>
      <path d="M196.5 104.7l-.7.2-19.2 5.7-38.2 11.2-.2-13.7L138 87l32.8-9.2 6.6-1.9zm-58.1 23.1l-34.6-12m34.6 17.7l-34.6-11.9m34.6 17.7l-34.6-12m31.8-11.8l-29.1-10.1m26.2 3.5l-23.4-8.1m20.6 1.6L112 96.2m15-.4l-12.2-4.2m23.6 30.4l-34.6-12m92.7 18.7l-58.1 16.4-34.6-12"/>
      <path d="M196.5 134.5l-58.1 16.3-34.6-11.9"/>
      <path d="M196.5 140.2l-58.1 16.4-34.6-12"/>
      <path d="M196.5 145.7l-58.1 16.6-34.6-11.9"/>
      <path d="M272 168l63.3-15.1"/>
      <path d="M272 168l63.3-15.1-15-84.7-.5-15.6-52.5 9.8-.5 16.5"/>
      <path d="M266.8 78.9l-8.8 75.9 14 13.2m30.2-79.4l-5.7 1.2c-2 .4-3.9-.9-4.3-2.9-.4-2 .9-3.9 2.9-4.3l5.7-1.2c2-.4 3.9.9 4.3 2.9.3 1.9-1 3.9-2.9 4.3z"/>
      <path d="M258.6 149.5l13 12.3 62.6-15"/>
      <path d="M259.2 144.3l12 11.2 62-14.7"/>
      <path d="M259.9 138.9l11 10.5 61.2-14.7"/>
      <path d="M260.5 133.7l10 9.4 60.5-14.5m-70.5 5.1l10 9.4m-9.4-14.5l9 8.5m-8.4-13.6l8.1 7.6m-7.5-12.7l7.1 6.7m-6.5-11.8l6.1 5.7m-5.5-10.8l5.2 4.8m-4.6-10l4.2 4m-3.5-9.1l3.2 3.1m-3.2-3.1l3.2 3.1m-2.6-8.3l2.2 2"/>
      <path d="M253.3 81.8l79-16.3m-75 15.4s-4.5-49 33.6-56.7c34-6.9 36.9 42.2 36.9 42.2"/>
      <path d="M491.5 65.7L480.3 68M426 79.1l-13.5 2.8m4-.8s-4.5-49 33.6-56.7c34-6.9 36.9 42.2 36.9 42.2"/>
      <path d="M494.5 153l-63.3 15.1-14-13.2 8.8-75.8.4-3.8 1.2 3.5 1.8 5.1 51-10.5z"/>
      <path d="M461.4 88.7l-5.7 1.2c-2 .4-3.9-.9-4.3-2.9-.4-2 .9-3.9 2.9-4.3l5.7-1.2c2-.4 3.9.9 4.3 2.9.3 2-1 3.9-2.9 4.3z"/>
      <path d="M417.8 149.6l13 12.3 62.6-14.9"/>
      <path d="M418.4 144.4l12 11.2 61.9-14.7"/>
      <path d="M419 139.1l11 10.4 61.3-14.7"/>
      <path d="M419.7 133.9l10 9.4 60.5-14.5m-70.5 5.1l10 9.4m-9.4-14.5l9 8.5m-8.4-13.7l8.1 7.6m-7.5-12.7l7.1 6.7m-6.5-11.8l6.1 5.8m-5.5-10.9l5.2 4.8m-4.6-9.9l4.2 3.9m-3.6-9l3.3 3m-3.3-3l3.3 3m-2.6-8.3l2.1 2.1"/>
      <path d="M482.1 73l-1.7.4-51 10.5-1.8-5.1-1.2-3.5 52.7-10.8 1.2 3.5zm-46.5-9c-1.3-1.3-1.3-3.3 0-4.6 1.3-1.3 3.3-1.3 4.6 0 1.3 1.3 1.3 3.3 0 4.6l29.1-6.1c1.3-1.3 1.3-3.3 0-4.6-.8-.8-1.8-1.1-2.9-.9l-29.3 6.1m206 7.2L632 68m-54.4 11.1l-13.4 2.8m4-.8s-4.5-49 33.6-56.7c34-6.9 36.9 42.2 36.9 42.2"/>
      <path d="M646.2 153l-63.4 15.1-14-13.2 8.8-75.8.5-3.8 1.2 3.5 1.8 5.1 51-10.5z"/>
      <path d="M613 88.7l-5.7 1.2c-2 .4-3.9-.9-4.3-2.9-.4-2 .9-3.9 2.9-4.3l5.7-1.2c2-.4 3.9.9 4.3 2.9.4 2-.9 3.9-2.9 4.3z"/>
      <path d="M569.4 149.6l13 12.3 62.7-14.9"/>
      <path d="M570.1 144.4l12 11.2 61.9-14.7"/>
      <path d="M570.7 139.1l11 10.4 61.2-14.7"/>
      <path d="M571.3 133.9l10 9.4 60.6-14.5m-70.6 5.1l10 9.4m-9.4-14.5l9.1 8.5m-8.5-13.7l8.1 7.6m-7.4-12.7l7 6.7m-6.4-11.8l6.1 5.8m-5.5-10.9l5.1 4.8m-4.5-9.9l4.2 3.9m-3.6-9l3.2 3m-3.2-3l3.2 3m-2.6-8.3l2.2 2.1"/>
      <path d="M633.8 73l-1.7.3-51 10.5-1.8-5.1-1.2-3.5 15.3-3.2c.1.1.2.1.2.2.9.9 1.2 2.2.8 3.3-.2.5-.4.9-.8 1.3l29.1-6c.4-.4.6-.8.8-1.2.4-1.1.1-2.5-.8-3.4l-.2-.2 8.2-1.7L632 68l1.8 5z"/>
      <path d="M611.4 37.7h-17.5c-3.5 0-6.3-2.8-6.3-6.3s2.8-6.3 6.3-6.3h17.5c3.5 0 6.3 2.8 6.3 6.3s-2.8 6.3-6.3 6.3z"/>
      <circle cx="611.4" cy="31.4" r="6.3"/>
      <path d="M605.6 25.1c-3.5 0-6.3 2.8-6.3 6.3s2.8 6.3 6.3 6.3"/>
      <path d="M599.8 25.1c-3.5 0-6.3 2.8-6.3 6.3s2.8 6.3 6.3 6.3"/>
      <path d="M589 72.4c.4-.4 1-.7 1.5-.8l-1.9 1.3c.1-.2.3-.4.4-.5zm33.7-6.1l-.2-.2c-.8-.7-1.7-.9-2.7-.8l-29.3 6.1c1-.2 2 0 2.9.6.1.1.2.1.2.2.9.9 1.2 2.2.8 3.3-.2.5-.4.9-.8 1.3l29.1-6c.4-.4.6-.8.8-1.2.4-1 .1-2.3-.8-3.3z"/>
      <circle cx="145" cy="217" r="16.3"/>
      <circle cx="301.9" cy="217" r="16.3"/>
      <circle cx="458.7" cy="217" r="16.3"/>
      <circle cx="615.6" cy="217" r="16.3"/>
    </g>
    <g stroke="#4daa50">
      <path d="M145 36.6v-13m5.7 4.9l-5.7-4.9-5.6 4.9"/>
      <path d="M294.3 50.9v-13m5.6 4.9l-5.6-4.9-5.6 4.9"/>
      <path d="M339.2 67.8l6.4 4 4.8-5.8m-17.2-6.7c6.9 0 12.4 5.6 12.4 12.4"/>
      <path d="M452 34v12.9m-5.7-4.8l5.7 4.8 5.6-4.8"/>
    </g>
  </g>
  <path fill="#4daa50" d="M146.8 223.6h-2.7v-8.5l-1.1.3-.6-2.3 2.2-.7h2.2v11.2zm151.3 0v-1c0-3.2 4.8-5.2 4.8-6.9 0-.7-.4-1.1-1.1-1.1-.7 0-1.2.5-1.3 1.1l-2.4-.7c.3-1.2 1.3-2.9 3.8-2.9 2.2 0 3.8 1.3 3.8 3.5 0 2.8-3.8 4.1-4.3 5.6h4.4v2.4h-7.7zm156.8-2.7l2.4-.7c.2.6.7 1.1 1.4 1.1.8 0 1.2-.5 1.2-1.2 0-.6-.4-1.2-1.3-1.2H457v-2.1l2-2.1h-3.7v-2.4h6.8v2.4l-2 1.9c1.3.3 2.5 1.1 2.5 3.3 0 2.3-1.7 3.8-3.9 3.8-2.5.1-3.5-1.6-3.8-2.8zm163.9.2v2.5h-2.7v-2.5h-4.9v-1.9l4.4-6.8h3.2v6.4h1.2v2.3h-1.2zm-4.8-2.3h2.1v-3.5l-2.1 3.5z"/>
</svg>
