<svg xmlns="http://www.w3.org/2000/svg" version="1.1" viewBox="0 0 841.9 193.1" preserveAspectRatio="xMidYMid meet" role="img" title="Phenotonic">
  <title>Phenotonic logo</title>
  <desc>Phenotonic logo in black &amp; green.</desc>
  <g id="logo__full--color__type" fill="#4c4845">
    <path d="M79.9 71.4c21 0 32.6 12.4 32.6 38.6s-11.7 38.7-32.6 38.7c-8 0-15.1-2.6-19-6.9v18.2c0 4.8-3.9 8.7-8.7 8.7 -4.8 0-8.7-3.9-8.7-8.7V81c0-4.8 3.9-8.7 8.7-8.7 4.8 0 8.7 3.9 8.7 8.7C63.3 77 70.9 71.4 79.9 71.4zM77.6 86.2c-11.2 0-17.2 8-17.2 23.9 0 15.7 5.9 23.8 17.2 23.8s17.2-8 17.2-23.8C94.8 94.2 88.9 86.2 77.6 86.2z"/><path d="M140 81c3.1-4.7 9.8-9.6 20.6-9.6 21.8 0 27 14 27 28v40.2c0 4.8-3.9 8.4-8.7 8.4 -5.1 0-8.7-3.5-8.7-8.4v-36.9c0-9.2-3.7-15.4-14.1-15.4 -12 0-16.1 7.1-16.1 16.5v35.8c0 4.8-3.7 8.4-8.7 8.4 -5 0-8.7-3.5-8.7-8.4V60.3c0-4.8 3.9-8.7 8.7-8.7 4.8 0 8.7 3.9 8.7 8.7V81z"/><path d="M231.6 71.4c27.1 0 32.1 20.9 32.1 32 0 5.9 0 12.9-9.8 12.9h-39.7c0 11.6 8.2 16.9 18.8 16.9 7.1 0 12-2.4 15.9-5 1.8-1.1 3.1-1.8 5.1-1.8 4.2 0 7.5 3.4 7.5 7.5 0 2.6-1.3 4.7-2.7 5.9 -2.7 2.6-11.2 8.8-25.9 8.8 -22.3 0-36.1-12-36.1-38.9C196.9 85.2 209.8 71.4 231.6 71.4zM214.7 101.7h31.8c0-7.9-4.5-15.6-14.9-15.6C222.3 86.2 215.5 91.5 214.7 101.7z"/><path d="M338.2 99.3v40.2c0 4.8-3.9 8.4-8.7 8.4 -5.1 0-8.7-3.5-8.7-8.4v-36.9c0-9.2-3.7-15.4-14.1-15.4 -12 0-16.1 7.1-16.1 16.5v35.8c0 4.8-3.7 8.4-8.7 8.4 -5 0-8.7-3.5-8.7-8.4V81c0-4.8 3.9-8.7 8.7-8.7 4.8 0 8.7 3.9 8.7 8.7 3.1-4.7 9.8-9.6 20.6-9.6C333.1 71.4 338.2 85.4 338.2 99.3z"/><path d="M382.7 148.6c-21.7 0-35.2-12.4-35.2-38.6 0-26.3 13.5-38.7 35.2-38.7 21.7 0 35.2 12.4 35.2 38.7C417.8 136.3 404.3 148.6 382.7 148.6zM382.7 86.2c-11.6 0-17.7 8-17.7 23.9 0 15.7 6.1 23.8 17.7 23.8 11.6 0 17.7-8 17.7-23.8C400.3 94.2 394.2 86.2 382.7 86.2z"/><path d="M431.7 60.1c0-4.7 3.9-8.5 8.5-8.5 4.7 0 8.5 3.9 8.5 8.5v13.5h7.2c4 0 7.2 3.2 7.2 7.2 0 4-3.2 7.2-7.2 7.2h-7.2V127c0 3.7 3.2 5.8 6.1 5.8 4.2 0 7.5 3.4 7.5 7.5 0 4.2-3.4 7.5-7.5 7.5 -14.3 0-23.1-9.2-23.1-21.8V88.1H428c-4 0-7.2-3.2-7.2-7.2 0-4 3.2-7.2 7.2-7.2h3.7V60.1z"/><path d="M501.8 148.6c-21.7 0-35.2-12.4-35.2-38.6 0-26.3 13.5-38.7 35.2-38.7 21.7 0 35.2 12.4 35.2 38.7C537 136.3 523.5 148.6 501.8 148.6zM501.8 86.2c-11.6 0-17.7 8-17.7 23.9 0 15.7 6.1 23.8 17.7 23.8 11.6 0 17.7-8 17.7-23.8C519.5 94.2 513.4 86.2 501.8 86.2z"/><path d="M611.7 99.3v40.2c0 4.8-3.9 8.4-8.7 8.4 -5.1 0-8.7-3.5-8.7-8.4v-36.9c0-9.2-3.7-15.4-14.1-15.4 -12 0-16.1 7.1-16.1 16.5v35.8c0 4.8-3.7 8.4-8.7 8.4 -5 0-8.7-3.5-8.7-8.4V81c0-4.8 3.9-8.7 8.7-8.7 4.8 0 8.7 3.9 8.7 8.7 3.1-4.7 9.8-9.6 20.6-9.6C606.6 71.4 611.7 85.4 611.7 99.3z"/><path d="M622.9 53.6c0-7.4 3.7-10.6 10.3-10.6 6.7 0 10.4 3.2 10.4 10.6 0 6.3-3.7 10.1-10.4 10.1C626.6 63.7 622.9 59.8 622.9 53.6zM641.8 139.2c0 4.8-3.9 8.7-8.7 8.7s-8.7-3.9-8.7-8.7V81c0-4.8 3.9-8.7 8.7-8.7s8.7 3.9 8.7 8.7V139.2z"/><path d="M686.2 71.4c14.8 0 23.3 7.4 26.2 11.1 1.3 1.8 1.8 3.1 1.8 5 0 4.3-3.4 7.7-7.7 7.7 -2.6 0-4.5-1.1-5.9-2.7 -2.1-2.2-6.3-6.3-14.3-6.3 -11.2 0-17.3 8.7-17.3 23.8 0 15.4 6.1 23.9 17.3 23.9 7.4 0 12.2-3.7 15.9-6.4 1.8-1.3 3.2-1.6 4.8-1.6 4.3 0 7.7 3.4 7.7 7.7 0 2.2-0.8 4.2-2.7 5.9 -3.7 3.4-12.5 9.2-25.7 9.2 -21.8 0-34.9-12.5-34.9-38.7S664.4 71.4 686.2 71.4z"/>
  </g>
  <g id="logo__full--color__icon" fill="#4daa50">
    <path d="M736.2 50.6c-0.1 0-0.2 0-0.3-0.1C736 50.6 736.1 50.6 736.2 50.6z"/><path d="M736.2 61.4c-0.1 0-0.3 0.1-0.4 0.1C736 61.5 736.1 61.5 736.2 61.4z"/><path d="M746.4 56.8c-2.7 2.2-6.1 3.7-10.1 4.6 -0.1 0-0.3 0.1-0.4 0.1 -0.4 0-0.7-0.2-0.8-0.8 -0.2 0.3-1.2 0.9-2.1 1.3 -0.5 0.2-1 0.3-1.2 0.1 0 0-0.1-0.1-0.1-0.2 0.1-0.3 0.2-0.6 0.3-0.9 -1.2 0.7-3.5 2.2-2.9-0.2 -0.4 0.5-1.5 1.2-2.3 1.4 -0.3 0.1-0.6 0.1-0.7 0h0c-0.2-0.2-0.2-0.5 0.2-1.3 -0.6 0.3-1.9 1-2.8 1.1 -0.3 0.1-0.6 0-0.7-0.1 -0.2-0.2-0.2-0.6 0.2-1.3 -1.3 0.6-4.4 2-2.9-0.6 -1.2 0.3-5.2 1.5-3-0.8 -0.9 0.2-4.7 0.9-3.5-0.8 -0.3 0.1-3-0.1-3-0.7 0.1-0.2 0.3-0.3 0.5-0.4 -0.6-0.1-4.2-0.8-4.2-1.4 0-0.6 3.7-1.3 4.2-1.4 -0.2-0.1-0.4-0.2-0.5-0.4 0-0.6 2.6-0.9 3-0.7 -1.2-1.7 2.6-0.9 3.5-0.8 -2.2-2.3 1.9-1.1 3-0.8 -1.5-2.6 1.6-1.1 2.9-0.6 -0.4-0.8-0.4-1.2-0.2-1.3 0.1-0.1 0.4-0.1 0.7-0.1 0.8 0.1 2.2 0.8 2.8 1.2 -0.4-0.8-0.4-1.2-0.1-1.3 0.1-0.1 0.4-0.1 0.6 0 0.8 0.2 1.9 0.8 2.3 1.4 0-0.1-0.3-1.4 0-1.3 0 0 0 0 0 0 0 0 0 0 0 0 1 0.4 1.8 0.6 2.8 1.1 -0.1-0.3-0.3-0.6-0.3-0.9 0-0.1 0-0.1 0.1-0.2 0.2-0.2 0.6-0.1 1.1 0.1 0.9 0.4 1.9 1 2.1 1.3 0.1-0.7 0.4-0.9 0.8-0.8 0.1 0 0.2 0 0.3 0.1 4 0.9 7.5 2.5 10.2 4.6C746.9 55.7 746.9 56.4 746.4 56.8z"/><path d="M750.1 61.7c0.5 3.4 0.2 7.2-1.1 11.1 0 0.1-0.1 0.2-0.1 0.4 -0.2 0.4-0.5 0.5-1.1 0.2 0.2 0.3 0.2 1.5 0.1 2.4 -0.1 0.6-0.2 1-0.5 1.1 -0.1 0-0.1 0-0.2 0 -0.2-0.2-0.4-0.4-0.6-0.7 0 1.3 0.2 4.1-1.6 2.4 0.2 0.7 0.3 1.9 0.1 2.7 -0.1 0.3-0.2 0.5-0.4 0.6l0 0c-0.3 0.1-0.6-0.1-1.1-0.8 0 0.7-0.1 2.2-0.4 3 -0.1 0.3-0.2 0.5-0.4 0.6 -0.3 0.1-0.6-0.1-1-0.9 -0.2 1.5-0.5 4.8-1.9 2.2 -0.3 1.2-1.3 5.2-2.2 2.2 -0.3 0.8-1.6 4.5-2.4 2.6 -0.1 0.3-1.6 2.5-2.1 2.2 -0.1-0.2-0.1-0.4-0.1-0.6 -0.4 0.5-2.8 3.2-3.3 2.9 -0.5-0.3 0.7-3.8 0.9-4.3 -0.2 0.1-0.4 0.2-0.6 0.2 -0.5-0.3 0.5-2.7 0.9-2.9 -2.1 0.2 0.5-2.7 1-3.4 -3.1 0.7 0-2.2 0.8-3 -3 0-0.2-2 1-2.8 -0.9 0-1.2-0.2-1.3-0.5 0-0.2 0.1-0.4 0.3-0.6 0.6-0.7 1.8-1.4 2.4-1.8 -0.9 0-1.2-0.3-1.2-0.6 0-0.2 0.1-0.4 0.3-0.6 0.5-0.6 1.7-1.2 2.4-1.3 -0.1 0-1.4-0.4-1.2-0.7 0 0 0 0 0 0 0 0 0 0 0 0 0.8-0.7 1.4-1.3 2.4-1.9 -0.3 0-0.6-0.1-0.9-0.1 -0.1-0.1-0.1-0.1-0.1-0.2 0-0.2 0.3-0.6 0.7-0.9 0.7-0.6 1.9-1.2 2.2-1.2 -0.6-0.4-0.6-0.8-0.3-1.1 0.1-0.1 0.1-0.1 0.2-0.2 2.8-3.1 5.9-5.2 9.1-6.5C749.4 60.7 750 61.1 750.1 61.7z"/><path d="M756.2 61c3.2 1.2 6.3 3.4 9.1 6.5 0.1 0.1 0.2 0.2 0.3 0.3 0.2 0.3 0.2 0.7-0.3 1.1 0.3 0 1.4 0.6 2.2 1.1 0.4 0.3 0.8 0.7 0.7 1 0 0.1-0.1 0.1-0.1 0.2 -0.3 0.1-0.6 0.1-0.9 0.1 1.2 0.7 3.6 1.9 1.3 2.6 0.7 0.1 1.8 0.7 2.3 1.3 0.2 0.2 0.4 0.4 0.3 0.6l0 0c0 0.3-0.4 0.5-1.2 0.5 0.6 0.4 1.8 1.2 2.4 1.8 0.2 0.2 0.3 0.5 0.3 0.6 0 0.3-0.4 0.4-1.3 0.5 1.2 0.9 3.9 2.8 1 2.8 0.9 0.9 3.9 3.7 0.8 3 0.6 0.7 3.1 3.6 1 3.4 0.3 0.2 1.4 2.6 0.9 2.9 -0.2 0-0.4-0.1-0.6-0.2 0.2 0.5 1.4 4 0.9 4.3 -0.5 0.3-3-2.5-3.3-2.9 0 0.2 0 0.4-0.1 0.6 -0.5 0.3-2.1-1.8-2.1-2.2 -0.8 1.9-2.1-1.8-2.4-2.6 -0.9 3-1.9-1-2.2-2.2 -1.5 2.6-1.8-0.8-1.9-2.2 -0.5 0.7-0.8 1-1.1 0.9 -0.2-0.1-0.3-0.3-0.4-0.5 -0.3-0.8-0.4-2.3-0.4-3 -0.5 0.8-0.8 0.9-1.1 0.8 -0.1-0.1-0.3-0.3-0.3-0.5 -0.2-0.8-0.2-2 0-2.7 -0.1 0.1-1.1 1-1.2 0.7 0 0 0 0 0 0 0 0 0 0 0 0 -0.2-1.1-0.4-1.9-0.4-3 -0.2 0.3-0.4 0.5-0.6 0.7 -0.1 0-0.1 0-0.2 0 -0.2-0.1-0.4-0.5-0.5-1.1 -0.1-0.9-0.1-2.2 0.1-2.5 -0.6 0.3-0.9 0.1-1.1-0.3 0-0.1-0.1-0.2-0.1-0.3 -1.2-3.9-1.6-7.7-1.1-11.1C755 61.1 755.7 60.7 756.2 61z"/><path d="M758.6 55.3c2.7-2.2 6.1-3.7 10.1-4.6 0.1 0 0.3-0.1 0.4-0.1 0.4 0 0.7 0.2 0.8 0.8 0.2-0.3 1.2-0.9 2.1-1.3 0.5-0.2 1-0.3 1.2-0.1 0 0 0.1 0.1 0.1 0.2 -0.1 0.3-0.2 0.6-0.3 0.9 1.2-0.7 3.5-2.2 2.9 0.2 0.4-0.5 1.5-1.2 2.3-1.4 0.3-0.1 0.6-0.1 0.7 0h0c0.2 0.2 0.2 0.5-0.2 1.3 0.6-0.3 1.9-1 2.8-1.1 0.3-0.1 0.6 0 0.7 0.1 0.2 0.2 0.2 0.6-0.2 1.3 1.3-0.6 4.4-2 2.9 0.6 1.2-0.3 5.2-1.5 3 0.8 0.9-0.2 4.7-0.9 3.5 0.8 0.3-0.1 3 0.1 3 0.7 -0.1 0.2-0.3 0.3-0.5 0.4 0.6 0.1 4.2 0.8 4.2 1.4 0 0.6-3.7 1.3-4.2 1.4 0.2 0.1 0.4 0.2 0.5 0.4 0 0.6-2.6 0.9-3 0.7 1.2 1.7-2.6 0.9-3.5 0.8 2.2 2.3-1.9 1.1-3 0.8 1.5 2.6-1.6 1.1-2.9 0.6 0.4 0.8 0.4 1.2 0.2 1.3 -0.1 0.1-0.4 0.1-0.7 0.1 -0.8-0.1-2.2-0.8-2.8-1.2 0.4 0.8 0.4 1.2 0.1 1.3 -0.1 0.1-0.4 0.1-0.6 0 -0.8-0.2-1.9-0.8-2.3-1.4 0 0.1 0.3 1.4 0 1.3 0 0 0 0 0 0 0 0 0 0 0 0 -1-0.4-1.8-0.6-2.8-1.1 0.1 0.3 0.3 0.6 0.3 0.9 0 0.1 0 0.1-0.1 0.2 -0.2 0.2-0.6 0.1-1.1-0.1 -0.9-0.4-1.9-1-2.1-1.3 -0.1 0.7-0.4 0.9-0.8 0.8 -0.1 0-0.2 0-0.3-0.1 -4-0.9-7.5-2.5-10.2-4.6C758.1 56.4 758.1 55.7 758.6 55.3z"/><path d="M754.9 50.3c-0.5-3.4-0.2-7.2 1.1-11.1 0-0.1 0.1-0.2 0.1-0.4 0.2-0.4 0.5-0.5 1.1-0.2 -0.2-0.3-0.2-1.5-0.1-2.4 0.1-0.6 0.2-1 0.5-1.1 0.1 0 0.1 0 0.2 0 0.2 0.2 0.4 0.4 0.6 0.7 0-1.3-0.2-4.1 1.6-2.4 -0.2-0.7-0.3-1.9-0.1-2.7 0.1-0.3 0.2-0.5 0.4-0.6l0 0c0.3-0.1 0.6 0.1 1.1 0.8 0-0.7 0.1-2.2 0.4-3 0.1-0.3 0.2-0.5 0.4-0.6 0.3-0.1 0.6 0.1 1 0.9 0.2-1.5 0.5-4.8 1.9-2.2 0.3-1.2 1.3-5.2 2.2-2.2 0.3-0.8 1.6-4.5 2.4-2.6 0.1-0.3 1.6-2.5 2.1-2.2 0.1 0.2 0.1 0.4 0.1 0.6 0.4-0.5 2.8-3.2 3.3-2.9 0.5 0.3-0.7 3.8-0.9 4.3 0.2-0.1 0.4-0.2 0.6-0.2 0.5 0.3-0.5 2.7-0.9 2.9 2.1-0.2-0.5 2.7-1 3.4 3.1-0.7 0 2.2-0.8 3 3 0 0.2 2-1 2.8 0.9 0 1.2 0.2 1.3 0.5 0 0.2-0.1 0.4-0.3 0.6 -0.6 0.7-1.8 1.4-2.4 1.8 0.9 0 1.2 0.3 1.2 0.6 0 0.2-0.1 0.4-0.3 0.6 -0.5 0.6-1.7 1.2-2.4 1.3 0.1 0 1.4 0.4 1.2 0.7 0 0 0 0 0 0 0 0 0 0 0 0 -0.8 0.7-1.4 1.3-2.4 1.9 0.3 0 0.6 0.1 0.9 0.1 0.1 0.1 0.1 0.1 0.1 0.2 0 0.2-0.3 0.6-0.7 0.9 -0.7 0.6-1.9 1.2-2.2 1.2 0.6 0.4 0.6 0.8 0.3 1.1 -0.1 0.1-0.1 0.1-0.2 0.2 -2.8 3.1-5.9 5.2-9.1 6.5C755.7 51.3 755 51 754.9 50.3z"/><path d="M748.8 51.1c-3.2-1.2-6.3-3.4-9.1-6.5 -0.1-0.1-0.2-0.2-0.3-0.3 -0.2-0.3-0.2-0.7 0.3-1.1 -0.3 0-1.4-0.6-2.2-1.1 -0.4-0.3-0.8-0.7-0.7-1 0-0.1 0.1-0.1 0.1-0.2 0.3-0.1 0.6-0.1 0.9-0.1 -1.2-0.7-3.6-1.9-1.3-2.6 -0.7-0.1-1.8-0.7-2.3-1.3 -0.2-0.2-0.4-0.4-0.3-0.6l0 0c0-0.3 0.4-0.5 1.2-0.5 -0.6-0.4-1.8-1.2-2.4-1.8 -0.2-0.2-0.3-0.5-0.3-0.6 0-0.3 0.4-0.4 1.3-0.5 -1.2-0.9-3.9-2.8-1-2.8 -0.9-0.9-3.9-3.7-0.8-3 -0.6-0.7-3.1-3.6-1-3.4 -0.3-0.2-1.4-2.6-0.9-2.9 0.2 0 0.4 0.1 0.6 0.2 -0.2-0.5-1.4-4-0.9-4.3 0.5-0.3 3 2.5 3.3 2.9 0-0.2 0-0.4 0.1-0.6 0.5-0.3 2.1 1.8 2.1 2.2 0.8-1.9 2.1 1.8 2.4 2.6 0.9-3 1.9 1 2.2 2.2 1.5-2.6 1.8 0.8 1.9 2.2 0.5-0.7 0.8-1 1.1-0.9 0.2 0.1 0.3 0.3 0.4 0.5 0.3 0.8 0.4 2.3 0.4 3 0.5-0.8 0.8-0.9 1.1-0.8 0.1 0.1 0.3 0.3 0.3 0.5 0.2 0.8 0.2 2 0 2.7 0.1-0.1 1.1-1 1.2-0.7 0 0 0 0 0 0 0 0 0 0 0 0 0.2 1.1 0.4 1.9 0.4 3 0.2-0.3 0.4-0.5 0.6-0.7 0.1 0 0.1 0 0.2 0 0.2 0.1 0.4 0.5 0.5 1.1 0.1 0.9 0.1 2.2-0.1 2.5 0.6-0.3 0.9-0.1 1.1 0.3 0 0.1 0.1 0.2 0.1 0.3 1.2 3.9 1.6 7.7 1.1 11.1C750 51 749.4 51.3 748.8 51.1z"/>
  </g>
</svg>
