<svg xmlns="http://www.w3.org/2000/svg" width="250" height="200" viewBox="0 0 250 200" preserveAspectRatio="xMidYMid meet" role="img" title="Mushroom">
  <path d="M127.6 18.3l72.1 124.9c1.2 2-.3 4.5-2.6 4.5H52.9c-2.3 0-3.8-2.5-2.6-4.5l72.1-124.9c1.2-2 4-2 5.2 0z" fill="#dbd5cd"/>
  <path fill="none" stroke="#4c4845" stroke-width="3" stroke-linecap="round" stroke-linejoin="round" stroke-miterlimit="10" d="M99 140.5l-8 12.7-8-12.7-8 12.7-8-12.7-8 12.7m131.9 0l-8-12.7-8.1 12.7-8-12.7-8 12.7-8-12.7m-.3-37.3v58l-.9-1.5-8 12.7-8-12.7-8 12.7-8.1-12.7-8 12.7-8-12.7-2 3.3v-59.8zm49.9 0H49.6c0-41.6 33.8-75.4 75.4-75.4s75.4 33.8 75.4 75.4zm-97.1-69.1h-8.5m8.8 6.4H83.2m21.5 6.3H75.1m31.6 6.3h-38m38.8 6.3H63.7m45.1 6.3H59.6m52.6 6.3H56.4m58.8 6.3H53.8m66 6.3H51.9m98.7 6.3h-100m128.6 6.3H49.9m88.9 12.6H99.4m29.9 6.3H99.4m20.4 6.4H99.4m20.4 6.3H99.4m20.4 6.3H99.4m20.4 6.3H99.4m20.4 6.3H99.4m20.4 6.3H99.4m20.4 6.3H99.4m13.8 6.3h-7.3m-28.4 5.8l8-12.7 8 12.7 5.9-9.4m51.2-1.8l7 11.2 8-12.7 8 12.7"/>
</svg>
