<svg xmlns="http://www.w3.org/2000/svg" width="250" height="250" viewBox="0 0 250 250" preserveAspectRatio="xMidYMid meet" role="img" title="Plants Receiving CO2">
  <path fill="#4daa50" d="M122.4 221.2L18.9 41.9c-1.2-2 .3-4.5 2.6-4.5h207c2.3 0 3.8 2.5 2.6 4.5L127.6 221.2c-1.2 2-4 2-5.2 0z"/>
  <g fill="none" stroke="#454e3e" stroke-width="3" stroke-miterlimit="10" stroke-linecap="round" stroke-linejoin="round">
    <path d="M96.3 233.7c0-16-2-30-4.9-37.8m11.6 32.3c0-40.5-3.2-76.1-8-96.1m15.5 109.5c0-29.3 1.2-55.1 3.1-70m2.6 56.6c0-12.3 3.8-22.2 8.5-22.2m17.8 36.3c0-15.9-1.1-30.1-2.9-39.7m8.7-16.3c1.6-20.7 4.4-38 7.9-49.7m-8.5 58.3c-.7 10.8-1 22.4-1 34.4m5.6 10c0-18.8 2.7-35.2 6.7-43.8m-22.9 39.4c0-10-4.6-18.1-10.2-18.1M81.7 194c1.1 10.4 1.7 22.1 1.7 34.4M79.3 177c-.6-3.1-1.2-6-1.9-8.6m96.3 1.9c-1.5 3.2-2.9 7.4-4 12.2m-2.3 12.2c-1.3 8.9-2 19.1-2 30m-87 7.9c0-9.8-3.8-17.8-8.5-17.8m100.7 20.1c0-11.3 5.6-20.5 12.6-20.5"/>
    <path d="M105.8 109.3c-.9-2.4-3.2-3.9-5.6-3.8.3-2.4-.9-4.9-3.2-6-2.3-1.1-5-.5-6.7 1.2-1.5-1.9-4.1-2.8-6.5-2-2.4.8-3.9 3.2-3.8 5.6-2.4-.4-4.9.9-6 3.2-1.1 2.3-.5 5 1.2 6.7-1.9 1.5-2.8 4.1-2 6.5.8 2.4 3.2 3.9 5.6 3.8-.3 2.4.9 4.9 3.2 6 2.3 1.1 5 .5 6.7-1.2 1.5 1.9 4.1 2.8 6.5 2 .2-.1.3-.1.5-.2 2.1-1 3.4-3.1 3.3-5.4 2.4.3 4.9-.9 6-3.2 1.1-2.3.5-5-1.2-6.7 2-1.5 2.8-4.1 2-6.5zm-10.7 8.4c-.6 1.3-1.6 2.3-2.8 2.9-1.6.8-3.6.9-5.4 0-3.1-1.5-4.4-5.2-2.9-8.2 1.5-3.1 5.2-4.4 8.2-2.9 3.1 1.4 4.4 5.1 2.9 8.2z"/>
    <path d="M95.1 117.7c-.6 1.3-1.6 2.3-2.8 2.9-1.6.8-3.6.9-5.4 0-3.1-1.5-4.4-5.2-2.9-8.2 1.5-3.1 5.2-4.4 8.2-2.9 3.1 1.4 4.4 5.1 2.9 8.2z"/>
    <path d="M191.4 157.6c1.5-1.3 2.1-3.4 1.3-5.4s-2.8-3-4.7-2.9c.2-2-.9-3.9-2.9-4.7-1.9-.8-4.1-.2-5.4 1.3-1.3-1.5-3.4-2.1-5.4-1.3-1.9.8-3 2.8-2.9 4.7-2-.2-3.9.9-4.7 2.9s-.2 4.1 1.3 5.4c-1.5 1.3-2.1 3.4-1.3 5.4.8 1.9 2.8 3 4.7 2.9-.1 1.8.7 3.5 2.3 4.4l.6.3c1.9.8 4.1.2 5.4-1.3 1.3 1.5 3.4 2.1 5.4 1.3 1.9-.8 3-2.8 2.9-4.7 2 .2 3.9-.9 4.7-2.9.8-2 .2-4.1-1.3-5.4zm-9.8 4.7c-2.6 1.1-5.5-.2-6.6-2.7-1.1-2.6.2-5.5 2.7-6.6 2.6-1.1 5.5.2 6.6 2.7 1.1 2.5-.1 5.5-2.7 6.6z"/>
    <path d="M181.6 162.3c-2.6 1.1-5.5-.2-6.6-2.7-1.1-2.6.2-5.5 2.7-6.6 2.6-1.1 5.5.2 6.6 2.7 1.1 2.5-.1 5.5-2.7 6.6z"/>
    <path d="M181.6 162.3c-2.6 1.1-5.5-.2-6.6-2.7-1.1-2.6.2-5.5 2.7-6.6 2.6-1.1 5.5.2 6.6 2.7 1.1 2.5-.1 5.5-2.7 6.6z"/>
    <path d="M82.5 150.3h-.2l.1-.1c2-2.3 1.6-5.8-.7-7.8-2.4-2-5.9-1.6-7.8.7l-.1.1s0-.1-.1-.2c-1-2.9-4.2-4.3-7.1-3.3-2.9 1.1-4.3 4.2-3.3 7.1 0 0 0 .1.1.2h-.2c-3-.5-5.9 1.5-6.4 4.5s1.5 5.9 4.5 6.4h.2l-.1.1c-2 2.4-1.7 5.9.7 7.8 2.4 2 5.9 1.6 7.8-.7l.1-.1v.2c1.1 2.9 4.2 4.4 7.1 3.3.1 0 .1 0 .2-.1 2.8-1.1 4.2-4.2 3.1-7 0-.1 0-.1-.1-.2h.2c3 .5 5.9-1.5 6.4-4.5s-1.3-5.9-4.4-6.4zm-8.1 8.6l-.6.3c-2.8 1-5.9-.4-6.9-3.2-.8-2.2-.1-4.5 1.5-5.9.5-.4 1.1-.8 1.7-1 2.8-1 5.9.4 6.9 3.2 1 2.5-.2 5.3-2.6 6.6z"/>
    <path d="M74.4 158.9l-.6.3c-2.8 1-5.9-.4-6.9-3.2-.8-2.2-.1-4.5 1.5-5.9.5-.4 1.1-.8 1.7-1 2.8-1 5.9.4 6.9 3.2 1 2.5-.2 5.3-2.6 6.6z"/>
    <path d="M148.3 186.3c-.7-.6-1.5-1.1-2.4-1.3h-.2l.1-.1c2.1-2.2 2.1-5.7-.1-7.8-2.2-2.1-5.7-2.1-7.8.1l-.1.1c0-.1 0-.1-.1-.2-.8-2.9-3.9-4.7-6.8-3.8-2.9.8-4.6 3.9-3.8 6.8 0 .1 0 .1.1.2h-.2c-3-.8-6 1-6.7 4-.8 3 1 6 4 6.7h.2c-.1 0-.1.1-.1.1-2.1 2.2-2.1 5.7.1 7.8 2.2 2.1 5.7 2.1 7.8-.1l.1-.1v.2c.8 2.9 3.9 4.6 6.8 3.8.1 0 .2-.1.4-.1 2.7-1 4.2-3.9 3.5-6.7 0-.1 0-.1-.1-.2.1 0 .1 0 .2.1 1.6.4 3.2.1 4.5-.8 1.1-.7 1.9-1.8 2.2-3.2.5-2.1-.2-4.2-1.6-5.5zm-11.2 6.7c-.2.1-.4.1-.5.2-2.9.8-5.8-.9-6.6-3.7-.8-2.9.9-5.8 3.7-6.6 2.9-.8 5.8.9 6.6 3.7.7 2.6-.7 5.3-3.2 6.4zm38.9-85.9l-3.8 18.5c-1.5 7.4-8.6 12.2-15.9 11-.2 0-.4-.1-.6-.1-7.6-1.6-12.4-9-10.9-16.5l3.8-18.5c7.6 1.6 12.4 9 10.9 16.6 1.5-7.7 8.9-12.5 16.5-11zm-84.4 88.7c-.1 0-.2.1-.2.1-3.4 1.2-7.1.4-9.7-1.9-1.2-1-2.2-2.4-2.8-4l-4.7-12.5c1.7-.6 3.4-.8 5.1-.5 3.4.6 6.4 2.8 7.7 6.3-1.9-5.1.7-10.8 5.8-12.8l4.7 12.5c1.9 5.2-.7 10.9-5.9 12.8zm36.4-46l-1.4 12.1c-.7 6.2-6.2 10.6-12.4 9.9-.2 0-.4-.1-.6-.1-5.9-1-10-6.4-9.3-12.3l1.4-12.1 4.9 6.2 6.2-4.9 5 6.2 6.2-5z"/>
    <path d="M137.1 193c-.2.1-.4.1-.5.2-2.9.8-5.8-.9-6.6-3.7-.8-2.9.9-5.8 3.7-6.6 2.9-.8 5.8.9 6.6 3.7.7 2.6-.7 5.3-3.2 6.4zm37.5-13l-3.3 9.7c-.7 2.1-2.2 3.9-4 5-2.3 1.5-5.3 1.9-8 .9-.1 0-.2-.1-.2-.1-4.8-1.8-7.3-7.1-5.7-11.9l3.3-9.7 3 6 6-3 3 6 1-.5 4.9-2.4z"/>
    <path d="M155 75.9V8.1m-29.6 67.8V8.1M94.8 75.9V8.1" stroke-dasharray="7"/>
    <path d="M87.8 72.9l7 6.1 7-6.1m16.6 0l7 6.1 6.9-6.1m15.7 0l7 6.1 7-6.1"/>
  </g>
</svg>
