<svg id="Layer_1" xmlns="http://www.w3.org/2000/svg" width="250" height="200" viewBox="0 0 250 200" preserveAspectRatio="xMidYMid meet" role="img" title="Recycle">
  <circle fill="#ebefeb" cx="128.6" cy="108.1" r="60.4"/>
  <g fill="none" stroke="#454e3e" stroke-width="3" stroke-linecap="round" stroke-linejoin="round" stroke-miterlimit="10">
    <polygon points="75.9,97.9 76,97.9 74.6,100.3 72,104.8 69.4,109.2 69.4,109.2 72,104.7 74.6,100.3"/>
    <polygon points="128.6,68 128.5,68.2 127,70.8 124.4,75.3 121.8,79.7 119.2,84.2 116.6,88.7 114,93.2 111.4,97.6 108.9,102.1 107,105.4 105.6,100.2 103.7,93.2 101.9,86.1 101.4,84.5 99.8,84.9 92.7,86.8 85.7,88.8 80.4,90.2 82.3,86.8 84.9,82.3 87.5,77.9 90.1,73.4 92.7,68.9 95.3,64.4 97.9,59.9 100.4,55.5 103,51 105.6,46.5 108.2,42 110.8,37.6"/>
    <line x1="92.7" y1="86.8" x2="84.9" y2="82.3"/>
    <line x1="111.4" y1="97.6" x2="103.7" y2="93.2"/>
    <line x1="85.7" y1="88.8" x2="82.3" y2="86.8"/>
    <line x1="108.9" y1="102.1" x2="105.6" y2="100.2"/>
    <line x1="74.6" y1="100.3" x2="74.6" y2="100.3"/>
    <line x1="72" y1="104.8" x2="72" y2="104.7"/>
    <line x1="99.8" y1="84.9" x2="87.5" y2="77.9"/>
    <line x1="114" y1="93.2" x2="101.9" y2="86.1"/>
    <line x1="116.6" y1="88.7" x2="90.1" y2="73.4"/>
    <line x1="119.2" y1="84.2" x2="92.7" y2="68.9"/>
    <line x1="121.8" y1="79.7" x2="95.3" y2="64.4"/>
    <line x1="124.4" y1="75.3" x2="97.9" y2="59.9"/>
    <line x1="127" y1="70.8" x2="100.4" y2="55.5"/>
    <line x1="125.8" y1="64.1" x2="103" y2="51"/>
    <line x1="120.6" y1="55.2" x2="105.6" y2="46.5"/>
    <line x1="115.7" y1="46.4" x2="108.2" y2="42"/>
    <polygon points="134.8,162.5 74,162.5 91.5,131.9 134.7,131.9 130.9,135.7 125.8,140.8 120.6,146 119.4,147.2 120.6,148.4 125.8,153.5 130.9,158.6"/>
    <rect x="143.7" y="162.5" width="13.1" height=".1"/>
    <line x1="125.8" y1="162.5" x2="125.8" y2="153.5"/>
    <line x1="125.8" y1="140.8" x2="125.8" y2="131.9"/>
    <line x1="130.9" y1="162.5" x2="130.9" y2="158.6"/>
    <line x1="130.9" y1="135.7" x2="130.9" y2="131.9"/>
    <line x1="146.5" y1="162.5" x2="146.5" y2="162.5"/>
    <line x1="151.6" y1="162.5" x2="151.6" y2="162.5"/>
    <line x1="120.6" y1="162.5" x2="120.6" y2="148.4"/>
    <line x1="120.6" y1="146" x2="120.6" y2="131.9"/>
    <line x1="115.4" y1="131.9" x2="115.4" y2="162.5"/>
    <line x1="110.2" y1="131.9" x2="110.2" y2="162.5"/>
    <line x1="105.1" y1="131.9" x2="105.1" y2="162.5"/>
    <line x1="99.9" y1="131.9" x2="99.9" y2="162.5"/>
    <line x1="94.7" y1="131.9" x2="94.7" y2="162.5"/>
    <line x1="89.6" y1="136.2" x2="89.6" y2="162.5"/>
    <line x1="84.4" y1="145.2" x2="84.4" y2="162.5"/>
    <line x1="79.2" y1="153.8" x2="79.2" y2="162.5"/>
    <polygon points="161.8,64.7 159.2,60.2 159.3,60.2 161.8,64.7 164.4,69.1 165.8,71.5 165.7,71.5 164.4,69.2"/>
    <polygon points="200.6,131.8 165.4,132 165.3,131.8 163.8,129.2 161.2,124.8 158.6,120.3 156,115.8 153.4,111.3 150.8,106.8 148.3,102.4 145.7,97.9 143.8,94.6 148.9,96 156,97.9 163,99.8 164.7,100.3 165.1,98.6 167,91.6 168.8,84.5 170.2,79.2 172.2,82.6 174.8,87.1 177.4,91.5 179.9,96 182.5,100.5 185.1,105 187.7,109.5 190.3,113.9 192.9,118.4 195.5,122.9 198,127.4"/>
    <line x1="174.8" y1="87.1" x2="167" y2="91.6"/>
    <line x1="156" y1="97.9" x2="148.3" y2="102.4"/>
    <line x1="172.2" y1="82.6" x2="168.8" y2="84.5"/>
    <line x1="148.9" y1="96" x2="145.7" y2="97.9"/>
    <line x1="164.4" y1="69.1" x2="164.4" y2="69.2"/>
    <line x1="161.8" y1="64.7" x2="161.8" y2="64.7"/>
    <line x1="177.4" y1="91.5" x2="165.1" y2="98.6"/>
    <line x1="163" y1="99.8" x2="150.8" y2="106.8"/>
    <line x1="153.4" y1="111.3" x2="179.9" y2="96"/>
    <line x1="156" y1="115.8" x2="182.5" y2="100.5"/>
    <line x1="158.6" y1="120.3" x2="185.1" y2="105"/>
    <line x1="161.2" y1="124.8" x2="187.7" y2="109.5"/>
    <line x1="163.8" y1="129.2" x2="190.3" y2="113.9"/>
    <line x1="170.1" y1="131.6" x2="192.9" y2="118.4"/>
    <line x1="180.4" y1="131.6" x2="195.5" y2="122.9"/>
    <line x1="190.5" y1="131.7" x2="198" y2="127.4"/>
    <polygon points="173.5,67 170.2,79.2 168.8,84.5 167,91.6 165.1,98.6 164.7,100.3 163,99.8 156,97.9 148.9,96 143.8,94.6 131.5,91.3 139.2,86.8 128.5,68.2 128.6,68 110.8,37.6 140.1,27.2 159.2,60.2 161.8,64.7 164.4,69.2 165.7,71.5 165.8,71.5"/>
    <polygon points="128.6,68 128.5,68.2 110.8,37.6"/>
    <polygon points="110.2,117.7 102.5,113.2 91.7,131.9 91.5,131.9 74,162.5 50.4,142.3 69.4,109.2 72,104.8 74.6,100.3 76,97.9 75.9,97.9 68.2,93.5 80.4,90.2 85.7,88.8 92.7,86.8 99.8,84.9 101.4,84.5 101.9,86.1 103.7,93.2 105.6,100.2 107,105.4"/>
    <polygon points="91.7,131.9 74,162.5 91.5,131.9"/>
    <polygon points="200.6,131.8 194.9,162.5 143.7,162.5 143.7,171.4 134.8,162.5 130.9,158.6 125.8,153.5 120.6,148.4 119.4,147.2 120.6,146 125.8,140.8 130.9,135.7 134.7,131.9 143.7,122.9 143.7,131.8 165.3,131.8 165.4,132"/>
    <polygon points="200.6,131.8 165.4,132 165.3,131.8"/>
  </g>
</svg>
