<svg id="Layer_1" xmlns="http://www.w3.org/2000/svg" width="250" height="200" viewBox="0 0 250 200" preserveAspectRatio="xMidYMid meet" role="img" title="Time">
  <path fill="#dbd5cd" d="M116.5 7.7L39.3 84.9c-4.7 4.7-4.7 12.3 0 17l77.2 77.2c4.7 4.7 12.3 4.7 17 0l77.2-77.2c4.7-4.7 4.7-12.3 0-17L133.5 7.7c-4.7-4.6-12.3-4.6-17 0z"/>
  <circle fill="none" stroke="#4c4845" stroke-width="3" stroke-linecap="round" stroke-linejoin="round" stroke-dasharray="6.6422,6.6422" cx="223.5" cy="91.3" r="21.1"/>
  <g fill="none" stroke="#4c4845" stroke-width="3" stroke-linecap="round" stroke-linejoin="round" stroke-miterlimit="10">
    <circle cx="125.5" cy="93.4" r="32.6"/>
    <path d="M125.5 53.4l19.1-6.2 9.2 17.9 17.9 9.1-6.2 19.2 6.2 19.1-17.9 9.2-9.2 17.9-19.1-6.2-19.1 6.2-9.2-17.9-17.9-9.2 6.2-19.1-6.2-19.2 17.9-9.1 9.2-17.9z"/>
    <path d="M32.2 123.5c12.7 39.4 49.7 67.9 93.3 67.9 43.6 0 80.6-28.5 93.3-67.9"/>
    <path d="M224.8 131.3l-6-8.8-9.7 4.6"/>
    <circle cx="27.5" cy="91.3" r="21.1"/>
    <path d="M135.6 66.3h7.5m-.5 5.4h7m-3.8 5.4h7.9m-5.1 5.4h7.5m-5.9 5.5h7.3m-5.6 5.4h6.2m-7.9 5.4h7.3m-8.9 5.5h7.5m-10.3 5.4h7.9m-11.1 5.4h7m-14 5.4h7.5M14.4 75.4h10.9M9.2 80.7h12.5M7.1 86h12.3m-13 5.3h12.4M7.1 96.6h12.3m-10.2 5.3h12.5m-7.3 5.3h10.9"/>
  </g>
</svg>
