<svg xmlns="http://www.w3.org/2000/svg" version="1.1">
<symbol id="logo__full" x="0" y="0" viewBox="0 0 841.9 193.1" preserveAspectRatio="xMidYMid meet">
  <title>Phenotonic logo</title>
  <desc>Phenotonic logo in one color.</desc>
  <path d="M79.9 71.4c21 0 32.6 12.4 32.6 38.6s-11.7 38.7-32.6 38.7c-8 0-15.1-2.6-19-6.9v18.2c0 4.8-3.9 8.7-8.7 8.7 -4.8 0-8.7-3.9-8.7-8.7V81c0-4.8 3.9-8.7 8.7-8.7 4.8 0 8.7 3.9 8.7 8.7C63.3 77 70.9 71.4 79.9 71.4zM77.6 86.2c-11.2 0-17.2 8-17.2 23.9 0 15.7 5.9 23.8 17.2 23.8s17.2-8 17.2-23.8C94.8 94.2 88.9 86.2 77.6 86.2z"/><path d="M140 81c3.1-4.7 9.8-9.6 20.6-9.6 21.8 0 27 14 27 28v40.2c0 4.8-3.9 8.4-8.7 8.4 -5.1 0-8.7-3.5-8.7-8.4v-36.9c0-9.2-3.7-15.4-14.1-15.4 -12 0-16.1 7.1-16.1 16.5v35.8c0 4.8-3.7 8.4-8.7 8.4 -5 0-8.7-3.5-8.7-8.4V60.3c0-4.8 3.9-8.7 8.7-8.7 4.8 0 8.7 3.9 8.7 8.7V81z"/><path d="M231.6 71.4c27.1 0 32.1 20.9 32.1 32 0 5.9 0 12.9-9.8 12.9h-39.7c0 11.6 8.2 16.9 18.8 16.9 7.1 0 12-2.4 15.9-5 1.8-1.1 3.1-1.8 5.1-1.8 4.2 0 7.5 3.4 7.5 7.5 0 2.6-1.3 4.7-2.7 5.9 -2.7 2.6-11.2 8.8-25.9 8.8 -22.3 0-36.1-12-36.1-38.9C196.9 85.2 209.8 71.4 231.6 71.4zM214.7 101.7h31.8c0-7.9-4.5-15.6-14.9-15.6C222.3 86.2 215.5 91.5 214.7 101.7z"/><path d="M338.2 99.3v40.2c0 4.8-3.9 8.4-8.7 8.4 -5.1 0-8.7-3.5-8.7-8.4v-36.9c0-9.2-3.7-15.4-14.1-15.4 -12 0-16.1 7.1-16.1 16.5v35.8c0 4.8-3.7 8.4-8.7 8.4 -5 0-8.7-3.5-8.7-8.4V81c0-4.8 3.9-8.7 8.7-8.7 4.8 0 8.7 3.9 8.7 8.7 3.1-4.7 9.8-9.6 20.6-9.6C333.1 71.4 338.2 85.4 338.2 99.3z"/><path d="M382.7 148.6c-21.7 0-35.2-12.4-35.2-38.6 0-26.3 13.5-38.7 35.2-38.7 21.7 0 35.2 12.4 35.2 38.7C417.8 136.3 404.3 148.6 382.7 148.6zM382.7 86.2c-11.6 0-17.7 8-17.7 23.9 0 15.7 6.1 23.8 17.7 23.8 11.6 0 17.7-8 17.7-23.8C400.3 94.2 394.2 86.2 382.7 86.2z"/><path d="M431.7 60.1c0-4.7 3.9-8.5 8.5-8.5 4.7 0 8.5 3.9 8.5 8.5v13.5h7.2c4 0 7.2 3.2 7.2 7.2 0 4-3.2 7.2-7.2 7.2h-7.2V127c0 3.7 3.2 5.8 6.1 5.8 4.2 0 7.5 3.4 7.5 7.5 0 4.2-3.4 7.5-7.5 7.5 -14.3 0-23.1-9.2-23.1-21.8V88.1H428c-4 0-7.2-3.2-7.2-7.2 0-4 3.2-7.2 7.2-7.2h3.7V60.1z"/><path d="M501.8 148.6c-21.7 0-35.2-12.4-35.2-38.6 0-26.3 13.5-38.7 35.2-38.7 21.7 0 35.2 12.4 35.2 38.7C537 136.3 523.5 148.6 501.8 148.6zM501.8 86.2c-11.6 0-17.7 8-17.7 23.9 0 15.7 6.1 23.8 17.7 23.8 11.6 0 17.7-8 17.7-23.8C519.5 94.2 513.4 86.2 501.8 86.2z"/><path d="M611.7 99.3v40.2c0 4.8-3.9 8.4-8.7 8.4 -5.1 0-8.7-3.5-8.7-8.4v-36.9c0-9.2-3.7-15.4-14.1-15.4 -12 0-16.1 7.1-16.1 16.5v35.8c0 4.8-3.7 8.4-8.7 8.4 -5 0-8.7-3.5-8.7-8.4V81c0-4.8 3.9-8.7 8.7-8.7 4.8 0 8.7 3.9 8.7 8.7 3.1-4.7 9.8-9.6 20.6-9.6C606.6 71.4 611.7 85.4 611.7 99.3z"/><path d="M622.9 53.6c0-7.4 3.7-10.6 10.3-10.6 6.7 0 10.4 3.2 10.4 10.6 0 6.3-3.7 10.1-10.4 10.1C626.6 63.7 622.9 59.8 622.9 53.6zM641.8 139.2c0 4.8-3.9 8.7-8.7 8.7s-8.7-3.9-8.7-8.7V81c0-4.8 3.9-8.7 8.7-8.7s8.7 3.9 8.7 8.7V139.2z"/><path d="M686.2 71.4c14.8 0 23.3 7.4 26.2 11.1 1.3 1.8 1.8 3.1 1.8 5 0 4.3-3.4 7.7-7.7 7.7 -2.6 0-4.5-1.1-5.9-2.7 -2.1-2.2-6.3-6.3-14.3-6.3 -11.2 0-17.3 8.7-17.3 23.8 0 15.4 6.1 23.9 17.3 23.9 7.4 0 12.2-3.7 15.9-6.4 1.8-1.3 3.2-1.6 4.8-1.6 4.3 0 7.7 3.4 7.7 7.7 0 2.2-0.8 4.2-2.7 5.9 -3.7 3.4-12.5 9.2-25.7 9.2 -21.8 0-34.9-12.5-34.9-38.7S664.4 71.4 686.2 71.4z"/><path d="M736.2 50.6c-0.1 0-0.2 0-0.3-0.1C736 50.6 736.1 50.6 736.2 50.6z"/><path d="M736.2 61.4c-0.1 0-0.3 0.1-0.4 0.1C736 61.5 736.1 61.5 736.2 61.4z"/><path d="M746.4 56.8c-2.7 2.2-6.1 3.7-10.1 4.6 -0.1 0-0.3 0.1-0.4 0.1 -0.4 0-0.7-0.2-0.8-0.8 -0.2 0.3-1.2 0.9-2.1 1.3 -0.5 0.2-1 0.3-1.2 0.1 0 0-0.1-0.1-0.1-0.2 0.1-0.3 0.2-0.6 0.3-0.9 -1.2 0.7-3.5 2.2-2.9-0.2 -0.4 0.5-1.5 1.2-2.3 1.4 -0.3 0.1-0.6 0.1-0.7 0h0c-0.2-0.2-0.2-0.5 0.2-1.3 -0.6 0.3-1.9 1-2.8 1.1 -0.3 0.1-0.6 0-0.7-0.1 -0.2-0.2-0.2-0.6 0.2-1.3 -1.3 0.6-4.4 2-2.9-0.6 -1.2 0.3-5.2 1.5-3-0.8 -0.9 0.2-4.7 0.9-3.5-0.8 -0.3 0.1-3-0.1-3-0.7 0.1-0.2 0.3-0.3 0.5-0.4 -0.6-0.1-4.2-0.8-4.2-1.4 0-0.6 3.7-1.3 4.2-1.4 -0.2-0.1-0.4-0.2-0.5-0.4 0-0.6 2.6-0.9 3-0.7 -1.2-1.7 2.6-0.9 3.5-0.8 -2.2-2.3 1.9-1.1 3-0.8 -1.5-2.6 1.6-1.1 2.9-0.6 -0.4-0.8-0.4-1.2-0.2-1.3 0.1-0.1 0.4-0.1 0.7-0.1 0.8 0.1 2.2 0.8 2.8 1.2 -0.4-0.8-0.4-1.2-0.1-1.3 0.1-0.1 0.4-0.1 0.6 0 0.8 0.2 1.9 0.8 2.3 1.4 0-0.1-0.3-1.4 0-1.3 0 0 0 0 0 0 0 0 0 0 0 0 1 0.4 1.8 0.6 2.8 1.1 -0.1-0.3-0.3-0.6-0.3-0.9 0-0.1 0-0.1 0.1-0.2 0.2-0.2 0.6-0.1 1.1 0.1 0.9 0.4 1.9 1 2.1 1.3 0.1-0.7 0.4-0.9 0.8-0.8 0.1 0 0.2 0 0.3 0.1 4 0.9 7.5 2.5 10.2 4.6C746.9 55.7 746.9 56.4 746.4 56.8z"/><path d="M750.1 61.7c0.5 3.4 0.2 7.2-1.1 11.1 0 0.1-0.1 0.2-0.1 0.4 -0.2 0.4-0.5 0.5-1.1 0.2 0.2 0.3 0.2 1.5 0.1 2.4 -0.1 0.6-0.2 1-0.5 1.1 -0.1 0-0.1 0-0.2 0 -0.2-0.2-0.4-0.4-0.6-0.7 0 1.3 0.2 4.1-1.6 2.4 0.2 0.7 0.3 1.9 0.1 2.7 -0.1 0.3-0.2 0.5-0.4 0.6l0 0c-0.3 0.1-0.6-0.1-1.1-0.8 0 0.7-0.1 2.2-0.4 3 -0.1 0.3-0.2 0.5-0.4 0.6 -0.3 0.1-0.6-0.1-1-0.9 -0.2 1.5-0.5 4.8-1.9 2.2 -0.3 1.2-1.3 5.2-2.2 2.2 -0.3 0.8-1.6 4.5-2.4 2.6 -0.1 0.3-1.6 2.5-2.1 2.2 -0.1-0.2-0.1-0.4-0.1-0.6 -0.4 0.5-2.8 3.2-3.3 2.9 -0.5-0.3 0.7-3.8 0.9-4.3 -0.2 0.1-0.4 0.2-0.6 0.2 -0.5-0.3 0.5-2.7 0.9-2.9 -2.1 0.2 0.5-2.7 1-3.4 -3.1 0.7 0-2.2 0.8-3 -3 0-0.2-2 1-2.8 -0.9 0-1.2-0.2-1.3-0.5 0-0.2 0.1-0.4 0.3-0.6 0.6-0.7 1.8-1.4 2.4-1.8 -0.9 0-1.2-0.3-1.2-0.6 0-0.2 0.1-0.4 0.3-0.6 0.5-0.6 1.7-1.2 2.4-1.3 -0.1 0-1.4-0.4-1.2-0.7 0 0 0 0 0 0 0 0 0 0 0 0 0.8-0.7 1.4-1.3 2.4-1.9 -0.3 0-0.6-0.1-0.9-0.1 -0.1-0.1-0.1-0.1-0.1-0.2 0-0.2 0.3-0.6 0.7-0.9 0.7-0.6 1.9-1.2 2.2-1.2 -0.6-0.4-0.6-0.8-0.3-1.1 0.1-0.1 0.1-0.1 0.2-0.2 2.8-3.1 5.9-5.2 9.1-6.5C749.4 60.7 750 61.1 750.1 61.7z"/><path d="M756.2 61c3.2 1.2 6.3 3.4 9.1 6.5 0.1 0.1 0.2 0.2 0.3 0.3 0.2 0.3 0.2 0.7-0.3 1.1 0.3 0 1.4 0.6 2.2 1.1 0.4 0.3 0.8 0.7 0.7 1 0 0.1-0.1 0.1-0.1 0.2 -0.3 0.1-0.6 0.1-0.9 0.1 1.2 0.7 3.6 1.9 1.3 2.6 0.7 0.1 1.8 0.7 2.3 1.3 0.2 0.2 0.4 0.4 0.3 0.6l0 0c0 0.3-0.4 0.5-1.2 0.5 0.6 0.4 1.8 1.2 2.4 1.8 0.2 0.2 0.3 0.5 0.3 0.6 0 0.3-0.4 0.4-1.3 0.5 1.2 0.9 3.9 2.8 1 2.8 0.9 0.9 3.9 3.7 0.8 3 0.6 0.7 3.1 3.6 1 3.4 0.3 0.2 1.4 2.6 0.9 2.9 -0.2 0-0.4-0.1-0.6-0.2 0.2 0.5 1.4 4 0.9 4.3 -0.5 0.3-3-2.5-3.3-2.9 0 0.2 0 0.4-0.1 0.6 -0.5 0.3-2.1-1.8-2.1-2.2 -0.8 1.9-2.1-1.8-2.4-2.6 -0.9 3-1.9-1-2.2-2.2 -1.5 2.6-1.8-0.8-1.9-2.2 -0.5 0.7-0.8 1-1.1 0.9 -0.2-0.1-0.3-0.3-0.4-0.5 -0.3-0.8-0.4-2.3-0.4-3 -0.5 0.8-0.8 0.9-1.1 0.8 -0.1-0.1-0.3-0.3-0.3-0.5 -0.2-0.8-0.2-2 0-2.7 -0.1 0.1-1.1 1-1.2 0.7 0 0 0 0 0 0 0 0 0 0 0 0 -0.2-1.1-0.4-1.9-0.4-3 -0.2 0.3-0.4 0.5-0.6 0.7 -0.1 0-0.1 0-0.2 0 -0.2-0.1-0.4-0.5-0.5-1.1 -0.1-0.9-0.1-2.2 0.1-2.5 -0.6 0.3-0.9 0.1-1.1-0.3 0-0.1-0.1-0.2-0.1-0.3 -1.2-3.9-1.6-7.7-1.1-11.1C755 61.1 755.7 60.7 756.2 61z"/><path d="M758.6 55.3c2.7-2.2 6.1-3.7 10.1-4.6 0.1 0 0.3-0.1 0.4-0.1 0.4 0 0.7 0.2 0.8 0.8 0.2-0.3 1.2-0.9 2.1-1.3 0.5-0.2 1-0.3 1.2-0.1 0 0 0.1 0.1 0.1 0.2 -0.1 0.3-0.2 0.6-0.3 0.9 1.2-0.7 3.5-2.2 2.9 0.2 0.4-0.5 1.5-1.2 2.3-1.4 0.3-0.1 0.6-0.1 0.7 0h0c0.2 0.2 0.2 0.5-0.2 1.3 0.6-0.3 1.9-1 2.8-1.1 0.3-0.1 0.6 0 0.7 0.1 0.2 0.2 0.2 0.6-0.2 1.3 1.3-0.6 4.4-2 2.9 0.6 1.2-0.3 5.2-1.5 3 0.8 0.9-0.2 4.7-0.9 3.5 0.8 0.3-0.1 3 0.1 3 0.7 -0.1 0.2-0.3 0.3-0.5 0.4 0.6 0.1 4.2 0.8 4.2 1.4 0 0.6-3.7 1.3-4.2 1.4 0.2 0.1 0.4 0.2 0.5 0.4 0 0.6-2.6 0.9-3 0.7 1.2 1.7-2.6 0.9-3.5 0.8 2.2 2.3-1.9 1.1-3 0.8 1.5 2.6-1.6 1.1-2.9 0.6 0.4 0.8 0.4 1.2 0.2 1.3 -0.1 0.1-0.4 0.1-0.7 0.1 -0.8-0.1-2.2-0.8-2.8-1.2 0.4 0.8 0.4 1.2 0.1 1.3 -0.1 0.1-0.4 0.1-0.6 0 -0.8-0.2-1.9-0.8-2.3-1.4 0 0.1 0.3 1.4 0 1.3 0 0 0 0 0 0 0 0 0 0 0 0 -1-0.4-1.8-0.6-2.8-1.1 0.1 0.3 0.3 0.6 0.3 0.9 0 0.1 0 0.1-0.1 0.2 -0.2 0.2-0.6 0.1-1.1-0.1 -0.9-0.4-1.9-1-2.1-1.3 -0.1 0.7-0.4 0.9-0.8 0.8 -0.1 0-0.2 0-0.3-0.1 -4-0.9-7.5-2.5-10.2-4.6C758.1 56.4 758.1 55.7 758.6 55.3z"/><path d="M754.9 50.3c-0.5-3.4-0.2-7.2 1.1-11.1 0-0.1 0.1-0.2 0.1-0.4 0.2-0.4 0.5-0.5 1.1-0.2 -0.2-0.3-0.2-1.5-0.1-2.4 0.1-0.6 0.2-1 0.5-1.1 0.1 0 0.1 0 0.2 0 0.2 0.2 0.4 0.4 0.6 0.7 0-1.3-0.2-4.1 1.6-2.4 -0.2-0.7-0.3-1.9-0.1-2.7 0.1-0.3 0.2-0.5 0.4-0.6l0 0c0.3-0.1 0.6 0.1 1.1 0.8 0-0.7 0.1-2.2 0.4-3 0.1-0.3 0.2-0.5 0.4-0.6 0.3-0.1 0.6 0.1 1 0.9 0.2-1.5 0.5-4.8 1.9-2.2 0.3-1.2 1.3-5.2 2.2-2.2 0.3-0.8 1.6-4.5 2.4-2.6 0.1-0.3 1.6-2.5 2.1-2.2 0.1 0.2 0.1 0.4 0.1 0.6 0.4-0.5 2.8-3.2 3.3-2.9 0.5 0.3-0.7 3.8-0.9 4.3 0.2-0.1 0.4-0.2 0.6-0.2 0.5 0.3-0.5 2.7-0.9 2.9 2.1-0.2-0.5 2.7-1 3.4 3.1-0.7 0 2.2-0.8 3 3 0 0.2 2-1 2.8 0.9 0 1.2 0.2 1.3 0.5 0 0.2-0.1 0.4-0.3 0.6 -0.6 0.7-1.8 1.4-2.4 1.8 0.9 0 1.2 0.3 1.2 0.6 0 0.2-0.1 0.4-0.3 0.6 -0.5 0.6-1.7 1.2-2.4 1.3 0.1 0 1.4 0.4 1.2 0.7 0 0 0 0 0 0 0 0 0 0 0 0 -0.8 0.7-1.4 1.3-2.4 1.9 0.3 0 0.6 0.1 0.9 0.1 0.1 0.1 0.1 0.1 0.1 0.2 0 0.2-0.3 0.6-0.7 0.9 -0.7 0.6-1.9 1.2-2.2 1.2 0.6 0.4 0.6 0.8 0.3 1.1 -0.1 0.1-0.1 0.1-0.2 0.2 -2.8 3.1-5.9 5.2-9.1 6.5C755.7 51.3 755 51 754.9 50.3z"/><path d="M748.8 51.1c-3.2-1.2-6.3-3.4-9.1-6.5 -0.1-0.1-0.2-0.2-0.3-0.3 -0.2-0.3-0.2-0.7 0.3-1.1 -0.3 0-1.4-0.6-2.2-1.1 -0.4-0.3-0.8-0.7-0.7-1 0-0.1 0.1-0.1 0.1-0.2 0.3-0.1 0.6-0.1 0.9-0.1 -1.2-0.7-3.6-1.9-1.3-2.6 -0.7-0.1-1.8-0.7-2.3-1.3 -0.2-0.2-0.4-0.4-0.3-0.6l0 0c0-0.3 0.4-0.5 1.2-0.5 -0.6-0.4-1.8-1.2-2.4-1.8 -0.2-0.2-0.3-0.5-0.3-0.6 0-0.3 0.4-0.4 1.3-0.5 -1.2-0.9-3.9-2.8-1-2.8 -0.9-0.9-3.9-3.7-0.8-3 -0.6-0.7-3.1-3.6-1-3.4 -0.3-0.2-1.4-2.6-0.9-2.9 0.2 0 0.4 0.1 0.6 0.2 -0.2-0.5-1.4-4-0.9-4.3 0.5-0.3 3 2.5 3.3 2.9 0-0.2 0-0.4 0.1-0.6 0.5-0.3 2.1 1.8 2.1 2.2 0.8-1.9 2.1 1.8 2.4 2.6 0.9-3 1.9 1 2.2 2.2 1.5-2.6 1.8 0.8 1.9 2.2 0.5-0.7 0.8-1 1.1-0.9 0.2 0.1 0.3 0.3 0.4 0.5 0.3 0.8 0.4 2.3 0.4 3 0.5-0.8 0.8-0.9 1.1-0.8 0.1 0.1 0.3 0.3 0.3 0.5 0.2 0.8 0.2 2 0 2.7 0.1-0.1 1.1-1 1.2-0.7 0 0 0 0 0 0 0 0 0 0 0 0 0.2 1.1 0.4 1.9 0.4 3 0.2-0.3 0.4-0.5 0.6-0.7 0.1 0 0.1 0 0.2 0 0.2 0.1 0.4 0.5 0.5 1.1 0.1 0.9 0.1 2.2-0.1 2.5 0.6-0.3 0.9-0.1 1.1 0.3 0 0.1 0.1 0.2 0.1 0.3 1.2 3.9 1.6 7.7 1.1 11.1C750 51 749.4 51.3 748.8 51.1z"/>
</symbol>
<symbol id="logo__full--color" viewBox="0 0 841.9 193.1" preserveAspectRatio="xMidYMid meet">
  <title>Phenotonic color logo</title>
  <desc>Phenotonic logo in black &amp; green.</desc>
  <g id="logo__full--color__type">
    <path fill="#121612" d="M79.9 71.4c21 0 32.6 12.4 32.6 38.6s-11.7 38.7-32.6 38.7c-8 0-15.1-2.6-19-6.9v18.2c0 4.8-3.9 8.7-8.7 8.7 -4.8 0-8.7-3.9-8.7-8.7V81c0-4.8 3.9-8.7 8.7-8.7 4.8 0 8.7 3.9 8.7 8.7C63.3 77 70.9 71.4 79.9 71.4zM77.6 86.2c-11.2 0-17.2 8-17.2 23.9 0 15.7 5.9 23.8 17.2 23.8s17.2-8 17.2-23.8C94.8 94.2 88.9 86.2 77.6 86.2z"/><path fill="#2E2727" d="M140 81c3.1-4.7 9.8-9.6 20.6-9.6 21.8 0 27 14 27 28v40.2c0 4.8-3.9 8.4-8.7 8.4 -5.1 0-8.7-3.5-8.7-8.4v-36.9c0-9.2-3.7-15.4-14.1-15.4 -12 0-16.1 7.1-16.1 16.5v35.8c0 4.8-3.7 8.4-8.7 8.4 -5 0-8.7-3.5-8.7-8.4V60.3c0-4.8 3.9-8.7 8.7-8.7 4.8 0 8.7 3.9 8.7 8.7V81z"/><path fill="#2E2727" d="M231.6 71.4c27.1 0 32.1 20.9 32.1 32 0 5.9 0 12.9-9.8 12.9h-39.7c0 11.6 8.2 16.9 18.8 16.9 7.1 0 12-2.4 15.9-5 1.8-1.1 3.1-1.8 5.1-1.8 4.2 0 7.5 3.4 7.5 7.5 0 2.6-1.3 4.7-2.7 5.9 -2.7 2.6-11.2 8.8-25.9 8.8 -22.3 0-36.1-12-36.1-38.9C196.9 85.2 209.8 71.4 231.6 71.4zM214.7 101.7h31.8c0-7.9-4.5-15.6-14.9-15.6C222.3 86.2 215.5 91.5 214.7 101.7z"/><path fill="#2E2727" d="M338.2 99.3v40.2c0 4.8-3.9 8.4-8.7 8.4 -5.1 0-8.7-3.5-8.7-8.4v-36.9c0-9.2-3.7-15.4-14.1-15.4 -12 0-16.1 7.1-16.1 16.5v35.8c0 4.8-3.7 8.4-8.7 8.4 -5 0-8.7-3.5-8.7-8.4V81c0-4.8 3.9-8.7 8.7-8.7 4.8 0 8.7 3.9 8.7 8.7 3.1-4.7 9.8-9.6 20.6-9.6C333.1 71.4 338.2 85.4 338.2 99.3z"/><path fill="#2E2727" d="M382.7 148.6c-21.7 0-35.2-12.4-35.2-38.6 0-26.3 13.5-38.7 35.2-38.7 21.7 0 35.2 12.4 35.2 38.7C417.8 136.3 404.3 148.6 382.7 148.6zM382.7 86.2c-11.6 0-17.7 8-17.7 23.9 0 15.7 6.1 23.8 17.7 23.8 11.6 0 17.7-8 17.7-23.8C400.3 94.2 394.2 86.2 382.7 86.2z"/><path fill="#2E2727" d="M431.7 60.1c0-4.7 3.9-8.5 8.5-8.5 4.7 0 8.5 3.9 8.5 8.5v13.5h7.2c4 0 7.2 3.2 7.2 7.2 0 4-3.2 7.2-7.2 7.2h-7.2V127c0 3.7 3.2 5.8 6.1 5.8 4.2 0 7.5 3.4 7.5 7.5 0 4.2-3.4 7.5-7.5 7.5 -14.3 0-23.1-9.2-23.1-21.8V88.1H428c-4 0-7.2-3.2-7.2-7.2 0-4 3.2-7.2 7.2-7.2h3.7V60.1z"/><path fill="#2E2727" d="M501.8 148.6c-21.7 0-35.2-12.4-35.2-38.6 0-26.3 13.5-38.7 35.2-38.7 21.7 0 35.2 12.4 35.2 38.7C537 136.3 523.5 148.6 501.8 148.6zM501.8 86.2c-11.6 0-17.7 8-17.7 23.9 0 15.7 6.1 23.8 17.7 23.8 11.6 0 17.7-8 17.7-23.8C519.5 94.2 513.4 86.2 501.8 86.2z"/><path fill="#2E2727" d="M611.7 99.3v40.2c0 4.8-3.9 8.4-8.7 8.4 -5.1 0-8.7-3.5-8.7-8.4v-36.9c0-9.2-3.7-15.4-14.1-15.4 -12 0-16.1 7.1-16.1 16.5v35.8c0 4.8-3.7 8.4-8.7 8.4 -5 0-8.7-3.5-8.7-8.4V81c0-4.8 3.9-8.7 8.7-8.7 4.8 0 8.7 3.9 8.7 8.7 3.1-4.7 9.8-9.6 20.6-9.6C606.6 71.4 611.7 85.4 611.7 99.3z"/><path fill="#2E2727" d="M622.9 53.6c0-7.4 3.7-10.6 10.3-10.6 6.7 0 10.4 3.2 10.4 10.6 0 6.3-3.7 10.1-10.4 10.1C626.6 63.7 622.9 59.8 622.9 53.6zM641.8 139.2c0 4.8-3.9 8.7-8.7 8.7s-8.7-3.9-8.7-8.7V81c0-4.8 3.9-8.7 8.7-8.7s8.7 3.9 8.7 8.7V139.2z"/><path fill="#2E2727" d="M686.2 71.4c14.8 0 23.3 7.4 26.2 11.1 1.3 1.8 1.8 3.1 1.8 5 0 4.3-3.4 7.7-7.7 7.7 -2.6 0-4.5-1.1-5.9-2.7 -2.1-2.2-6.3-6.3-14.3-6.3 -11.2 0-17.3 8.7-17.3 23.8 0 15.4 6.1 23.9 17.3 23.9 7.4 0 12.2-3.7 15.9-6.4 1.8-1.3 3.2-1.6 4.8-1.6 4.3 0 7.7 3.4 7.7 7.7 0 2.2-0.8 4.2-2.7 5.9 -3.7 3.4-12.5 9.2-25.7 9.2 -21.8 0-34.9-12.5-34.9-38.7S664.4 71.4 686.2 71.4z"/>
  </g>
  <g id="logo__full--color__icon">
    <path fill="#2EA72E" d="M736.2 50.6c-0.1 0-0.2 0-0.3-0.1C736 50.6 736.1 50.6 736.2 50.6z"/><path fill="#2EA72E" d="M736.2 61.4c-0.1 0-0.3 0.1-0.4 0.1C736 61.5 736.1 61.5 736.2 61.4z"/><path fill="#2EA72E" d="M746.4 56.8c-2.7 2.2-6.1 3.7-10.1 4.6 -0.1 0-0.3 0.1-0.4 0.1 -0.4 0-0.7-0.2-0.8-0.8 -0.2 0.3-1.2 0.9-2.1 1.3 -0.5 0.2-1 0.3-1.2 0.1 0 0-0.1-0.1-0.1-0.2 0.1-0.3 0.2-0.6 0.3-0.9 -1.2 0.7-3.5 2.2-2.9-0.2 -0.4 0.5-1.5 1.2-2.3 1.4 -0.3 0.1-0.6 0.1-0.7 0h0c-0.2-0.2-0.2-0.5 0.2-1.3 -0.6 0.3-1.9 1-2.8 1.1 -0.3 0.1-0.6 0-0.7-0.1 -0.2-0.2-0.2-0.6 0.2-1.3 -1.3 0.6-4.4 2-2.9-0.6 -1.2 0.3-5.2 1.5-3-0.8 -0.9 0.2-4.7 0.9-3.5-0.8 -0.3 0.1-3-0.1-3-0.7 0.1-0.2 0.3-0.3 0.5-0.4 -0.6-0.1-4.2-0.8-4.2-1.4 0-0.6 3.7-1.3 4.2-1.4 -0.2-0.1-0.4-0.2-0.5-0.4 0-0.6 2.6-0.9 3-0.7 -1.2-1.7 2.6-0.9 3.5-0.8 -2.2-2.3 1.9-1.1 3-0.8 -1.5-2.6 1.6-1.1 2.9-0.6 -0.4-0.8-0.4-1.2-0.2-1.3 0.1-0.1 0.4-0.1 0.7-0.1 0.8 0.1 2.2 0.8 2.8 1.2 -0.4-0.8-0.4-1.2-0.1-1.3 0.1-0.1 0.4-0.1 0.6 0 0.8 0.2 1.9 0.8 2.3 1.4 0-0.1-0.3-1.4 0-1.3 0 0 0 0 0 0 0 0 0 0 0 0 1 0.4 1.8 0.6 2.8 1.1 -0.1-0.3-0.3-0.6-0.3-0.9 0-0.1 0-0.1 0.1-0.2 0.2-0.2 0.6-0.1 1.1 0.1 0.9 0.4 1.9 1 2.1 1.3 0.1-0.7 0.4-0.9 0.8-0.8 0.1 0 0.2 0 0.3 0.1 4 0.9 7.5 2.5 10.2 4.6C746.9 55.7 746.9 56.4 746.4 56.8z"/><path fill="#2EA72E" d="M750.1 61.7c0.5 3.4 0.2 7.2-1.1 11.1 0 0.1-0.1 0.2-0.1 0.4 -0.2 0.4-0.5 0.5-1.1 0.2 0.2 0.3 0.2 1.5 0.1 2.4 -0.1 0.6-0.2 1-0.5 1.1 -0.1 0-0.1 0-0.2 0 -0.2-0.2-0.4-0.4-0.6-0.7 0 1.3 0.2 4.1-1.6 2.4 0.2 0.7 0.3 1.9 0.1 2.7 -0.1 0.3-0.2 0.5-0.4 0.6l0 0c-0.3 0.1-0.6-0.1-1.1-0.8 0 0.7-0.1 2.2-0.4 3 -0.1 0.3-0.2 0.5-0.4 0.6 -0.3 0.1-0.6-0.1-1-0.9 -0.2 1.5-0.5 4.8-1.9 2.2 -0.3 1.2-1.3 5.2-2.2 2.2 -0.3 0.8-1.6 4.5-2.4 2.6 -0.1 0.3-1.6 2.5-2.1 2.2 -0.1-0.2-0.1-0.4-0.1-0.6 -0.4 0.5-2.8 3.2-3.3 2.9 -0.5-0.3 0.7-3.8 0.9-4.3 -0.2 0.1-0.4 0.2-0.6 0.2 -0.5-0.3 0.5-2.7 0.9-2.9 -2.1 0.2 0.5-2.7 1-3.4 -3.1 0.7 0-2.2 0.8-3 -3 0-0.2-2 1-2.8 -0.9 0-1.2-0.2-1.3-0.5 0-0.2 0.1-0.4 0.3-0.6 0.6-0.7 1.8-1.4 2.4-1.8 -0.9 0-1.2-0.3-1.2-0.6 0-0.2 0.1-0.4 0.3-0.6 0.5-0.6 1.7-1.2 2.4-1.3 -0.1 0-1.4-0.4-1.2-0.7 0 0 0 0 0 0 0 0 0 0 0 0 0.8-0.7 1.4-1.3 2.4-1.9 -0.3 0-0.6-0.1-0.9-0.1 -0.1-0.1-0.1-0.1-0.1-0.2 0-0.2 0.3-0.6 0.7-0.9 0.7-0.6 1.9-1.2 2.2-1.2 -0.6-0.4-0.6-0.8-0.3-1.1 0.1-0.1 0.1-0.1 0.2-0.2 2.8-3.1 5.9-5.2 9.1-6.5C749.4 60.7 750 61.1 750.1 61.7z"/><path fill="#2EA72E" d="M756.2 61c3.2 1.2 6.3 3.4 9.1 6.5 0.1 0.1 0.2 0.2 0.3 0.3 0.2 0.3 0.2 0.7-0.3 1.1 0.3 0 1.4 0.6 2.2 1.1 0.4 0.3 0.8 0.7 0.7 1 0 0.1-0.1 0.1-0.1 0.2 -0.3 0.1-0.6 0.1-0.9 0.1 1.2 0.7 3.6 1.9 1.3 2.6 0.7 0.1 1.8 0.7 2.3 1.3 0.2 0.2 0.4 0.4 0.3 0.6l0 0c0 0.3-0.4 0.5-1.2 0.5 0.6 0.4 1.8 1.2 2.4 1.8 0.2 0.2 0.3 0.5 0.3 0.6 0 0.3-0.4 0.4-1.3 0.5 1.2 0.9 3.9 2.8 1 2.8 0.9 0.9 3.9 3.7 0.8 3 0.6 0.7 3.1 3.6 1 3.4 0.3 0.2 1.4 2.6 0.9 2.9 -0.2 0-0.4-0.1-0.6-0.2 0.2 0.5 1.4 4 0.9 4.3 -0.5 0.3-3-2.5-3.3-2.9 0 0.2 0 0.4-0.1 0.6 -0.5 0.3-2.1-1.8-2.1-2.2 -0.8 1.9-2.1-1.8-2.4-2.6 -0.9 3-1.9-1-2.2-2.2 -1.5 2.6-1.8-0.8-1.9-2.2 -0.5 0.7-0.8 1-1.1 0.9 -0.2-0.1-0.3-0.3-0.4-0.5 -0.3-0.8-0.4-2.3-0.4-3 -0.5 0.8-0.8 0.9-1.1 0.8 -0.1-0.1-0.3-0.3-0.3-0.5 -0.2-0.8-0.2-2 0-2.7 -0.1 0.1-1.1 1-1.2 0.7 0 0 0 0 0 0 0 0 0 0 0 0 -0.2-1.1-0.4-1.9-0.4-3 -0.2 0.3-0.4 0.5-0.6 0.7 -0.1 0-0.1 0-0.2 0 -0.2-0.1-0.4-0.5-0.5-1.1 -0.1-0.9-0.1-2.2 0.1-2.5 -0.6 0.3-0.9 0.1-1.1-0.3 0-0.1-0.1-0.2-0.1-0.3 -1.2-3.9-1.6-7.7-1.1-11.1C755 61.1 755.7 60.7 756.2 61z"/><path fill="#2EA72E" d="M758.6 55.3c2.7-2.2 6.1-3.7 10.1-4.6 0.1 0 0.3-0.1 0.4-0.1 0.4 0 0.7 0.2 0.8 0.8 0.2-0.3 1.2-0.9 2.1-1.3 0.5-0.2 1-0.3 1.2-0.1 0 0 0.1 0.1 0.1 0.2 -0.1 0.3-0.2 0.6-0.3 0.9 1.2-0.7 3.5-2.2 2.9 0.2 0.4-0.5 1.5-1.2 2.3-1.4 0.3-0.1 0.6-0.1 0.7 0h0c0.2 0.2 0.2 0.5-0.2 1.3 0.6-0.3 1.9-1 2.8-1.1 0.3-0.1 0.6 0 0.7 0.1 0.2 0.2 0.2 0.6-0.2 1.3 1.3-0.6 4.4-2 2.9 0.6 1.2-0.3 5.2-1.5 3 0.8 0.9-0.2 4.7-0.9 3.5 0.8 0.3-0.1 3 0.1 3 0.7 -0.1 0.2-0.3 0.3-0.5 0.4 0.6 0.1 4.2 0.8 4.2 1.4 0 0.6-3.7 1.3-4.2 1.4 0.2 0.1 0.4 0.2 0.5 0.4 0 0.6-2.6 0.9-3 0.7 1.2 1.7-2.6 0.9-3.5 0.8 2.2 2.3-1.9 1.1-3 0.8 1.5 2.6-1.6 1.1-2.9 0.6 0.4 0.8 0.4 1.2 0.2 1.3 -0.1 0.1-0.4 0.1-0.7 0.1 -0.8-0.1-2.2-0.8-2.8-1.2 0.4 0.8 0.4 1.2 0.1 1.3 -0.1 0.1-0.4 0.1-0.6 0 -0.8-0.2-1.9-0.8-2.3-1.4 0 0.1 0.3 1.4 0 1.3 0 0 0 0 0 0 0 0 0 0 0 0 -1-0.4-1.8-0.6-2.8-1.1 0.1 0.3 0.3 0.6 0.3 0.9 0 0.1 0 0.1-0.1 0.2 -0.2 0.2-0.6 0.1-1.1-0.1 -0.9-0.4-1.9-1-2.1-1.3 -0.1 0.7-0.4 0.9-0.8 0.8 -0.1 0-0.2 0-0.3-0.1 -4-0.9-7.5-2.5-10.2-4.6C758.1 56.4 758.1 55.7 758.6 55.3z"/><path fill="#2EA72E" d="M754.9 50.3c-0.5-3.4-0.2-7.2 1.1-11.1 0-0.1 0.1-0.2 0.1-0.4 0.2-0.4 0.5-0.5 1.1-0.2 -0.2-0.3-0.2-1.5-0.1-2.4 0.1-0.6 0.2-1 0.5-1.1 0.1 0 0.1 0 0.2 0 0.2 0.2 0.4 0.4 0.6 0.7 0-1.3-0.2-4.1 1.6-2.4 -0.2-0.7-0.3-1.9-0.1-2.7 0.1-0.3 0.2-0.5 0.4-0.6l0 0c0.3-0.1 0.6 0.1 1.1 0.8 0-0.7 0.1-2.2 0.4-3 0.1-0.3 0.2-0.5 0.4-0.6 0.3-0.1 0.6 0.1 1 0.9 0.2-1.5 0.5-4.8 1.9-2.2 0.3-1.2 1.3-5.2 2.2-2.2 0.3-0.8 1.6-4.5 2.4-2.6 0.1-0.3 1.6-2.5 2.1-2.2 0.1 0.2 0.1 0.4 0.1 0.6 0.4-0.5 2.8-3.2 3.3-2.9 0.5 0.3-0.7 3.8-0.9 4.3 0.2-0.1 0.4-0.2 0.6-0.2 0.5 0.3-0.5 2.7-0.9 2.9 2.1-0.2-0.5 2.7-1 3.4 3.1-0.7 0 2.2-0.8 3 3 0 0.2 2-1 2.8 0.9 0 1.2 0.2 1.3 0.5 0 0.2-0.1 0.4-0.3 0.6 -0.6 0.7-1.8 1.4-2.4 1.8 0.9 0 1.2 0.3 1.2 0.6 0 0.2-0.1 0.4-0.3 0.6 -0.5 0.6-1.7 1.2-2.4 1.3 0.1 0 1.4 0.4 1.2 0.7 0 0 0 0 0 0 0 0 0 0 0 0 -0.8 0.7-1.4 1.3-2.4 1.9 0.3 0 0.6 0.1 0.9 0.1 0.1 0.1 0.1 0.1 0.1 0.2 0 0.2-0.3 0.6-0.7 0.9 -0.7 0.6-1.9 1.2-2.2 1.2 0.6 0.4 0.6 0.8 0.3 1.1 -0.1 0.1-0.1 0.1-0.2 0.2 -2.8 3.1-5.9 5.2-9.1 6.5C755.7 51.3 755 51 754.9 50.3z"/><path fill="#2EA72E" d="M748.8 51.1c-3.2-1.2-6.3-3.4-9.1-6.5 -0.1-0.1-0.2-0.2-0.3-0.3 -0.2-0.3-0.2-0.7 0.3-1.1 -0.3 0-1.4-0.6-2.2-1.1 -0.4-0.3-0.8-0.7-0.7-1 0-0.1 0.1-0.1 0.1-0.2 0.3-0.1 0.6-0.1 0.9-0.1 -1.2-0.7-3.6-1.9-1.3-2.6 -0.7-0.1-1.8-0.7-2.3-1.3 -0.2-0.2-0.4-0.4-0.3-0.6l0 0c0-0.3 0.4-0.5 1.2-0.5 -0.6-0.4-1.8-1.2-2.4-1.8 -0.2-0.2-0.3-0.5-0.3-0.6 0-0.3 0.4-0.4 1.3-0.5 -1.2-0.9-3.9-2.8-1-2.8 -0.9-0.9-3.9-3.7-0.8-3 -0.6-0.7-3.1-3.6-1-3.4 -0.3-0.2-1.4-2.6-0.9-2.9 0.2 0 0.4 0.1 0.6 0.2 -0.2-0.5-1.4-4-0.9-4.3 0.5-0.3 3 2.5 3.3 2.9 0-0.2 0-0.4 0.1-0.6 0.5-0.3 2.1 1.8 2.1 2.2 0.8-1.9 2.1 1.8 2.4 2.6 0.9-3 1.9 1 2.2 2.2 1.5-2.6 1.8 0.8 1.9 2.2 0.5-0.7 0.8-1 1.1-0.9 0.2 0.1 0.3 0.3 0.4 0.5 0.3 0.8 0.4 2.3 0.4 3 0.5-0.8 0.8-0.9 1.1-0.8 0.1 0.1 0.3 0.3 0.3 0.5 0.2 0.8 0.2 2 0 2.7 0.1-0.1 1.1-1 1.2-0.7 0 0 0 0 0 0 0 0 0 0 0 0 0.2 1.1 0.4 1.9 0.4 3 0.2-0.3 0.4-0.5 0.6-0.7 0.1 0 0.1 0 0.2 0 0.2 0.1 0.4 0.5 0.5 1.1 0.1 0.9 0.1 2.2-0.1 2.5 0.6-0.3 0.9-0.1 1.1 0.3 0 0.1 0.1 0.2 0.1 0.3 1.2 3.9 1.6 7.7 1.1 11.1C750 51 749.4 51.3 748.8 51.1z"/>
  </g>
</symbol>
<symbol id="logo__icon" viewBox="0 0 198.7 198.7" preserveAspectRatio="xMidYMid meet">
  <title>Phenotonic icon</title>
  <desc>Phenotonic's seed-of-life based icon.</desc>
  <path d="M68.5 88.7c-0.2 0-0.3-0.1-0.5-0.1C68.2 88.6 68.4 88.6 68.5 88.7z"/><path d="M68.7 109.5c-0.3 0.1-0.5 0.1-0.7 0.2C68.2 109.6 68.4 109.5 68.7 109.5z"/><path d="M88.1 100.6c-5.2 4.2-11.7 7.2-19.4 8.9 -0.2 0.1-0.5 0.1-0.7 0.2 -0.8 0.1-1.3-0.3-1.5-1.6 -0.3 0.5-2.3 1.8-4 2.5 -1 0.4-1.9 0.6-2.3 0.2 -0.1-0.1-0.1-0.2-0.2-0.3 0.1-0.6 0.3-1.1 0.6-1.6 -2.2 1.3-6.7 4.2-5.5-0.3 -0.9 1-2.9 2.3-4.4 2.7 -0.6 0.1-1.1 0.2-1.4 0h0c-0.5-0.3-0.5-1.1 0.3-2.5 -1.2 0.6-3.7 1.9-5.3 2.2 -0.6 0.1-1.1 0.1-1.4-0.1 -0.4-0.3-0.3-1.1 0.4-2.6 -2.6 1.1-8.5 3.9-5.6-1.1 -2.3 0.6-9.9 2.8-5.8-1.5 -1.7 0.3-9 1.6-6.7-1.5 -0.6 0.2-5.7-0.2-5.7-1.4 0.2-0.3 0.6-0.6 1-0.7 -1.1-0.1-8.1-1.5-8.1-2.7 0-1.2 7-2.6 8.1-2.7 -0.4-0.2-0.7-0.4-1-0.7 0-1.1 5-1.7 5.7-1.4 -2.4-3.2 5-1.8 6.7-1.5 -4.2-4.4 3.6-2.2 5.8-1.5C35 86.3 41 89 43.5 90.1c-0.8-1.5-0.8-2.3-0.4-2.6 0.3-0.2 0.7-0.2 1.3-0.1 1.6 0.3 4.1 1.6 5.4 2.2 -0.8-1.5-0.7-2.3-0.2-2.5 0.3-0.1 0.7-0.1 1.2 0 1.5 0.3 3.6 1.6 4.5 2.7 -0.1-0.3-0.6-2.8 0-2.6 0 0 0.1 0 0.1 0 0 0 0 0 0.1 0 1.9 0.8 3.5 1.1 5.4 2.2 -0.3-0.5-0.5-1.1-0.6-1.6 0-0.2 0.1-0.3 0.2-0.4 0.4-0.3 1.2-0.1 2.2 0.2 1.7 0.7 3.7 2 4 2.5 0.1-1.3 0.7-1.7 1.6-1.6 0.2 0 0.3 0.1 0.5 0.1 7.8 1.7 14.4 4.7 19.6 8.9C89.1 98.4 89.1 99.8 88.1 100.6z"/><path d="M95.3 110.1c1 6.6 0.3 13.8-2 21.3 -0.1 0.2-0.1 0.5-0.2 0.7 -0.3 0.7-1 1-2.1 0.5 0.3 0.5 0.4 2.9 0.2 4.7 -0.2 1.1-0.4 2-0.9 2.1 -0.1 0-0.2 0-0.4 0 -0.4-0.4-0.8-0.9-1.1-1.4 0 2.6 0.3 7.9-3 4.6 0.5 1.2 0.5 3.6 0.1 5.1 -0.2 0.6-0.4 1-0.7 1.2l0 0c-0.5 0.2-1.2-0.1-2-1.5 -0.1 1.4-0.2 4.1-0.7 5.7 -0.2 0.6-0.5 1-0.8 1.1 -0.5 0.2-1.1-0.3-2-1.7 -0.3 2.8-0.9 9.3-3.7 4.3 -0.6 2.3-2.5 10-4.2 4.2 -0.6 1.6-3.1 8.6-4.7 5 -0.1 0.6-3 4.8-4.1 4.3 -0.2-0.4-0.2-0.8-0.1-1.2 -0.7 0.9-5.4 6.2-6.4 5.6 -1-0.6 1.3-7.4 1.7-8.4 -0.3 0.3-0.7 0.4-1.1 0.5 -1-0.6 1-5.2 1.6-5.7 -4 0.4 0.9-5.3 2-6.5 -5.9 1.4-0.1-4.2 1.6-5.8 -5.7 0-0.4-3.8 1.8-5.4 -1.7-0.1-2.4-0.4-2.4-0.9 0-0.3 0.2-0.7 0.5-1.2 1.1-1.3 3.5-2.8 4.6-3.5 -1.7-0.1-2.3-0.5-2.3-1.1 0-0.3 0.2-0.7 0.6-1.1 1-1.1 3.2-2.3 4.6-2.5 -0.3-0.1-2.7-0.8-2.2-1.3 0 0 0 0 0 0 0 0 0 0 0 0 1.6-1.3 2.7-2.5 4.6-3.6 -0.6 0-1.2-0.1-1.7-0.3 -0.1-0.1-0.2-0.2-0.2-0.3 -0.1-0.5 0.5-1.1 1.3-1.8 1.4-1.1 3.6-2.2 4.2-2.2 -1.1-0.8-1.1-1.5-0.6-2.1 0.1-0.1 0.2-0.3 0.4-0.4 5.4-5.9 11.3-10.1 17.5-12.5C93.8 108.1 95.1 108.9 95.3 110.1z"/><path d="M107.1 108.6c6.2 2.4 12.1 6.6 17.4 12.4 0.2 0.2 0.3 0.4 0.5 0.6 0.4 0.6 0.4 1.3-0.6 2.1 0.6 0 2.7 1.1 4.2 2.2 0.9 0.7 1.5 1.4 1.4 1.8 0 0.1-0.1 0.2-0.2 0.3 -0.6 0.2-1.1 0.3-1.7 0.3 2.2 1.3 7 3.6 2.5 4.9 1.3 0.2 3.4 1.4 4.5 2.5 0.4 0.4 0.7 0.9 0.7 1.2l0 0c0 0.5-0.7 0.9-2.3 1 1.1 0.8 3.5 2.2 4.6 3.5 0.4 0.5 0.6 0.9 0.6 1.2 -0.1 0.5-0.8 0.9-2.4 0.9 2.3 1.7 7.6 5.4 1.8 5.4 1.7 1.7 7.4 7.2 1.6 5.8 1.1 1.3 5.9 7 2 6.5 0.5 0.4 2.7 5.1 1.6 5.7 -0.4 0-0.8-0.2-1.1-0.5 0.5 1 2.7 7.8 1.7 8.4 -1 0.6-5.8-4.8-6.4-5.6 0.1 0.4 0 0.8-0.1 1.2 -1 0.6-3.9-3.5-4.1-4.3 -1.6 3.7-4.1-3.5-4.7-5 -1.8 5.9-3.6-2-4.2-4.2 -2.8 5-3.4-1.6-3.7-4.3 -0.9 1.4-1.5 1.8-2 1.6 -0.3-0.1-0.5-0.5-0.7-1 -0.6-1.6-0.7-4.4-0.8-5.8 -0.9 1.4-1.6 1.8-2.1 1.5 -0.3-0.2-0.5-0.5-0.6-1 -0.5-1.5-0.4-3.9 0.1-5.2 -0.2 0.2-2.1 1.9-2.2 1.3 0 0 0-0.1 0-0.1 0 0 0 0 0-0.1 -0.3-2-0.8-3.6-0.8-5.8 -0.3 0.5-0.7 1-1.1 1.4 -0.1 0.1-0.3 0.1-0.4 0 -0.5-0.2-0.7-1-0.9-2 -0.3-1.8-0.1-4.2 0.2-4.8 -1.2 0.5-1.8 0.2-2.2-0.6 -0.1-0.2-0.1-0.3-0.2-0.5 -2.4-7.6-3.1-14.8-2.1-21.4C104.7 108.9 105.9 108.1 107.1 108.6z"/><path d="M111.7 97.6c5.2-4.2 11.7-7.2 19.4-8.9 0.2-0.1 0.5-0.1 0.7-0.2 0.8-0.1 1.3 0.3 1.5 1.6 0.3-0.5 2.3-1.8 4-2.5 1-0.4 1.9-0.6 2.3-0.2 0.1 0.1 0.1 0.2 0.2 0.3 -0.1 0.6-0.3 1.1-0.6 1.6 2.2-1.3 6.7-4.2 5.5 0.3 0.9-1 2.9-2.3 4.4-2.7 0.6-0.1 1.1-0.2 1.4 0h0c0.5 0.3 0.5 1.1-0.3 2.5 1.2-0.6 3.7-1.9 5.3-2.2 0.6-0.1 1.1-0.1 1.4 0.1 0.4 0.3 0.3 1.1-0.4 2.6 2.6-1.1 8.5-3.9 5.6 1.1 2.3-0.6 9.9-2.8 5.8 1.5 1.7-0.3 9-1.6 6.7 1.5 0.6-0.2 5.7 0.2 5.7 1.4 -0.2 0.3-0.6 0.6-1 0.7 1.1 0.1 8.1 1.5 8.1 2.7 0 1.2-7 2.6-8.1 2.7 0.4 0.2 0.7 0.4 1 0.7 0 1.1-5 1.7-5.7 1.4 2.4 3.2-5 1.8-6.7 1.5 4.2 4.4-3.6 2.2-5.8 1.5 2.9 4.9-3.1 2.2-5.6 1.1 0.8 1.5 0.8 2.3 0.4 2.6 -0.3 0.2-0.7 0.2-1.3 0.1 -1.6-0.3-4.1-1.6-5.4-2.2 0.8 1.5 0.7 2.3 0.2 2.5 -0.3 0.1-0.7 0.1-1.2 0 -1.5-0.3-3.6-1.6-4.5-2.7 0.1 0.3 0.6 2.8 0 2.6 0 0-0.1 0-0.1 0 0 0 0 0-0.1 0 -1.9-0.8-3.5-1.1-5.4-2.2 0.3 0.5 0.5 1.1 0.6 1.6 0 0.2-0.1 0.3-0.2 0.4 -0.4 0.3-1.2 0.1-2.2-0.2 -1.7-0.7-3.7-2-4-2.5 -0.1 1.3-0.7 1.7-1.6 1.6 -0.2 0-0.3-0.1-0.5-0.1 -7.8-1.7-14.4-4.7-19.6-8.9C110.7 99.8 110.7 98.4 111.7 97.6z"/><path d="M104.5 88.2c-1-6.6-0.3-13.8 2-21.3 0.1-0.2 0.1-0.5 0.2-0.7 0.3-0.7 1-1 2.1-0.5 -0.3-0.5-0.4-2.9-0.2-4.7 0.2-1.1 0.4-2 0.9-2.1 0.1 0 0.2 0 0.4 0 0.4 0.4 0.8 0.9 1.1 1.4 0-2.6-0.3-7.9 3-4.6 -0.5-1.2-0.5-3.6-0.1-5.1 0.2-0.6 0.4-1 0.7-1.2l0 0c0.5-0.2 1.2 0.1 2 1.5 0.1-1.4 0.2-4.1 0.7-5.7 0.2-0.6 0.5-1 0.8-1.1 0.5-0.2 1.1 0.3 2 1.7 0.3-2.8 0.9-9.3 3.7-4.3 0.6-2.3 2.5-10 4.2-4.2 0.6-1.6 3.1-8.6 4.7-5 0.1-0.6 3-4.8 4.1-4.3 0.2 0.4 0.2 0.8 0.1 1.2 0.7-0.9 5.4-6.2 6.4-5.6 1 0.6-1.3 7.4-1.7 8.4 0.3-0.3 0.7-0.4 1.1-0.5 1 0.6-1 5.2-1.6 5.7 4-0.4-0.9 5.3-2 6.5 5.9-1.4 0.1 4.2-1.6 5.8 5.7 0 0.4 3.8-1.8 5.4 1.7 0.1 2.4 0.4 2.4 0.9 0 0.3-0.2 0.7-0.5 1.2 -1.1 1.3-3.5 2.8-4.6 3.5 1.7 0.1 2.3 0.5 2.3 1.1 0 0.3-0.2 0.7-0.6 1.1 -1 1.1-3.2 2.3-4.6 2.5 0.3 0.1 2.7 0.8 2.2 1.3 0 0 0 0 0 0 0 0 0 0 0 0 -1.6 1.3-2.7 2.5-4.6 3.6 0.6 0 1.2 0.1 1.7 0.3 0.1 0.1 0.2 0.2 0.2 0.3 0.1 0.5-0.5 1.1-1.3 1.8 -1.4 1.1-3.6 2.2-4.2 2.2 1.1 0.8 1.1 1.5 0.6 2.1 -0.1 0.1-0.2 0.3-0.4 0.4 -5.4 5.9-11.3 10.1-17.5 12.5C105.9 90.1 104.7 89.4 104.5 88.2z"/><path d="M92.7 89.6c-6.2-2.4-12.1-6.6-17.4-12.4 -0.2-0.2-0.3-0.4-0.5-0.6 -0.4-0.6-0.4-1.3 0.6-2.1 -0.6 0-2.7-1.1-4.2-2.2 -0.9-0.7-1.5-1.4-1.4-1.8 0-0.1 0.1-0.2 0.2-0.3 0.6-0.2 1.1-0.3 1.7-0.3 -2.2-1.3-7-3.6-2.5-4.9 -1.3-0.2-3.4-1.4-4.5-2.5 -0.4-0.4-0.7-0.9-0.7-1.2l0 0c0-0.5 0.7-0.9 2.3-1 -1.1-0.8-3.5-2.2-4.6-3.5 -0.4-0.5-0.6-0.9-0.6-1.2 0.1-0.5 0.8-0.9 2.4-0.9 -2.3-1.7-7.6-5.4-1.8-5.4 -1.7-1.7-7.4-7.2-1.6-5.8 -1.1-1.3-5.9-7-2-6.5 -0.5-0.4-2.7-5.1-1.6-5.7 0.4 0 0.8 0.2 1.1 0.5 -0.5-1-2.7-7.8-1.7-8.4 1-0.6 5.8 4.8 6.4 5.6 -0.1-0.4 0-0.8 0.1-1.2 1-0.6 3.9 3.5 4.1 4.3 1.6-3.7 4.1 3.5 4.7 5 1.8-5.9 3.6 2 4.2 4.2 2.8-5 3.4 1.6 3.7 4.3 0.9-1.4 1.5-1.8 2-1.6 0.3 0.1 0.5 0.5 0.7 1 0.6 1.6 0.7 4.4 0.8 5.8 0.9-1.4 1.6-1.8 2.1-1.5 0.3 0.2 0.5 0.5 0.6 1 0.5 1.5 0.4 3.9-0.1 5.2 0.2-0.2 2.1-1.9 2.2-1.3 0 0 0 0.1 0 0.1 0 0 0 0 0 0.1 0.3 2 0.8 3.6 0.8 5.8 0.3-0.5 0.7-1 1.1-1.4 0.1-0.1 0.3-0.1 0.4 0 0.5 0.2 0.7 1 0.9 2 0.3 1.8 0.1 4.2-0.2 4.8 1.2-0.5 1.8-0.2 2.2 0.6 0.1 0.2 0.1 0.3 0.2 0.5 2.4 7.6 3.1 14.8 2.1 21.4C95.1 89.4 93.8 90.1 92.7 89.6z"/>
</symbol>
<symbol id="logo__icon__outline" viewBox="0 0 198.7 198.7" preserveAspectRatio="xMidYMid meet">
  <title>Phenotonic icon, outlined</title>
  <desc>Phenotonic's seed-of-life based icon in outlined form.</desc>
  <path d="M187 98.3c-2.5-1.8-5.2-3.5-8-5.1 0 0 0 0 0 0 -14.9-8.6-31.2-12.9-46-12 0 0 0 0 0 0 -1 0.1-1.7-1.1-1.1-1.9 0 0 0 0 0 0 8.1-12.3 12.6-28.6 12.6-45.8v0c0-3.2-0.2-6.4-0.5-9.5 -0.1-0.8-1-1.4-1.7-1 -2.8 1.3-5.7 2.7-8.4 4.3 0 0 0 0 0 0 -14.9 8.6-26.8 20.6-33.4 33.8 0 0 0 0 0 0 -0.5 0.9-1.8 0.9-2.2 0 0 0 0 0 0 0 -6.6-13.2-18.5-25.2-33.4-33.8 0 0 0 0 0 0 -2.8-1.6-5.6-3.1-8.4-4.3 -0.8-0.4-1.7 0.2-1.7 1 -0.3 3.1-0.5 6.3-0.5 9.5v0c0 17.2 4.5 33.5 12.6 45.8 0 0 0 0 0 0 0.6 0.9-0.1 2-1.1 1.9 0 0 0 0 0 0 -14.7-0.9-31 3.4-46 12 0 0 0 0 0 0 -2.8 1.6-5.4 3.3-8 5.1 -0.7 0.5-0.7 1.5 0 2 2.5 1.8 5.2 3.5 8 5.1 0 0 0 0 0 0 14.9 8.6 31.2 12.9 46 12 0 0 0 0 0 0 1-0.1 1.7 1.1 1.1 1.9 0 0 0 0 0 0 -8.1 12.3-12.6 28.6-12.6 45.8 0 0 0 0 0 0 0 3.2 0.2 6.4 0.5 9.5 0.1 0.8 1 1.4 1.7 1 2.9-1.3 5.7-2.7 8.4-4.3 0 0 0 0 0 0 14.9-8.6 26.8-20.6 33.4-33.8 0 0 0 0 0 0 0.5-0.9 1.8-0.9 2.2 0 0 0 0 0 0 0 6.6 13.2 18.5 25.2 33.4 33.8 0 0 0 0 0 0 2.8 1.6 5.6 3.1 8.4 4.3 0.8 0.4 1.7-0.2 1.7-1 0.3-3.1 0.5-6.3 0.5-9.5v0c0-17.2-4.5-33.5-12.6-45.8 0 0 0 0 0 0 -0.6-0.9 0.1-2 1.1-1.9 0 0 0 0 0 0 14.7 0.9 31-3.4 46-12h0c0 0 0 0 0 0 2.8-1.6 5.4-3.3 8-5.1C187.7 99.9 187.7 98.8 187 98.3zM63.6 107.1c-0.1 0-0.2 0-0.3 0 -0.8 0.7-2.1 1.5-3.2 1.8 -0.5 0.1-0.9 0.1-1.1 0h0c-0.3-0.2-0.4-0.8 0.1-1.8 -0.1 0-0.2 0-0.3 0 -1 0.5-2.7 1.3-3.8 1.6 -0.5 0.1-0.9 0.1-1.1-0.1 -0.3-0.3-0.3-0.8 0.3-1.9 -0.1 0-0.2 0-0.2 0 -2.1 0.9-6 2.6-4.3-0.7 -0.2 0-0.4-0.1-0.6-0.1 -2.2 0.6-6.3 1.6-4.2-1 -0.3-0.1-0.6-0.2-0.8-0.2 -2.1 0.3-5.5 0.6-4.2-1.3 -0.1 0-0.2-0.1-0.2-0.1 -1.1 0-4.2-0.3-4.2-1.2 0.1-0.1 0.2-0.2 0.3-0.3 -0.5-0.2-1.1-0.4-1.6-0.7 -1.9-0.4-4.4-1.1-4.4-1.8 0-0.6 2.5-1.3 4.4-1.8 0.5-0.2 1.1-0.4 1.6-0.7 -0.1-0.1-0.2-0.2-0.3-0.3 0-0.8 3.2-1.2 4.3-1.2 0.1 0 0.1 0 0.2-0.1 -1.3-1.9 2.1-1.6 4.2-1.3 0.3-0.1 0.5-0.2 0.8-0.2 -2.1-2.6 2-1.6 4.2-1 0.2 0 0.4-0.1 0.6-0.1C48 89.4 51.9 91.1 54 92c0.1 0 0.2 0 0.3 0 -0.5-1.1-0.5-1.6-0.2-1.9 0.2-0.2 0.6-0.2 1-0.1 1.1 0.2 2.8 1 3.9 1.6 0.1 0 0.2 0 0.3 0 -0.5-1.1-0.4-1.6-0.1-1.8 0.2-0.1 0.6-0.1 1 0 1 0.2 2.4 1 3.2 1.8 0.1 0 0.2 0 0.3 0 -0.1-0.6-0.3-1.8 0.1-1.7 0 0 0 0 0 0 0 0 0 0 0 0 1.5 0.6 2.8 0.9 4.3 1.8 -0.2-0.4-0.4-0.9-0.5-1.3 0-0.1 0.1-0.2 0.1-0.3 0.3-0.3 1-0.1 1.8 0.2 1.3 0.5 3 1.6 3.2 2 0.1-1 0.6-1.3 1.2-1.3 0.1 0 0.3 0.1 0.4 0.1 6.2 1.4 11.5 3.8 15.6 7.1 0.8 0.6 0.8 1.8 0 2.4 -4.1 3.3-9.4 5.7-15.5 7.1 -0.2 0-0.4 0.1-0.6 0.1 -0.6 0-1.1-0.3-1.2-1.3 -0.3 0.4-1.8 1.5-3.2 2 -0.8 0.3-1.5 0.5-1.8 0.2 -0.1-0.1-0.1-0.2-0.1-0.3 0.1-0.5 0.3-0.9 0.5-1.3C66.3 108 63 110.3 63.6 107.1zM94 125c-0.1 0.2-0.1 0.4-0.2 0.6 -0.3 0.6-0.8 0.8-1.7 0.4 0.2 0.4 0.3 2.3 0.1 3.7 -0.1 0.9-0.4 1.6-0.7 1.7 -0.1 0-0.2 0-0.3 0 -0.3-0.3-0.6-0.7-0.9-1.1 0 2 0.3 6-2.2 3.9 0 0.1-0.1 0.1-0.1 0.2 0.2 1 0.3 2.6 0 3.6 -0.1 0.5-0.3 0.8-0.6 0.9v0c-0.4 0.2-0.9-0.1-1.5-1 -0.1 0.1-0.1 0.2-0.2 0.2 -0.1 1.2-0.2 3-0.6 4.1 -0.2 0.5-0.4 0.8-0.6 0.9 -0.4 0.1-0.8-0.2-1.5-1.1 0 0.1-0.1 0.1-0.2 0.2 -0.2 2.3-0.8 6.5-2.7 3.4 -0.1 0.2-0.3 0.3-0.4 0.4 -0.6 2.2-1.8 6.3-3 3.2 -0.2 0.2-0.4 0.4-0.6 0.6 -0.8 2-2.2 5-3.2 3 -0.1 0.1-0.1 0.1-0.2 0.2 -0.5 1-2.4 3.5-3.1 3.1 -0.1-0.1-0.1-0.3-0.1-0.4 -0.4 0.3-0.9 0.7-1.3 1 -1.3 1.4-3.2 3.3-3.8 2.9 -0.6-0.3 0.1-2.8 0.7-4.7 0.1-0.6 0.1-1.1 0.2-1.7 -0.1 0.1-0.3 0.1-0.4 0.1 -0.7-0.4 0.5-3.4 1.1-4.3 0-0.1 0-0.1 0-0.2 -2.3 0.2-0.3-2.6 1-4.3 0.1-0.3 0.1-0.6 0.2-0.8 -3.3 0.6-0.4-2.6 1.3-4.2 0.1-0.2 0.1-0.4 0.2-0.6 -3.7-0.1-0.3-2.7 1.5-4 0-0.1 0.1-0.2 0.1-0.2 -1.2-0.1-1.7-0.3-1.7-0.7 0-0.3 0.1-0.6 0.4-0.9 0.7-0.9 2.3-1.9 3.3-2.6 0 0 0 0 0 0 0-0.1 0.1-0.2 0.1-0.3 -1.2-0.1-1.6-0.4-1.6-0.8 0-0.3 0.2-0.5 0.5-0.8 0.7-0.8 2.1-1.6 3.2-1.9 0-0.1 0.1-0.1 0.1-0.2 -0.6-0.2-1.8-0.6-1.5-0.9 0 0 0 0 0 0 0 0 0 0 0 0 1.3-1 2.2-2 3.7-2.9 -0.5 0-0.9-0.1-1.4-0.2 -0.1-0.1-0.2-0.2-0.2-0.3 -0.1-0.4 0.4-0.9 1-1.4 1.1-0.9 2.9-1.8 3.4-1.8 -0.8-0.6-0.9-1.2-0.5-1.7 0.1-0.1 0.2-0.2 0.3-0.3 4.3-4.7 9-8 14-10 0.9-0.3 1.9 0.2 2.1 1.2C96.5 113.3 95.9 119 94 125zM95.7 90.6c-0.2 1-1.2 1.5-2.1 1.2 -4.9-1.9-9.6-5.2-13.9-9.9 -0.1-0.1-0.3-0.3-0.4-0.4C79 81 79 80.4 79.8 79.8c-0.5 0-2.2-0.9-3.3-1.7 -0.7-0.5-1.2-1.1-1.1-1.5 0-0.1 0.1-0.2 0.2-0.3 0.5-0.1 0.9-0.2 1.4-0.2 -1.7-1-5.3-2.8-2.3-3.8 0-0.1-0.1-0.1-0.1-0.2 -1-0.3-2.4-1.1-3.1-1.8 -0.3-0.3-0.5-0.7-0.5-1l0 0c0-0.4 0.5-0.7 1.6-0.8 0-0.1-0.1-0.2-0.1-0.3 -1-0.6-2.5-1.7-3.3-2.5 -0.3-0.4-0.5-0.7-0.4-1 0.1-0.4 0.6-0.6 1.7-0.7 0-0.1-0.1-0.2-0.1-0.2 -1.9-1.4-5.3-3.9-1.5-4.1 -0.1-0.2-0.1-0.4-0.2-0.6 -1.6-1.6-4.5-4.7-1.2-4.2 -0.1-0.3-0.2-0.6-0.2-0.8 -1.3-1.6-3.2-4.4-1-4.3 0-0.1 0-0.2 0-0.2 -0.6-0.9-1.8-3.8-1.1-4.2 0.1 0 0.3 0.1 0.4 0.1 -0.1-0.6-0.2-1.1-0.2-1.7 -0.6-1.9-1.2-4.4-0.7-4.7 0.6-0.3 2.4 1.5 3.8 2.9 0.5 0.3 0.9 0.7 1.3 1 0-0.1 0.1-0.3 0.1-0.4 0.7-0.4 2.7 2.1 3.1 3.1 0.1 0 0.1 0.1 0.2 0.1 1-2.1 2.5 1 3.2 3 0.2 0.2 0.4 0.4 0.6 0.6 1.2-3.2 2.4 1 3 3.2 0.1 0.1 0.3 0.3 0.4 0.4 2-3.2 2.5 1.1 2.7 3.4 0 0.1 0.1 0.1 0.1 0.2 0.7-1 1.1-1.3 1.5-1.1 0.2 0.1 0.4 0.4 0.6 0.8 0.4 1.1 0.5 3 0.6 4.1 0.1 0.1 0.1 0.2 0.2 0.2 0.7-1 1.2-1.2 1.5-1 0.2 0.1 0.4 0.4 0.5 0.8 0.3 1 0.3 2.6 0.1 3.7 0 0.1 0.1 0.1 0.1 0.2 0.5-0.4 1.4-1.2 1.5-0.8 0 0 0 0 0 0 0 0 0 0 0 0 0.2 1.6 0.6 2.9 0.6 4.6 0.2-0.4 0.5-0.8 0.9-1.1 0.1 0 0.2-0.1 0.3 0 0.4 0.1 0.6 0.8 0.7 1.6 0.2 1.4 0.1 3.4-0.1 3.8 1-0.4 1.5-0.2 1.7 0.4 0 0.1 0.1 0.3 0.1 0.4C95.9 79.6 96.5 85.3 95.7 90.6zM104.6 73.6c0.1-0.2 0.1-0.4 0.2-0.6 0.3-0.6 0.8-0.8 1.7-0.4 -0.2-0.4-0.3-2.3-0.1-3.7 0.1-0.9 0.4-1.6 0.7-1.7 0.1 0 0.2 0 0.3 0 0.3 0.3 0.6 0.7 0.9 1.1 0-2-0.3-6 2.2-3.9 0-0.1 0.1-0.2 0.1-0.2 -0.2-1-0.3-2.6 0-3.6 0.1-0.5 0.3-0.8 0.6-0.9v0c0.4-0.2 0.9 0.1 1.5 1 0.1-0.1 0.1-0.2 0.2-0.3v0c0.1-1.2 0.2-3 0.6-4.1 0.2-0.5 0.4-0.8 0.6-0.9 0.4-0.1 0.8 0.2 1.5 1.2 0-0.1 0.1-0.1 0.2-0.2 0.2-2.3 0.8-6.5 2.7-3.4 0.1-0.1 0.3-0.3 0.4-0.4 0.6-2.2 1.8-6.3 3-3.2 0.2-0.2 0.4-0.4 0.6-0.6 0.8-2 2.2-5 3.2-3 0.1-0.1 0.1-0.1 0.2-0.2 0.5-1 2.4-3.5 3.1-3.1 0.1 0.1 0.1 0.3 0.1 0.4 0.4-0.3 0.9-0.7 1.3-1 1.3-1.4 3.2-3.2 3.7-2.9 0.6 0.3-0.1 2.8-0.7 4.7 -0.1 0.6-0.1 1.1-0.2 1.7 0.1-0.1 0.3-0.1 0.4-0.1 0.7 0.4-0.5 3.4-1.1 4.3 0 0.1 0 0.1 0 0.2 2.3-0.2 0.3 2.7-1 4.3 -0.1 0.3-0.1 0.5-0.2 0.8 3.3-0.6 0.4 2.6-1.3 4.2 -0.1 0.2-0.1 0.4-0.2 0.6 3.7 0.1 0.3 2.7-1.5 4.1 0 0.1-0.1 0.2-0.1 0.2 1.2 0.1 1.7 0.3 1.7 0.7 0 0.3-0.1 0.6-0.4 0.9 -0.7 0.9-2.3 1.9-3.3 2.6 0 0.1-0.1 0.2-0.1 0.3 1.2 0.1 1.6 0.4 1.6 0.8 0 0.3-0.2 0.5-0.5 0.8 -0.7 0.8-2.1 1.6-3.2 1.9 0 0.1-0.1 0.1-0.1 0.2 0.6 0.2 1.8 0.6 1.5 0.9 0 0 0 0 0 0 0 0 0 0 0 0 -1.3 1-2.2 2-3.7 2.9 0.5 0 0.9 0.1 1.4 0.2 0.1 0.1 0.2 0.2 0.2 0.3 0.1 0.4-0.4 0.9-1 1.4 -1.1 0.9-2.9 1.8-3.4 1.8 0.8 0.6 0.9 1.2 0.5 1.7 -0.1 0.1-0.2 0.2-0.3 0.3 -4.3 4.7-9 8-14 10 -0.9 0.4-1.9-0.2-2.1-1.2C102.2 85.4 102.7 79.6 104.6 73.6zM131.3 143.7c0.1 0.3 0.1 0.5 0.2 0.8 1.3 1.6 3.3 4.4 1 4.3 0 0.1 0 0.2 0 0.2 0.6 0.9 1.8 3.8 1.1 4.3 -0.2 0-0.3-0.1-0.4-0.1 0.1 0.6 0.2 1.1 0.2 1.7 0.6 1.9 1.2 4.4 0.7 4.7 -0.6 0.3-2.4-1.5-3.7-2.9 -0.5-0.3-0.9-0.7-1.4-1 0 0.1-0.1 0.3-0.1 0.4 -0.7 0.4-2.7-2.1-3.1-3.1 -0.1 0-0.1-0.1-0.2-0.1 -1 2.1-2.5-1-3.2-3 -0.2-0.2-0.4-0.4-0.6-0.6 -1.2 3.2-2.4-1-3-3.2 -0.1-0.1-0.3-0.3-0.4-0.4 -2 3.1-2.5-1.1-2.7-3.4 0-0.1-0.1-0.1-0.2-0.2 -0.6 1-1.1 1.3-1.5 1.1 -0.2-0.1-0.4-0.4-0.6-0.8 -0.4-1.1-0.5-3-0.6-4.1 -0.1-0.1-0.1-0.2-0.2-0.3 -0.7 1-1.2 1.2-1.5 1 -0.2-0.1-0.4-0.4-0.5-0.8 -0.3-1-0.3-2.6-0.1-3.7 0-0.1-0.1-0.2-0.1-0.2 -0.5 0.4-1.4 1.2-1.5 0.8 0 0 0 0 0 0 0 0 0 0 0-0.1 -0.2-1.6-0.6-2.9-0.6-4.6 -0.2 0.4-0.5 0.8-0.9 1.1 -0.1 0-0.2 0.1-0.3 0 -0.4-0.1-0.6-0.8-0.7-1.6 -0.2-1.4-0.1-3.4 0.1-3.8 -0.9 0.4-1.5 0.2-1.7-0.4 0-0.1-0.1-0.3-0.1-0.4 -1.9-6-2.5-11.8-1.6-17.1 0.2-1 1.2-1.5 2.1-1.2 4.9 1.9 9.6 5.2 13.9 9.9 0.1 0.1 0.3 0.3 0.4 0.4 0.3 0.5 0.3 1.1-0.5 1.6 0.5 0 2.2 0.9 3.3 1.7 0.7 0.5 1.2 1.1 1.1 1.5 0 0.1-0.1 0.2-0.2 0.2 -0.5 0.1-0.9 0.2-1.4 0.2 1.7 1 5.3 2.8 2.3 3.8 0 0.1 0.1 0.1 0.1 0.2 1 0.3 2.4 1.1 3.1 1.8 0.3 0.3 0.5 0.7 0.5 1l0 0c0 0.4-0.5 0.7-1.6 0.8 0 0.1 0.1 0.2 0.1 0.3 1 0.6 2.5 1.7 3.3 2.5 0.3 0.4 0.5 0.7 0.4 1 -0.1 0.4-0.6 0.6-1.7 0.7 0 0.1 0.1 0.2 0.1 0.2 1.9 1.4 5.3 3.9 1.5 4.1 0.1 0.2 0.1 0.4 0.2 0.6C131.7 141.1 134.6 144.2 131.3 143.7zM164.5 101.1c-0.5 0.2-1.1 0.4-1.6 0.7 0.1 0.1 0.2 0.2 0.3 0.3 0 0.8-3.2 1.2-4.3 1.2 0 0 0 0 0 0 -0.1 0-0.1 0-0.2 0.1 1.3 1.9-2.1 1.6-4.2 1.3 -0.3 0.1-0.6 0.2-0.8 0.2 2.1 2.6-2 1.6-4.2 1 -0.2 0-0.4 0.1-0.6 0.1 1.7 3.3-2.2 1.6-4.3 0.7 -0.1 0-0.2 0-0.2 0 0.5 1.1 0.5 1.6 0.2 1.9 -0.2 0.2-0.6 0.2-1 0.1 -1.1-0.2-2.8-1-3.9-1.6 -0.1 0-0.2 0-0.3 0 0.5 1.1 0.5 1.6 0.1 1.8 -0.2 0.1-0.6 0.1-1 0 -1-0.2-2.4-1-3.2-1.8 -0.1 0-0.2 0-0.3 0 0.1 0.6 0.3 1.8-0.1 1.7 0 0 0 0 0 0 0 0 0 0 0 0 -1.5-0.6-2.8-0.9-4.3-1.8 0.2 0.4 0.4 0.9 0.5 1.3 0 0.1-0.1 0.2-0.1 0.3 -0.3 0.3-1 0.1-1.8-0.2 -1.3-0.5-3-1.6-3.2-2 -0.1 1-0.6 1.3-1.2 1.3 -0.1 0-0.3-0.1-0.4-0.1 -6.2-1.4-11.5-3.8-15.6-7.1 -0.8-0.6-0.8-1.8 0-2.4 4.1-3.3 9.4-5.7 15.5-7.1 0.2 0 0.4-0.1 0.6-0.1 0.6 0 1.1 0.3 1.2 1.3 0.3-0.4 1.8-1.5 3.2-2 0.8-0.3 1.5-0.5 1.8-0.2 0.1 0.1 0.1 0.2 0.1 0.3 -0.1 0.5-0.3 0.9-0.5 1.3 1.7-1 5.1-3.2 4.5-0.1 0.1 0 0.2 0 0.3 0 0.8-0.7 2.1-1.5 3.2-1.8 0.5-0.1 0.9-0.1 1.1 0h0c0.3 0.2 0.4 0.8-0.1 1.8 0.1 0 0.2 0 0.3 0 1-0.5 2.7-1.3 3.8-1.6 0.5-0.1 0.9-0.1 1.1 0.1 0.3 0.3 0.3 0.8-0.3 1.9 0.1 0 0.2 0 0.3 0 2.1-0.9 6-2.6 4.3 0.7 0.2 0 0.4 0.1 0.6 0.1 2.2-0.6 6.3-1.6 4.2 1 0.3 0.1 0.6 0.2 0.8 0.2 2.1-0.3 5.5-0.6 4.2 1.3 0.1 0 0.2 0 0.2 0.1 1.1 0 4.2 0.3 4.2 1.2 -0.1 0.1-0.2 0.2-0.3 0.3 0.5 0.2 1 0.4 1.6 0.6h0c1.9 0.4 4.4 1.1 4.4 1.8C168.9 100 166.4 100.7 164.5 101.1z"/>
</symbol>
<symbol id="logo__icon__outline--color" viewBox="0 0 198.7 198.7" preserveAspectRatio="xMidYMid meet">
  <title>Phenotonic icon, outlined</title>
  <desc>Phenotonic's seed-of-life based icon in outlined, two-color form.</desc>
  <g id="logo__icon__outline--color__foreground">
    <path d="M183.8 98.4c-2.5-1.8-5-3.4-7.7-5 0 0 0 0 0 0C161.7 85.1 146 81 131.8 81.8c0 0 0 0 0 0 -1 0.1-1.6-1-1.1-1.9 0 0 0 0 0 0 7.8-11.9 12.1-27.5 12.1-44.1v0c0-3.1-0.1-6.1-0.4-9.1 -0.1-0.8-0.9-1.3-1.7-1 -2.7 1.2-5.5 2.6-8.1 4.2 0 0 0 0 0 0 -14.4 8.3-25.8 19.9-32.2 32.5 0 0 0 0 0 0 -0.5 0.9-1.7 0.9-2.2 0 0 0 0 0 0 0 -6.4-12.7-17.8-24.2-32.2-32.5 0 0 0 0 0 0 -2.7-1.5-5.4-2.9-8.1-4.2 -0.7-0.3-1.6 0.2-1.7 1 -0.3 3-0.4 6.1-0.4 9.1v0c0 16.6 4.3 32.3 12.1 44.1 0 0 0 0 0 0 0.5 0.8-0.1 1.9-1.1 1.9 0 0 0 0 0 0C52.6 81 36.9 85.1 22.6 93.4c0 0 0 0 0 0 -2.7 1.5-5.2 3.2-7.7 5 -0.7 0.5-0.7 1.5 0 1.9 2.5 1.8 5 3.4 7.7 5 0 0 0 0 0 0 14.4 8.3 30.1 12.4 44.3 11.6 0 0 0 0 0 0 1-0.1 1.6 1 1.1 1.9 0 0 0 0 0 0 -7.8 11.9-12.1 27.5-12.1 44.1 0 0 0 0 0 0 0 3.1 0.1 6.1 0.4 9.1 0.1 0.8 0.9 1.3 1.7 1 2.7-1.2 5.5-2.6 8.1-4.2 0 0 0 0 0 0 14.4-8.3 25.8-19.9 32.2-32.5 0 0 0 0 0 0 0.4-0.9 1.7-0.9 2.2 0 0 0 0 0 0 0 6.4 12.7 17.8 24.2 32.2 32.5 0 0 0 0 0 0 2.7 1.5 5.4 2.9 8.1 4.2 0.7 0.3 1.6-0.2 1.7-1 0.3-3 0.4-6.1 0.4-9.1v0c0-16.6-4.3-32.3-12.1-44.1 0 0 0 0 0 0 -0.5-0.8 0.1-1.9 1.1-1.9 0 0 0 0 0 0 14.2 0.8 29.9-3.3 44.3-11.6h0c0 0 0 0 0 0 2.7-1.5 5.2-3.2 7.7-5C184.5 99.8 184.5 98.8 183.8 98.4z"/>
  </g>
  <g id="logo__icon__outline--color__background">
    <path fill="#2E2727" d="M187 98.3c-2.5-1.8-5.2-3.5-8-5.1 0 0 0 0 0 0 -14.9-8.6-31.2-12.9-46-12 0 0 0 0 0 0 -1 0.1-1.7-1.1-1.1-1.9 0 0 0 0 0 0 8.1-12.3 12.6-28.6 12.6-45.8v0c0-3.2-0.2-6.4-0.5-9.5 -0.1-0.8-1-1.4-1.7-1 -2.8 1.3-5.7 2.7-8.4 4.3 0 0 0 0 0 0 -14.9 8.6-26.8 20.6-33.4 33.8 0 0 0 0 0 0 -0.5 0.9-1.8 0.9-2.2 0 0 0 0 0 0 0 -6.6-13.2-18.5-25.2-33.4-33.8 0 0 0 0 0 0 -2.8-1.6-5.6-3.1-8.4-4.3 -0.8-0.4-1.7 0.2-1.7 1 -0.3 3.1-0.5 6.3-0.5 9.5v0c0 17.2 4.5 33.5 12.6 45.8 0 0 0 0 0 0 0.6 0.9-0.1 2-1.1 1.9 0 0 0 0 0 0 -14.7-0.9-31 3.4-46 12 0 0 0 0 0 0 -2.8 1.6-5.4 3.3-8 5.1 -0.7 0.5-0.7 1.5 0 2 2.5 1.8 5.2 3.5 8 5.1 0 0 0 0 0 0 14.9 8.6 31.2 12.9 46 12 0 0 0 0 0 0 1-0.1 1.7 1.1 1.1 1.9 0 0 0 0 0 0 -8.1 12.3-12.6 28.6-12.6 45.8 0 0 0 0 0 0 0 3.2 0.2 6.4 0.5 9.5 0.1 0.8 1 1.4 1.7 1 2.9-1.3 5.7-2.7 8.4-4.3 0 0 0 0 0 0 14.9-8.6 26.8-20.6 33.4-33.8 0 0 0 0 0 0 0.5-0.9 1.8-0.9 2.2 0 0 0 0 0 0 0 6.6 13.2 18.5 25.2 33.4 33.8 0 0 0 0 0 0 2.8 1.6 5.6 3.1 8.4 4.3 0.8 0.4 1.7-0.2 1.7-1 0.3-3.1 0.5-6.3 0.5-9.5v0c0-17.2-4.5-33.5-12.6-45.8 0 0 0 0 0 0 -0.6-0.9 0.1-2 1.1-1.9 0 0 0 0 0 0 14.7 0.9 31-3.4 46-12h0c0 0 0 0 0 0 2.8-1.6 5.4-3.3 8-5.1C187.7 99.9 187.7 98.8 187 98.3zM63.6 107.1c-0.1 0-0.2 0-0.3 0 -0.8 0.7-2.1 1.5-3.2 1.8 -0.5 0.1-0.9 0.1-1.1 0h0c-0.3-0.2-0.4-0.8 0.1-1.8 -0.1 0-0.2 0-0.3 0 -1 0.5-2.7 1.3-3.8 1.6 -0.5 0.1-0.9 0.1-1.1-0.1 -0.3-0.3-0.3-0.8 0.3-1.9 -0.1 0-0.2 0-0.2 0 -2.1 0.9-6 2.6-4.3-0.7 -0.2 0-0.4-0.1-0.6-0.1 -2.2 0.6-6.3 1.6-4.2-1 -0.3-0.1-0.6-0.2-0.8-0.2 -2.1 0.3-5.5 0.6-4.2-1.3 -0.1 0-0.2-0.1-0.2-0.1 -1.1 0-4.2-0.3-4.2-1.2 0.1-0.1 0.2-0.2 0.3-0.3 -0.5-0.2-1.1-0.4-1.6-0.7 -1.9-0.4-4.4-1.1-4.4-1.8 0-0.6 2.5-1.3 4.4-1.8 0.5-0.2 1.1-0.4 1.6-0.7 -0.1-0.1-0.2-0.2-0.3-0.3 0-0.8 3.2-1.2 4.3-1.2 0.1 0 0.1 0 0.2-0.1 -1.3-1.9 2.1-1.6 4.2-1.3 0.3-0.1 0.5-0.2 0.8-0.2 -2.1-2.6 2-1.6 4.2-1 0.2 0 0.4-0.1 0.6-0.1C48 89.4 51.9 91.1 54 92c0.1 0 0.2 0 0.3 0 -0.5-1.1-0.5-1.6-0.2-1.9 0.2-0.2 0.6-0.2 1-0.1 1.1 0.2 2.8 1 3.9 1.6 0.1 0 0.2 0 0.3 0 -0.5-1.1-0.4-1.6-0.1-1.8 0.2-0.1 0.6-0.1 1 0 1 0.2 2.4 1 3.2 1.8 0.1 0 0.2 0 0.3 0 -0.1-0.6-0.3-1.8 0.1-1.7 0 0 0 0 0 0 0 0 0 0 0 0 1.5 0.6 2.8 0.9 4.3 1.8 -0.2-0.4-0.4-0.9-0.5-1.3 0-0.1 0.1-0.2 0.1-0.3 0.3-0.3 1-0.1 1.8 0.2 1.3 0.5 3 1.6 3.2 2 0.1-1 0.6-1.3 1.2-1.3 0.1 0 0.3 0.1 0.4 0.1 6.2 1.4 11.5 3.8 15.6 7.1 0.8 0.6 0.8 1.8 0 2.4 -4.1 3.3-9.4 5.7-15.5 7.1 -0.2 0-0.4 0.1-0.6 0.1 -0.6 0-1.1-0.3-1.2-1.3 -0.3 0.4-1.8 1.5-3.2 2 -0.8 0.3-1.5 0.5-1.8 0.2 -0.1-0.1-0.1-0.2-0.1-0.3 0.1-0.5 0.3-0.9 0.5-1.3C66.3 108 63 110.3 63.6 107.1zM94 125c-0.1 0.2-0.1 0.4-0.2 0.6 -0.3 0.6-0.8 0.8-1.7 0.4 0.2 0.4 0.3 2.3 0.1 3.7 -0.1 0.9-0.4 1.6-0.7 1.7 -0.1 0-0.2 0-0.3 0 -0.3-0.3-0.6-0.7-0.9-1.1 0 2 0.3 6-2.2 3.9 0 0.1-0.1 0.1-0.1 0.2 0.2 1 0.3 2.6 0 3.6 -0.1 0.5-0.3 0.8-0.6 0.9v0c-0.4 0.2-0.9-0.1-1.5-1 -0.1 0.1-0.1 0.2-0.2 0.2 -0.1 1.2-0.2 3-0.6 4.1 -0.2 0.5-0.4 0.8-0.6 0.9 -0.4 0.1-0.8-0.2-1.5-1.1 0 0.1-0.1 0.1-0.2 0.2 -0.2 2.3-0.8 6.5-2.7 3.4 -0.1 0.2-0.3 0.3-0.4 0.4 -0.6 2.2-1.8 6.3-3 3.2 -0.2 0.2-0.4 0.4-0.6 0.6 -0.8 2-2.2 5-3.2 3 -0.1 0.1-0.1 0.1-0.2 0.2 -0.5 1-2.4 3.5-3.1 3.1 -0.1-0.1-0.1-0.3-0.1-0.4 -0.4 0.3-0.9 0.7-1.3 1 -1.3 1.4-3.2 3.3-3.8 2.9 -0.6-0.3 0.1-2.8 0.7-4.7 0.1-0.6 0.1-1.1 0.2-1.7 -0.1 0.1-0.3 0.1-0.4 0.1 -0.7-0.4 0.5-3.4 1.1-4.3 0-0.1 0-0.1 0-0.2 -2.3 0.2-0.3-2.6 1-4.3 0.1-0.3 0.1-0.6 0.2-0.8 -3.3 0.6-0.4-2.6 1.3-4.2 0.1-0.2 0.1-0.4 0.2-0.6 -3.7-0.1-0.3-2.7 1.5-4 0-0.1 0.1-0.2 0.1-0.2 -1.2-0.1-1.7-0.3-1.7-0.7 0-0.3 0.1-0.6 0.4-0.9 0.7-0.9 2.3-1.9 3.3-2.6 0 0 0 0 0 0 0-0.1 0.1-0.2 0.1-0.3 -1.2-0.1-1.6-0.4-1.6-0.8 0-0.3 0.2-0.5 0.5-0.8 0.7-0.8 2.1-1.6 3.2-1.9 0-0.1 0.1-0.1 0.1-0.2 -0.6-0.2-1.8-0.6-1.5-0.9 0 0 0 0 0 0 0 0 0 0 0 0 1.3-1 2.2-2 3.7-2.9 -0.5 0-0.9-0.1-1.4-0.2 -0.1-0.1-0.2-0.2-0.2-0.3 -0.1-0.4 0.4-0.9 1-1.4 1.1-0.9 2.9-1.8 3.4-1.8 -0.8-0.6-0.9-1.2-0.5-1.7 0.1-0.1 0.2-0.2 0.3-0.3 4.3-4.7 9-8 14-10 0.9-0.3 1.9 0.2 2.1 1.2C96.5 113.3 95.9 119 94 125zM95.7 90.6c-0.2 1-1.2 1.5-2.1 1.2 -4.9-1.9-9.6-5.2-13.9-9.9 -0.1-0.1-0.3-0.3-0.4-0.4C79 81 79 80.4 79.8 79.8c-0.5 0-2.2-0.9-3.3-1.7 -0.7-0.5-1.2-1.1-1.1-1.5 0-0.1 0.1-0.2 0.2-0.3 0.5-0.1 0.9-0.2 1.4-0.2 -1.7-1-5.3-2.8-2.3-3.8 0-0.1-0.1-0.1-0.1-0.2 -1-0.3-2.4-1.1-3.1-1.8 -0.3-0.3-0.5-0.7-0.5-1l0 0c0-0.4 0.5-0.7 1.6-0.8 0-0.1-0.1-0.2-0.1-0.3 -1-0.6-2.5-1.7-3.3-2.5 -0.3-0.4-0.5-0.7-0.4-1 0.1-0.4 0.6-0.6 1.7-0.7 0-0.1-0.1-0.2-0.1-0.2 -1.9-1.4-5.3-3.9-1.5-4.1 -0.1-0.2-0.1-0.4-0.2-0.6 -1.6-1.6-4.5-4.7-1.2-4.2 -0.1-0.3-0.2-0.6-0.2-0.8 -1.3-1.6-3.2-4.4-1-4.3 0-0.1 0-0.2 0-0.2 -0.6-0.9-1.8-3.8-1.1-4.2 0.1 0 0.3 0.1 0.4 0.1 -0.1-0.6-0.2-1.1-0.2-1.7 -0.6-1.9-1.2-4.4-0.7-4.7 0.6-0.3 2.4 1.5 3.8 2.9 0.5 0.3 0.9 0.7 1.3 1 0-0.1 0.1-0.3 0.1-0.4 0.7-0.4 2.7 2.1 3.1 3.1 0.1 0 0.1 0.1 0.2 0.1 1-2.1 2.5 1 3.2 3 0.2 0.2 0.4 0.4 0.6 0.6 1.2-3.2 2.4 1 3 3.2 0.1 0.1 0.3 0.3 0.4 0.4 2-3.2 2.5 1.1 2.7 3.4 0 0.1 0.1 0.1 0.1 0.2 0.7-1 1.1-1.3 1.5-1.1 0.2 0.1 0.4 0.4 0.6 0.8 0.4 1.1 0.5 3 0.6 4.1 0.1 0.1 0.1 0.2 0.2 0.2 0.7-1 1.2-1.2 1.5-1 0.2 0.1 0.4 0.4 0.5 0.8 0.3 1 0.3 2.6 0.1 3.7 0 0.1 0.1 0.1 0.1 0.2 0.5-0.4 1.4-1.2 1.5-0.8 0 0 0 0 0 0 0 0 0 0 0 0 0.2 1.6 0.6 2.9 0.6 4.6 0.2-0.4 0.5-0.8 0.9-1.1 0.1 0 0.2-0.1 0.3 0 0.4 0.1 0.6 0.8 0.7 1.6 0.2 1.4 0.1 3.4-0.1 3.8 1-0.4 1.5-0.2 1.7 0.4 0 0.1 0.1 0.3 0.1 0.4C95.9 79.6 96.5 85.3 95.7 90.6zM104.6 73.6c0.1-0.2 0.1-0.4 0.2-0.6 0.3-0.6 0.8-0.8 1.7-0.4 -0.2-0.4-0.3-2.3-0.1-3.7 0.1-0.9 0.4-1.6 0.7-1.7 0.1 0 0.2 0 0.3 0 0.3 0.3 0.6 0.7 0.9 1.1 0-2-0.3-6 2.2-3.9 0-0.1 0.1-0.2 0.1-0.2 -0.2-1-0.3-2.6 0-3.6 0.1-0.5 0.3-0.8 0.6-0.9v0c0.4-0.2 0.9 0.1 1.5 1 0.1-0.1 0.1-0.2 0.2-0.3v0c0.1-1.2 0.2-3 0.6-4.1 0.2-0.5 0.4-0.8 0.6-0.9 0.4-0.1 0.8 0.2 1.5 1.2 0-0.1 0.1-0.1 0.2-0.2 0.2-2.3 0.8-6.5 2.7-3.4 0.1-0.1 0.3-0.3 0.4-0.4 0.6-2.2 1.8-6.3 3-3.2 0.2-0.2 0.4-0.4 0.6-0.6 0.8-2 2.2-5 3.2-3 0.1-0.1 0.1-0.1 0.2-0.2 0.5-1 2.4-3.5 3.1-3.1 0.1 0.1 0.1 0.3 0.1 0.4 0.4-0.3 0.9-0.7 1.3-1 1.3-1.4 3.2-3.2 3.7-2.9 0.6 0.3-0.1 2.8-0.7 4.7 -0.1 0.6-0.1 1.1-0.2 1.7 0.1-0.1 0.3-0.1 0.4-0.1 0.7 0.4-0.5 3.4-1.1 4.3 0 0.1 0 0.1 0 0.2 2.3-0.2 0.3 2.7-1 4.3 -0.1 0.3-0.1 0.5-0.2 0.8 3.3-0.6 0.4 2.6-1.3 4.2 -0.1 0.2-0.1 0.4-0.2 0.6 3.7 0.1 0.3 2.7-1.5 4.1 0 0.1-0.1 0.2-0.1 0.2 1.2 0.1 1.7 0.3 1.7 0.7 0 0.3-0.1 0.6-0.4 0.9 -0.7 0.9-2.3 1.9-3.3 2.6 0 0.1-0.1 0.2-0.1 0.3 1.2 0.1 1.6 0.4 1.6 0.8 0 0.3-0.2 0.5-0.5 0.8 -0.7 0.8-2.1 1.6-3.2 1.9 0 0.1-0.1 0.1-0.1 0.2 0.6 0.2 1.8 0.6 1.5 0.9 0 0 0 0 0 0 0 0 0 0 0 0 -1.3 1-2.2 2-3.7 2.9 0.5 0 0.9 0.1 1.4 0.2 0.1 0.1 0.2 0.2 0.2 0.3 0.1 0.4-0.4 0.9-1 1.4 -1.1 0.9-2.9 1.8-3.4 1.8 0.8 0.6 0.9 1.2 0.5 1.7 -0.1 0.1-0.2 0.2-0.3 0.3 -4.3 4.7-9 8-14 10 -0.9 0.4-1.9-0.2-2.1-1.2C102.2 85.4 102.7 79.6 104.6 73.6zM131.3 143.7c0.1 0.3 0.1 0.5 0.2 0.8 1.3 1.6 3.3 4.4 1 4.3 0 0.1 0 0.2 0 0.2 0.6 0.9 1.8 3.8 1.1 4.3 -0.2 0-0.3-0.1-0.4-0.1 0.1 0.6 0.2 1.1 0.2 1.7 0.6 1.9 1.2 4.4 0.7 4.7 -0.6 0.3-2.4-1.5-3.7-2.9 -0.5-0.3-0.9-0.7-1.4-1 0 0.1-0.1 0.3-0.1 0.4 -0.7 0.4-2.7-2.1-3.1-3.1 -0.1 0-0.1-0.1-0.2-0.1 -1 2.1-2.5-1-3.2-3 -0.2-0.2-0.4-0.4-0.6-0.6 -1.2 3.2-2.4-1-3-3.2 -0.1-0.1-0.3-0.3-0.4-0.4 -2 3.1-2.5-1.1-2.7-3.4 0-0.1-0.1-0.1-0.2-0.2 -0.6 1-1.1 1.3-1.5 1.1 -0.2-0.1-0.4-0.4-0.6-0.8 -0.4-1.1-0.5-3-0.6-4.1 -0.1-0.1-0.1-0.2-0.2-0.3 -0.7 1-1.2 1.2-1.5 1 -0.2-0.1-0.4-0.4-0.5-0.8 -0.3-1-0.3-2.6-0.1-3.7 0-0.1-0.1-0.2-0.1-0.2 -0.5 0.4-1.4 1.2-1.5 0.8 0 0 0 0 0 0 0 0 0 0 0-0.1 -0.2-1.6-0.6-2.9-0.6-4.6 -0.2 0.4-0.5 0.8-0.9 1.1 -0.1 0-0.2 0.1-0.3 0 -0.4-0.1-0.6-0.8-0.7-1.6 -0.2-1.4-0.1-3.4 0.1-3.8 -0.9 0.4-1.5 0.2-1.7-0.4 0-0.1-0.1-0.3-0.1-0.4 -1.9-6-2.5-11.8-1.6-17.1 0.2-1 1.2-1.5 2.1-1.2 4.9 1.9 9.6 5.2 13.9 9.9 0.1 0.1 0.3 0.3 0.4 0.4 0.3 0.5 0.3 1.1-0.5 1.6 0.5 0 2.2 0.9 3.3 1.7 0.7 0.5 1.2 1.1 1.1 1.5 0 0.1-0.1 0.2-0.2 0.2 -0.5 0.1-0.9 0.2-1.4 0.2 1.7 1 5.3 2.8 2.3 3.8 0 0.1 0.1 0.1 0.1 0.2 1 0.3 2.4 1.1 3.1 1.8 0.3 0.3 0.5 0.7 0.5 1l0 0c0 0.4-0.5 0.7-1.6 0.8 0 0.1 0.1 0.2 0.1 0.3 1 0.6 2.5 1.7 3.3 2.5 0.3 0.4 0.5 0.7 0.4 1 -0.1 0.4-0.6 0.6-1.7 0.7 0 0.1 0.1 0.2 0.1 0.2 1.9 1.4 5.3 3.9 1.5 4.1 0.1 0.2 0.1 0.4 0.2 0.6C131.7 141.1 134.6 144.2 131.3 143.7zM164.5 101.1c-0.5 0.2-1.1 0.4-1.6 0.7 0.1 0.1 0.2 0.2 0.3 0.3 0 0.8-3.2 1.2-4.3 1.2 0 0 0 0 0 0 -0.1 0-0.1 0-0.2 0.1 1.3 1.9-2.1 1.6-4.2 1.3 -0.3 0.1-0.6 0.2-0.8 0.2 2.1 2.6-2 1.6-4.2 1 -0.2 0-0.4 0.1-0.6 0.1 1.7 3.3-2.2 1.6-4.3 0.7 -0.1 0-0.2 0-0.2 0 0.5 1.1 0.5 1.6 0.2 1.9 -0.2 0.2-0.6 0.2-1 0.1 -1.1-0.2-2.8-1-3.9-1.6 -0.1 0-0.2 0-0.3 0 0.5 1.1 0.5 1.6 0.1 1.8 -0.2 0.1-0.6 0.1-1 0 -1-0.2-2.4-1-3.2-1.8 -0.1 0-0.2 0-0.3 0 0.1 0.6 0.3 1.8-0.1 1.7 0 0 0 0 0 0 0 0 0 0 0 0 -1.5-0.6-2.8-0.9-4.3-1.8 0.2 0.4 0.4 0.9 0.5 1.3 0 0.1-0.1 0.2-0.1 0.3 -0.3 0.3-1 0.1-1.8-0.2 -1.3-0.5-3-1.6-3.2-2 -0.1 1-0.6 1.3-1.2 1.3 -0.1 0-0.3-0.1-0.4-0.1 -6.2-1.4-11.5-3.8-15.6-7.1 -0.8-0.6-0.8-1.8 0-2.4 4.1-3.3 9.4-5.7 15.5-7.1 0.2 0 0.4-0.1 0.6-0.1 0.6 0 1.1 0.3 1.2 1.3 0.3-0.4 1.8-1.5 3.2-2 0.8-0.3 1.5-0.5 1.8-0.2 0.1 0.1 0.1 0.2 0.1 0.3 -0.1 0.5-0.3 0.9-0.5 1.3 1.7-1 5.1-3.2 4.5-0.1 0.1 0 0.2 0 0.3 0 0.8-0.7 2.1-1.5 3.2-1.8 0.5-0.1 0.9-0.1 1.1 0h0c0.3 0.2 0.4 0.8-0.1 1.8 0.1 0 0.2 0 0.3 0 1-0.5 2.7-1.3 3.8-1.6 0.5-0.1 0.9-0.1 1.1 0.1 0.3 0.3 0.3 0.8-0.3 1.9 0.1 0 0.2 0 0.3 0 2.1-0.9 6-2.6 4.3 0.7 0.2 0 0.4 0.1 0.6 0.1 2.2-0.6 6.3-1.6 4.2 1 0.3 0.1 0.6 0.2 0.8 0.2 2.1-0.3 5.5-0.6 4.2 1.3 0.1 0 0.2 0 0.2 0.1 1.1 0 4.2 0.3 4.2 1.2 -0.1 0.1-0.2 0.2-0.3 0.3 0.5 0.2 1 0.4 1.6 0.6h0c1.9 0.4 4.4 1.1 4.4 1.8C168.9 100 166.4 100.7 164.5 101.1z"/>
  </g>
</symbol>
<symbol id="logo__type" viewBox="0 0 706 193.1" preserveAspectRatio="xMidYMid meet">
  <title>Phenotonic logotype</title>
  <desc>Phenotonic's logotype</desc>
  <path d="M53.8 62.2c21 0 32.6 12.4 32.6 38.6s-11.7 38.7-32.6 38.7c-8 0-15.1-2.6-19-6.9v18.2c0 4.8-3.9 8.7-8.7 8.7 -4.8 0-8.7-3.9-8.7-8.7V71.8c0-4.8 3.9-8.7 8.7-8.7 4.8 0 8.7 3.9 8.7 8.7C37.3 67.8 44.8 62.2 53.8 62.2zM51.6 76.9c-11.2 0-17.2 8-17.2 23.9 0 15.7 5.9 23.8 17.2 23.8s17.2-8 17.2-23.8C68.7 85 62.8 76.9 51.6 76.9z"/><path d="M113.9 71.8c3.1-4.7 9.8-9.6 20.6-9.6 21.8 0 27 14 27 28v40.2c0 4.8-3.9 8.4-8.7 8.4 -5.1 0-8.7-3.5-8.7-8.4V93.3c0-9.2-3.7-15.4-14.1-15.4 -12 0-16.1 7.1-16.1 16.5v35.8c0 4.8-3.7 8.4-8.7 8.4 -5 0-8.7-3.5-8.7-8.4V51.1c0-4.8 3.9-8.7 8.7-8.7 4.8 0 8.7 3.9 8.7 8.7V71.8z"/><path d="M205.5 62.2c27.1 0 32.1 20.9 32.1 32 0 5.9 0 12.9-9.8 12.9h-39.7c0 11.6 8.2 16.9 18.8 16.9 7.1 0 12-2.4 15.9-5 1.8-1.1 3.1-1.8 5.1-1.8 4.2 0 7.5 3.4 7.5 7.5 0 2.6-1.3 4.7-2.7 5.9 -2.7 2.6-11.2 8.8-25.9 8.8 -22.3 0-36.1-12-36.1-38.9C170.8 76 183.7 62.2 205.5 62.2zM188.7 92.5h31.8c0-7.9-4.5-15.6-14.9-15.6C196.2 76.9 189.5 82.2 188.7 92.5z"/><path d="M312.1 90.1v40.2c0 4.8-3.9 8.4-8.7 8.4 -5.1 0-8.7-3.5-8.7-8.4V93.3c0-9.2-3.7-15.4-14.1-15.4 -12 0-16.1 7.1-16.1 16.5v35.8c0 4.8-3.7 8.4-8.7 8.4 -5 0-8.7-3.5-8.7-8.4V71.8c0-4.8 3.9-8.7 8.7-8.7 4.8 0 8.7 3.9 8.7 8.7 3.1-4.7 9.8-9.6 20.6-9.6C307 62.2 312.1 76.1 312.1 90.1z"/><path d="M356.6 139.4c-21.7 0-35.2-12.4-35.2-38.6 0-26.3 13.5-38.7 35.2-38.7 21.7 0 35.2 12.4 35.2 38.7C391.7 127.1 378.3 139.4 356.6 139.4zM356.6 76.9c-11.6 0-17.7 8-17.7 23.9 0 15.7 6.1 23.8 17.7 23.8 11.6 0 17.7-8 17.7-23.8C374.2 85 368.1 76.9 356.6 76.9z"/><path d="M405.6 50.9c0-4.7 3.9-8.5 8.5-8.5 4.7 0 8.5 3.9 8.5 8.5v13.5h7.2c4 0 7.2 3.2 7.2 7.2 0 4-3.2 7.2-7.2 7.2h-7.2v38.9c0 3.7 3.2 5.8 6.1 5.8 4.2 0 7.5 3.4 7.5 7.5 0 4.2-3.4 7.5-7.5 7.5 -14.3 0-23.1-9.2-23.1-21.8V78.9h-3.7c-4 0-7.2-3.2-7.2-7.2 0-4 3.2-7.2 7.2-7.2h3.7V50.9z"/><path d="M475.7 139.4c-21.7 0-35.2-12.4-35.2-38.6 0-26.3 13.5-38.7 35.2-38.7 21.7 0 35.2 12.4 35.2 38.7C510.9 127.1 497.4 139.4 475.7 139.4zM475.7 76.9c-11.6 0-17.7 8-17.7 23.9 0 15.7 6.1 23.8 17.7 23.8 11.6 0 17.7-8 17.7-23.8C493.4 85 487.3 76.9 475.7 76.9z"/><path d="M585.7 90.1v40.2c0 4.8-3.9 8.4-8.7 8.4 -5.1 0-8.7-3.5-8.7-8.4V93.3c0-9.2-3.7-15.4-14.1-15.4 -12 0-16.1 7.1-16.1 16.5v35.8c0 4.8-3.7 8.4-8.7 8.4 -5 0-8.7-3.5-8.7-8.4V71.8c0-4.8 3.9-8.7 8.7-8.7 4.8 0 8.7 3.9 8.7 8.7 3.1-4.7 9.8-9.6 20.6-9.6C580.5 62.2 585.7 76.1 585.7 90.1z"/><path d="M596.8 44.3c0-7.4 3.7-10.6 10.3-10.6 6.7 0 10.4 3.2 10.4 10.6 0 6.3-3.7 10.1-10.4 10.1C600.5 54.4 596.8 50.6 596.8 44.3zM615.7 129.9c0 4.8-3.9 8.7-8.7 8.7s-8.7-3.9-8.7-8.7V71.8c0-4.8 3.9-8.7 8.7-8.7s8.7 3.9 8.7 8.7V129.9z"/><path d="M660.1 62.2c14.8 0 23.3 7.4 26.2 11.1 1.3 1.8 1.8 3.1 1.8 5 0 4.3-3.4 7.7-7.7 7.7 -2.6 0-4.5-1.1-5.9-2.7 -2.1-2.2-6.3-6.3-14.3-6.3 -11.2 0-17.3 8.7-17.3 23.8 0 15.4 6.1 23.9 17.3 23.9 7.4 0 12.2-3.7 15.9-6.4 1.8-1.3 3.2-1.6 4.8-1.6 4.3 0 7.7 3.4 7.7 7.7 0 2.2-0.8 4.2-2.7 5.9 -3.7 3.4-12.5 9.2-25.7 9.2 -21.8 0-34.9-12.5-34.9-38.7S638.3 62.2 660.1 62.2z"/>
</symbol>
</svg>