<svg xmlns="http://www.w3.org/2000/svg">
  <symbol id="bag-co2" viewBox="0 0 250 250" preserveAspectRatio="xMidYMid meet">
    <title>Bag Outputting CO2</title>
    <desc>A mycelium CO2 bag outputting CO2.</desc>
    <circle cx="125.7" cy="125" r="88.3" fill="#4daa50"/>
    <g fill="none" stroke="#454e3e" stroke-width="3" stroke-linecap="round" stroke-linejoin="round" stroke-miterlimit="10">
      <path d="M163 54.5l-11.2 2.3M97.5 68L84 70.8m4-.9s-4.5-49 33.6-56.7c34-6.9 36.9 42.2 36.9 42.2" />
      <path  d="M166 141.9L102.7 157l-14-13.3L97.5 68v-.1l.4-3.7 1.2 3.4 1.8 5.1 51-10.5z"/>
      <path d="M132.9 77.6l-5.7 1.2c-2 .4-3.9-.9-4.3-2.9-.4-2 .9-3.9 2.9-4.3l5.7-1.2c2-.4 3.9.9 4.3 2.9.3 1.9-1 3.9-2.9 4.3z" />
      <path d="M89.3 138.5l13 12.2 62.6-14.9"/>
      <path d="M89.9 133.2l12 11.3 62-14.7"/>
      <path d="M90.6 127.9l10.9 10.4 61.3-14.6"/>
      <path d="M91.2 122.7l10 9.4 60.5-14.5m-70.5 5.1l10 9.4m-9.4-14.5l9 8.5m-8.4-13.6l8.1 7.6M93 107.4l7.1 6.6m-6.5-11.7l6.1 5.7m-5.5-10.9l5.2 4.9m-4.6-10l4.2 4m-3.5-9.1l3.2 3m-3.2-3l3.2 3m-2.6-8.2l2.2 2"/>
      <path d="M153.6 61.9l-1.7.3-51 10.5-1.8-5.1-1.2-3.5 15.3-3.2c.1.1.2.1.2.2.9.9 1.2 2.2.8 3.3-.2.5-.4.9-.8 1.3l29.1-6c.4-.4.6-.8.8-1.2.4-1.1.1-2.5-.8-3.4l-.2-.2 8.2-1.7 1.2 3.5 1.9 5.2z" />
      <path d="M131.3 26.6h-17.5c-3.5 0-6.3-2.8-6.3-6.3s2.8-6.3 6.3-6.3h17.5c3.5 0 6.3 2.8 6.3 6.3s-2.9 6.3-6.3 6.3z"/>
      <circle cx="131.3" cy="20.3" r="6.3"/>
      <path d="M125.4 14c-3.5 0-6.3 2.8-6.3 6.3s2.8 6.3 6.3 6.3"/>
      <path d="M119.6 14c-3.5 0-6.3 2.8-6.3 6.3s2.8 6.3 6.3 6.3"/>
      <path stroke-dasharray="7" d="M155.1 237.5v-67.9m-29.6 67.9v-67.9m-30.6 67.9v-67.9"/>
      <path d="M87.9 234.5l7 6 7-6m16.6 0l7 6 6.9-6m15.7 0l7 6 7-6"/>
      <path d="M108.9 61.2c.4-.4 1-.7 1.5-.8l-1.9 1.3c.1-.2.2-.3.4-.5zm33.7-6l-.2-.2c-.8-.7-1.7-.9-2.7-.8l-29.3 6.1c1-.2 2 0 2.9.6.1.1.2.1.2.2.9.9 1.2 2.2.8 3.3-.2.5-.4.9-.8 1.3l29.1-6c.4-.4.6-.8.8-1.2.3-1.1.1-2.4-.8-3.3z" />
    </g>
  </symbol>
  <symbol id="mushroom" viewBox="0 0 250 200" preserveAspectRatio="xMidYMid meet">
    <title>Mushroom</title>
    <desc>Mycelium in CO2 generators are derived from mushroom spores. They are produced as a natural byproduct of CO2 generation.</desc>
    <path d="M127.6 18.3l72.1 124.9c1.2 2-.3 4.5-2.6 4.5H52.9c-2.3 0-3.8-2.5-2.6-4.5l72.1-124.9c1.2-2 4-2 5.2 0z" fill="#ebefeb"/>
    <path fill="none" stroke="#454e3e" stroke-width="3" stroke-linecap="round" stroke-linejoin="round" stroke-miterlimit="10" d="M99 140.5l-8 12.7-8-12.7-8 12.7-8-12.7-8 12.7m131.9 0l-8-12.7-8.1 12.7-8-12.7-8 12.7-8-12.7m-.3-37.3v58l-.9-1.5-8 12.7-8-12.7-8 12.7-8.1-12.7-8 12.7-8-12.7-2 3.3v-59.8zm49.9 0H49.6c0-41.6 33.8-75.4 75.4-75.4s75.4 33.8 75.4 75.4zm-97.1-69.1h-8.5m8.8 6.4H83.2m21.5 6.3H75.1m31.6 6.3h-38m38.8 6.3H63.7m45.1 6.3H59.6m52.6 6.3H56.4m58.8 6.3H53.8m66 6.3H51.9m98.7 6.3h-100m128.6 6.3H49.9m88.9 12.6H99.4m29.9 6.3H99.4m20.4 6.4H99.4m20.4 6.3H99.4m20.4 6.3H99.4m20.4 6.3H99.4m20.4 6.3H99.4m20.4 6.3H99.4m20.4 6.3H99.4m13.8 6.3h-7.3m-28.4 5.8l8-12.7 8 12.7 5.9-9.4m51.2-1.8l7 11.2 8-12.7 8 12.7"/>
  </symbol>
  <symbol id="plants-co2" viewBox="0 0 250 250" preserveAspectRatio="xMidYMid meet">
    <title>Plants Receiving CO2</title>
    <desc>Plants absorb CO2 during the day, storing it for conversion to energy at night. Because they evolved in a high CO2 environment, they crave more CO2 than is naturally available today.</desc>
    <path fill="#4daa50" d="M122.4 221.2L18.9 41.9c-1.2-2 .3-4.5 2.6-4.5h207c2.3 0 3.8 2.5 2.6 4.5L127.6 221.2c-1.2 2-4 2-5.2 0z"/>
    <g fill="none" stroke="#454e3e" stroke-width="3" stroke-miterlimit="10" stroke-linecap="round" stroke-linejoin="round">
      <path d="M96.3 233.7c0-16-2-30-4.9-37.8m11.6 32.3c0-40.5-3.2-76.1-8-96.1m15.5 109.5c0-29.3 1.2-55.1 3.1-70m2.6 56.6c0-12.3 3.8-22.2 8.5-22.2m17.8 36.3c0-15.9-1.1-30.1-2.9-39.7m8.7-16.3c1.6-20.7 4.4-38 7.9-49.7m-8.5 58.3c-.7 10.8-1 22.4-1 34.4m5.6 10c0-18.8 2.7-35.2 6.7-43.8m-22.9 39.4c0-10-4.6-18.1-10.2-18.1M81.7 194c1.1 10.4 1.7 22.1 1.7 34.4M79.3 177c-.6-3.1-1.2-6-1.9-8.6m96.3 1.9c-1.5 3.2-2.9 7.4-4 12.2m-2.3 12.2c-1.3 8.9-2 19.1-2 30m-87 7.9c0-9.8-3.8-17.8-8.5-17.8m100.7 20.1c0-11.3 5.6-20.5 12.6-20.5"/>
      <path d="M105.8 109.3c-.9-2.4-3.2-3.9-5.6-3.8.3-2.4-.9-4.9-3.2-6-2.3-1.1-5-.5-6.7 1.2-1.5-1.9-4.1-2.8-6.5-2-2.4.8-3.9 3.2-3.8 5.6-2.4-.4-4.9.9-6 3.2-1.1 2.3-.5 5 1.2 6.7-1.9 1.5-2.8 4.1-2 6.5.8 2.4 3.2 3.9 5.6 3.8-.3 2.4.9 4.9 3.2 6 2.3 1.1 5 .5 6.7-1.2 1.5 1.9 4.1 2.8 6.5 2 .2-.1.3-.1.5-.2 2.1-1 3.4-3.1 3.3-5.4 2.4.3 4.9-.9 6-3.2 1.1-2.3.5-5-1.2-6.7 2-1.5 2.8-4.1 2-6.5zm-10.7 8.4c-.6 1.3-1.6 2.3-2.8 2.9-1.6.8-3.6.9-5.4 0-3.1-1.5-4.4-5.2-2.9-8.2 1.5-3.1 5.2-4.4 8.2-2.9 3.1 1.4 4.4 5.1 2.9 8.2z"/>
      <path d="M95.1 117.7c-.6 1.3-1.6 2.3-2.8 2.9-1.6.8-3.6.9-5.4 0-3.1-1.5-4.4-5.2-2.9-8.2 1.5-3.1 5.2-4.4 8.2-2.9 3.1 1.4 4.4 5.1 2.9 8.2z"/>
      <path d="M191.4 157.6c1.5-1.3 2.1-3.4 1.3-5.4s-2.8-3-4.7-2.9c.2-2-.9-3.9-2.9-4.7-1.9-.8-4.1-.2-5.4 1.3-1.3-1.5-3.4-2.1-5.4-1.3-1.9.8-3 2.8-2.9 4.7-2-.2-3.9.9-4.7 2.9s-.2 4.1 1.3 5.4c-1.5 1.3-2.1 3.4-1.3 5.4.8 1.9 2.8 3 4.7 2.9-.1 1.8.7 3.5 2.3 4.4l.6.3c1.9.8 4.1.2 5.4-1.3 1.3 1.5 3.4 2.1 5.4 1.3 1.9-.8 3-2.8 2.9-4.7 2 .2 3.9-.9 4.7-2.9.8-2 .2-4.1-1.3-5.4zm-9.8 4.7c-2.6 1.1-5.5-.2-6.6-2.7-1.1-2.6.2-5.5 2.7-6.6 2.6-1.1 5.5.2 6.6 2.7 1.1 2.5-.1 5.5-2.7 6.6z"/>
      <path d="M181.6 162.3c-2.6 1.1-5.5-.2-6.6-2.7-1.1-2.6.2-5.5 2.7-6.6 2.6-1.1 5.5.2 6.6 2.7 1.1 2.5-.1 5.5-2.7 6.6z"/>
      <path d="M181.6 162.3c-2.6 1.1-5.5-.2-6.6-2.7-1.1-2.6.2-5.5 2.7-6.6 2.6-1.1 5.5.2 6.6 2.7 1.1 2.5-.1 5.5-2.7 6.6z"/>
      <path d="M82.5 150.3h-.2l.1-.1c2-2.3 1.6-5.8-.7-7.8-2.4-2-5.9-1.6-7.8.7l-.1.1s0-.1-.1-.2c-1-2.9-4.2-4.3-7.1-3.3-2.9 1.1-4.3 4.2-3.3 7.1 0 0 0 .1.1.2h-.2c-3-.5-5.9 1.5-6.4 4.5s1.5 5.9 4.5 6.4h.2l-.1.1c-2 2.4-1.7 5.9.7 7.8 2.4 2 5.9 1.6 7.8-.7l.1-.1v.2c1.1 2.9 4.2 4.4 7.1 3.3.1 0 .1 0 .2-.1 2.8-1.1 4.2-4.2 3.1-7 0-.1 0-.1-.1-.2h.2c3 .5 5.9-1.5 6.4-4.5s-1.3-5.9-4.4-6.4zm-8.1 8.6l-.6.3c-2.8 1-5.9-.4-6.9-3.2-.8-2.2-.1-4.5 1.5-5.9.5-.4 1.1-.8 1.7-1 2.8-1 5.9.4 6.9 3.2 1 2.5-.2 5.3-2.6 6.6z"/>
      <path d="M74.4 158.9l-.6.3c-2.8 1-5.9-.4-6.9-3.2-.8-2.2-.1-4.5 1.5-5.9.5-.4 1.1-.8 1.7-1 2.8-1 5.9.4 6.9 3.2 1 2.5-.2 5.3-2.6 6.6z"/>
      <path d="M148.3 186.3c-.7-.6-1.5-1.1-2.4-1.3h-.2l.1-.1c2.1-2.2 2.1-5.7-.1-7.8-2.2-2.1-5.7-2.1-7.8.1l-.1.1c0-.1 0-.1-.1-.2-.8-2.9-3.9-4.7-6.8-3.8-2.9.8-4.6 3.9-3.8 6.8 0 .1 0 .1.1.2h-.2c-3-.8-6 1-6.7 4-.8 3 1 6 4 6.7h.2c-.1 0-.1.1-.1.1-2.1 2.2-2.1 5.7.1 7.8 2.2 2.1 5.7 2.1 7.8-.1l.1-.1v.2c.8 2.9 3.9 4.6 6.8 3.8.1 0 .2-.1.4-.1 2.7-1 4.2-3.9 3.5-6.7 0-.1 0-.1-.1-.2.1 0 .1 0 .2.1 1.6.4 3.2.1 4.5-.8 1.1-.7 1.9-1.8 2.2-3.2.5-2.1-.2-4.2-1.6-5.5zm-11.2 6.7c-.2.1-.4.1-.5.2-2.9.8-5.8-.9-6.6-3.7-.8-2.9.9-5.8 3.7-6.6 2.9-.8 5.8.9 6.6 3.7.7 2.6-.7 5.3-3.2 6.4zm38.9-85.9l-3.8 18.5c-1.5 7.4-8.6 12.2-15.9 11-.2 0-.4-.1-.6-.1-7.6-1.6-12.4-9-10.9-16.5l3.8-18.5c7.6 1.6 12.4 9 10.9 16.6 1.5-7.7 8.9-12.5 16.5-11zm-84.4 88.7c-.1 0-.2.1-.2.1-3.4 1.2-7.1.4-9.7-1.9-1.2-1-2.2-2.4-2.8-4l-4.7-12.5c1.7-.6 3.4-.8 5.1-.5 3.4.6 6.4 2.8 7.7 6.3-1.9-5.1.7-10.8 5.8-12.8l4.7 12.5c1.9 5.2-.7 10.9-5.9 12.8zm36.4-46l-1.4 12.1c-.7 6.2-6.2 10.6-12.4 9.9-.2 0-.4-.1-.6-.1-5.9-1-10-6.4-9.3-12.3l1.4-12.1 4.9 6.2 6.2-4.9 5 6.2 6.2-5z"/>
      <path d="M137.1 193c-.2.1-.4.1-.5.2-2.9.8-5.8-.9-6.6-3.7-.8-2.9.9-5.8 3.7-6.6 2.9-.8 5.8.9 6.6 3.7.7 2.6-.7 5.3-3.2 6.4zm37.5-13l-3.3 9.7c-.7 2.1-2.2 3.9-4 5-2.3 1.5-5.3 1.9-8 .9-.1 0-.2-.1-.2-.1-4.8-1.8-7.3-7.1-5.7-11.9l3.3-9.7 3 6 6-3 3 6 1-.5 4.9-2.4z"/>
      <path d="M155 75.9V8.1m-29.6 67.8V8.1M94.8 75.9V8.1" stroke-dasharray="7"/>
      <path d="M87.8 72.9l7 6.1 7-6.1m16.6 0l7 6.1 6.9-6.1m15.7 0l7 6.1 7-6.1"/>
    </g>
  </symbol>
  <symbol id="recycle" viewBox="0 0 250 200" preserveAspectRatio="xMidYMid meet">
    <title>Recycle</title>
    <circle fill="#ebefeb" cx="128.6" cy="108.1" r="60.4"/>
    <g fill="none" stroke="#454e3e" stroke-width="3" stroke-linecap="round" stroke-linejoin="round" stroke-miterlimit="10">
      <polygon points="75.9,97.9 76,97.9 74.6,100.3 72,104.8 69.4,109.2 69.4,109.2 72,104.7 74.6,100.3"/>
      <polygon points="128.6,68 128.5,68.2 127,70.8 124.4,75.3 121.8,79.7 119.2,84.2 116.6,88.7 114,93.2 111.4,97.6 108.9,102.1 107,105.4 105.6,100.2 103.7,93.2 101.9,86.1 101.4,84.5 99.8,84.9 92.7,86.8 85.7,88.8 80.4,90.2 82.3,86.8 84.9,82.3 87.5,77.9 90.1,73.4 92.7,68.9 95.3,64.4 97.9,59.9 100.4,55.5 103,51 105.6,46.5 108.2,42 110.8,37.6"/>
      <line x1="92.7" y1="86.8" x2="84.9" y2="82.3"/>
      <line x1="111.4" y1="97.6" x2="103.7" y2="93.2"/>
      <line x1="85.7" y1="88.8" x2="82.3" y2="86.8"/>
      <line x1="108.9" y1="102.1" x2="105.6" y2="100.2"/>
      <line x1="74.6" y1="100.3" x2="74.6" y2="100.3"/>
      <line x1="72" y1="104.8" x2="72" y2="104.7"/>
      <line x1="99.8" y1="84.9" x2="87.5" y2="77.9"/>
      <line x1="114" y1="93.2" x2="101.9" y2="86.1"/>
      <line x1="116.6" y1="88.7" x2="90.1" y2="73.4"/>
      <line x1="119.2" y1="84.2" x2="92.7" y2="68.9"/>
      <line x1="121.8" y1="79.7" x2="95.3" y2="64.4"/>
      <line x1="124.4" y1="75.3" x2="97.9" y2="59.9"/>
      <line x1="127" y1="70.8" x2="100.4" y2="55.5"/>
      <line x1="125.8" y1="64.1" x2="103" y2="51"/>
      <line x1="120.6" y1="55.2" x2="105.6" y2="46.5"/>
      <line x1="115.7" y1="46.4" x2="108.2" y2="42"/>
      <polygon points="134.8,162.5 74,162.5 91.5,131.9 134.7,131.9 130.9,135.7 125.8,140.8 120.6,146 119.4,147.2 120.6,148.4 125.8,153.5 130.9,158.6"/>
      <rect x="143.7" y="162.5" width="13.1" height=".1"/>
      <line x1="125.8" y1="162.5" x2="125.8" y2="153.5"/>
      <line x1="125.8" y1="140.8" x2="125.8" y2="131.9"/>
      <line x1="130.9" y1="162.5" x2="130.9" y2="158.6"/>
      <line x1="130.9" y1="135.7" x2="130.9" y2="131.9"/>
      <line x1="146.5" y1="162.5" x2="146.5" y2="162.5"/>
      <line x1="151.6" y1="162.5" x2="151.6" y2="162.5"/>
      <line x1="120.6" y1="162.5" x2="120.6" y2="148.4"/>
      <line x1="120.6" y1="146" x2="120.6" y2="131.9"/>
      <line x1="115.4" y1="131.9" x2="115.4" y2="162.5"/>
      <line x1="110.2" y1="131.9" x2="110.2" y2="162.5"/>
      <line x1="105.1" y1="131.9" x2="105.1" y2="162.5"/>
      <line x1="99.9" y1="131.9" x2="99.9" y2="162.5"/>
      <line x1="94.7" y1="131.9" x2="94.7" y2="162.5"/>
      <line x1="89.6" y1="136.2" x2="89.6" y2="162.5"/>
      <line x1="84.4" y1="145.2" x2="84.4" y2="162.5"/>
      <line x1="79.2" y1="153.8" x2="79.2" y2="162.5"/>
      <polygon points="161.8,64.7 159.2,60.2 159.3,60.2 161.8,64.7 164.4,69.1 165.8,71.5 165.7,71.5 164.4,69.2"/>
      <polygon points="200.6,131.8 165.4,132 165.3,131.8 163.8,129.2 161.2,124.8 158.6,120.3 156,115.8 153.4,111.3 150.8,106.8 148.3,102.4 145.7,97.9 143.8,94.6 148.9,96 156,97.9 163,99.8 164.7,100.3 165.1,98.6 167,91.6 168.8,84.5 170.2,79.2 172.2,82.6 174.8,87.1 177.4,91.5 179.9,96 182.5,100.5 185.1,105 187.7,109.5 190.3,113.9 192.9,118.4 195.5,122.9 198,127.4"/>
      <line x1="174.8" y1="87.1" x2="167" y2="91.6"/>
      <line x1="156" y1="97.9" x2="148.3" y2="102.4"/>
      <line x1="172.2" y1="82.6" x2="168.8" y2="84.5"/>
      <line x1="148.9" y1="96" x2="145.7" y2="97.9"/>
      <line x1="164.4" y1="69.1" x2="164.4" y2="69.2"/>
      <line x1="161.8" y1="64.7" x2="161.8" y2="64.7"/>
      <line x1="177.4" y1="91.5" x2="165.1" y2="98.6"/>
      <line x1="163" y1="99.8" x2="150.8" y2="106.8"/>
      <line x1="153.4" y1="111.3" x2="179.9" y2="96"/>
      <line x1="156" y1="115.8" x2="182.5" y2="100.5"/>
      <line x1="158.6" y1="120.3" x2="185.1" y2="105"/>
      <line x1="161.2" y1="124.8" x2="187.7" y2="109.5"/>
      <line x1="163.8" y1="129.2" x2="190.3" y2="113.9"/>
      <line x1="170.1" y1="131.6" x2="192.9" y2="118.4"/>
      <line x1="180.4" y1="131.6" x2="195.5" y2="122.9"/>
      <line x1="190.5" y1="131.7" x2="198" y2="127.4"/>
      <polygon points="173.5,67 170.2,79.2 168.8,84.5 167,91.6 165.1,98.6 164.7,100.3 163,99.8 156,97.9 148.9,96 143.8,94.6 131.5,91.3 139.2,86.8 128.5,68.2 128.6,68 110.8,37.6 140.1,27.2 159.2,60.2 161.8,64.7 164.4,69.2 165.7,71.5 165.8,71.5"/>
      <polygon points="128.6,68 128.5,68.2 110.8,37.6"/>
      <polygon points="110.2,117.7 102.5,113.2 91.7,131.9 91.5,131.9 74,162.5 50.4,142.3 69.4,109.2 72,104.8 74.6,100.3 76,97.9 75.9,97.9 68.2,93.5 80.4,90.2 85.7,88.8 92.7,86.8 99.8,84.9 101.4,84.5 101.9,86.1 103.7,93.2 105.6,100.2 107,105.4"/>
      <polygon points="91.7,131.9 74,162.5 91.5,131.9"/>
      <polygon points="200.6,131.8 194.9,162.5 143.7,162.5 143.7,171.4 134.8,162.5 130.9,158.6 125.8,153.5 120.6,148.4 119.4,147.2 120.6,146 125.8,140.8 130.9,135.7 134.7,131.9 143.7,122.9 143.7,131.8 165.3,131.8 165.4,132"/>
      <polygon points="200.6,131.8 165.4,132 165.3,131.8"/>
    </g>
  </symbol>
  <symbol id="time" viewBox="0 0 250 200" preserveAspectRatio="xMidYMid meet">
    <title>Lifetime</title>
    <desc>The Bloom Box will produce CO2 for up to six months.</desc>
    <path fill="#ebefeb" d="M116.5 7.7L39.3 84.9c-4.7 4.7-4.7 12.3 0 17l77.2 77.2c4.7 4.7 12.3 4.7 17 0l77.2-77.2c4.7-4.7 4.7-12.3 0-17L133.5 7.7c-4.7-4.6-12.3-4.6-17 0z"/>
    <circle fill="none" stroke="#454e3e" stroke-width="3" stroke-linecap="round" stroke-linejoin="round" stroke-dasharray="6.6422,6.6422" cx="223.5" cy="91.3" r="21.1"/>
    <g fill="none" stroke="#454e3e" stroke-width="3" stroke-linecap="round" stroke-linejoin="round" stroke-miterlimit="10">
      <circle cx="125.5" cy="93.4" r="32.6"/>
      <path d="M125.5 53.4l19.1-6.2 9.2 17.9 17.9 9.1-6.2 19.2 6.2 19.1-17.9 9.2-9.2 17.9-19.1-6.2-19.1 6.2-9.2-17.9-17.9-9.2 6.2-19.1-6.2-19.2 17.9-9.1 9.2-17.9z"/>
      <path d="M32.2 123.5c12.7 39.4 49.7 67.9 93.3 67.9 43.6 0 80.6-28.5 93.3-67.9"/>
      <path d="M224.8 131.3l-6-8.8-9.7 4.6"/>
      <circle cx="27.5" cy="91.3" r="21.1"/>
      <path d="M135.6 66.3h7.5m-.5 5.4h7m-3.8 5.4h7.9m-5.1 5.4h7.5m-5.9 5.5h7.3m-5.6 5.4h6.2m-7.9 5.4h7.3m-8.9 5.5h7.5m-10.3 5.4h7.9m-11.1 5.4h7m-14 5.4h7.5M14.4 75.4h10.9M9.2 80.7h12.5M7.1 86h12.3m-13 5.3h12.4M7.1 96.6h12.3m-10.2 5.3h12.5m-7.3 5.3h10.9"/>
    </g>
  </symbol>
</svg>
