<svg xmlns="http://www.w3.org/2000/svg" version="1.1">
  <symbol id="planning" viewBox="0 0 133.1 147.4" preserveAspectRatio="xMinYMid meet">
    <title>Planning</title>
    <desc>A blueprint. We don't *actually* use them, but we do agressively document our plans.</desc>
    <path fill="#518eaa" d="M133 113.8c-.1-.4-.3-.8-.6-1-.3-.2-.7-.4-1.1-.3l-6.3.8-14.8-112c-.1-.8-.9-1.4-1.7-1.3L9.8 13.1c-.8.1-1.4.9-1.3 1.7l15 113.5c.3 2.5 1.6 4.7 3.6 6.2 1.6 1.3 3.6 1.9 5.7 1.9.4 0 .8 0 1.2-.1l91-12c2.5-.3 4.7-1.6 6.2-3.6s2.2-4.5 1.8-6.9z"/>
    <path fill="#464a4b" d="M133 113.8c-.1-.4-.3-.8-.6-1-.3-.2-.7-.4-1.1-.3l-6.3.8-14.8-112c-.1-.8-.9-1.4-1.7-1.3L9.8 13.1c-.8.1-1.4.9-1.3 1.7l.2 1.9-7.4.5c-.4 0-.8.2-1 .5s-.3.6-.3 1L1.9 49l1.9 30.3v.2l1.2 18 .8 12.1.4 6 .8 12.2.4 5.9v.4l.4 5.9.4 6.1c.1.8.7 1.4 1.5 1.4h.1l99.4-6.3c.4 0 .8-.2 1-.5.3-.3.4-.7.4-1.1l-.8-13.2 15.3-2c2.5-.3 4.7-1.6 6.2-3.6 1.4-2.1 2.1-4.6 1.7-7zM107.5 3.2l14.6 110.5-81.7 10.8c-.8.1-1.4.9-1.3 1.7.1.9 0 1.7-.2 2.5-.7 2.4-2.7 4.3-5.3 4.6h-1.5c-.2 0-.4 0-.6-.1h-.1c-.2 0-.4-.1-.6-.2h-.1c-.2-.1-.4-.1-.6-.2H30c-.6-.3-1.2-.7-1.7-1.2l-.1-.1c-.5-.5-.9-1-1.2-1.6 0 0 0-.1-.1-.1l-.3-.9v-.1c-.1-.3-.2-.6-.2-.9l-.5-3.8-2.4-18.5-.4-3.2-.8-6-.8-6-.2-1.4-2.6-19.6-.4-3.1-.8-6v-.1l-.8-5.7L14 32.7l-.4-2.8-.8-6-.8-6-.3-2 95.8-12.7zM3.1 20l6.1-.4.4 3-6.3.4-.2-3zm.4 6.1l6.5-.4.4 3.1-6.7.4-.2-3.1zm.4 6l6.9-.4.2 1.2.2 1.8-7.1.5-.2-3.1zm.4 6.1l7.3-.5.4 3-7.5.5-.2-3zm.3 6l7.7-.5.4 3.1-8 .5-.1-3.1zm.4 6.1l8.2-.5.2 1.2.2 1.9-8.4.5-.2-3.1zm.4 6.1l8.6-.5.4 3.1-8.8.6-.2-3.2zm.4 6l9-.6.4 3.1-9.2.6-.2-3.1zm.4 6.1l9.4-.6.3 2 .1 1-9.6.6-.2-3zm.4 6.1l9.8-.6.4 3-10 .6-.2-3zm.6 9.1L7 80.6l10.2-.6.4 3.1-10.4.6zm.2 3L18 86l.4 2.9v.1l-10.8.8-.2-3.1zm.3 6l11-.7.4 3-11.2.8-.2-3.1zm.4 6.1l11.5-.7.4 3.1-11.7.7-.2-3.1zm.4 6.1l11.9-.8.3 2 .1 1-12.1.8-.2-3zm.4 6l12.3-.8.4 3-12.5.9-.2-3.1zm.6 9.2l-.2-3.1 12.7-.8.4 3.1-12.9.8zm.2 3l13.1-.8.4 3-13.3.9-.2-3.1zm.4 6l13.5-.9v.1c0 .2.1.5.1.7 0 .1.1.2.1.4s.1.3.1.5c0 .1.1.2.1.4.1.1.1.3.2.4.1.1.1.3.2.4 0 .1.1.1.1.2l-14.3.9-.1-3.1zm.9 15.2l-.2-3.1 96.4-6.2.2 3.1-96.4 6.2zm95.8-15.3l.2 3.1-96.4 6.2-.2-3.1 16.4-1s.1 0 .1.1c.1.1.2.1.2.2.1.1.3.2.4.3 0 0 .1 0 .1.1.5.3 1.1.6 1.6.9h.1c.3.1.5.2.8.3h.2c.3.1.5.1.8.2h.1c.5.1 1.1.2 1.6.2h.1c.4 0 .8 0 1.1-.1l33.6-4.5 4.1-.5 35.1-2.4zm22-10.2c-1 1.3-2.5 2.2-4.2 2.4l-16.7 2.2h-.1l-36.4 4.8-31 4.1.1-.1.6-.9s0-.1.1-.1c.2-.4.3-.7.5-1.1 0-.1.1-.2.1-.3.1-.3.2-.7.3-1.1v-.1c.1-.4.1-.8.1-1.2v-.1l81.8-10.8 6.1-.8c-.1 1.1-.6 2.2-1.3 3.1z"/>
    <path fill="#f4f5f6" d="M26.8 46.1c-.7 0-1.4-.5-1.5-1.3l-2.6-19.5c-.1-.4.1-.8.3-1.1.2-.3.6-.5 1-.6l47.6-6.3c.8-.1 1.6.5 1.7 1.3l2.6 19.5c.1.4-.1.8-.3 1.1-.2.3-.6.5-1 .6L27 46.1h-.2zm-.9-19.7l2.2 16.5L72.7 37l-2.2-16.5-44.6 5.9z"/>
    <path fill="#f4f5f6" d="M112.2 67.5l-2.6-19.7-5.1-38.4c0-.1 0-.2-.1-.3V9c0-.1 0-.1-.1-.2l-.1-.1c0-.1-.1-.1-.1-.2-.1-.1-.3-.3-.4-.3-.2-.1-.4-.1-.5-.1h-.3L17.5 19.3c-.8.1-1.4.9-1.3 1.7l7.7 58.2c.1.4.3.8.6 1 .3.2.6.3.9.3h.2l59.6-7.9 25.8-3.4c.4-.1.8-.3 1-.6.2-.3.3-.7.2-1.1zm-6-22.5l-12-14.2 8-16.1 4 30.3zM92.1 28.3L80.2 14.1l20.3-2.7-8.4 16.9zm-1.4 2.9l-7.5 15.1-3.8-28.5 11.3 13.4zm2.1 2.5L104 47l-19 2.5 7.8-15.8zM19.4 22.1L76 14.6l4.9 36.9 2.4 18.2-56.6 7.5-7.3-55.1zm66.9 47.3L84 52.7l22.8-3 2.2 16.8-22.7 2.9zM26.255 85.986l85.36-11.287 1.036 7.83-85.36 11.29zm1.787 13.154l79.213-10.45.392 2.974-79.213 10.45zm.78 6.007l74.75-9.863.393 2.975-74.75 9.86zm.84 6.043l83.08-10.96.39 2.974-83.077 10.96zm.713 5.97l41.54-5.48.393 2.973-41.54 5.48z"/>
  </symbol>
  <symbol id="consulting" viewBox="0 0 120 147.5" preserveAspectRatio="xMinYMid meet">
    <title>Consulting</title>
    <desc>Phenotonic can fix (or prevent) your gardening woes.</desc>
    <path fill="#518eaa" d="M118.4 123L105.5 15.6C104.8 9 98.8 4.3 92.2 5.1l-80.1 9.6C5.5 15.5.8 21.5 1.6 28l12.9 107.4c.8 6.5 6.8 11.3 13.3 10.5l80.1-9.6c6.6-.8 11.3-6.8 10.5-13.3zm-6.4 8.3L22.6 142h-.2c-.3 0-.7-.1-.9-.3-.3-.2-.5-.6-.6-1L7.8 31.1c-.1-.8.5-1.6 1.3-1.7l89.4-10.7c.4 0 .8.1 1.1.3.3.2.5.6.6 1l13.1 109.6c.1.8-.5 1.6-1.3 1.7z"/>
    <path fill="#464a4b" d="M119.9 122.8l-.2-1.9-1.9-15.6-1.9-15.7-.9-7.8-1.9-15.6-1.9-15.6-2.8-23.6-1.4-11.6c-.4-3.6-2.2-6.8-5.1-9C99 4.2 95.5 3.2 92 3.6L61.5 7.2c.1.4.2.9.2 1.3l.2 1.7 30.4-3.6c2.8-.3 5.5.4 7.7 2.2.6.5 1.2 1 1.7 1.7L80.4 13c3.3-.3 6.4.4 9.1 1.9l13.9-1.7c.3.8.5 1.6.6 2.5l.3 2.3-5.6.7h.1-.2l-4.2.5c.6.9 1.2 1.8 1.7 2.8l1.4-.2 12.8 106.6-86.4 10.4L11 32.3l1.4-.2c.2-1.1.5-2.1.9-3.1l-4.2.5-5.8.7-.3-2.3c0-.9 0-1.8.1-2.6l14-1.7c2.3-2.2 5.3-3.6 8.7-4.1L4 22.1c.3-.7.7-1.4 1.2-2 1.7-2.2 4.2-3.6 7-4l30.4-3.6-.2-1.7c-.1-.5-.1-.9-.1-1.3l-30.5 3.7c-3.6.4-6.8 2.2-9 5.1C.6 21.1-.4 24.7 0 28.2l4.2 35.1L6.1 79 8 94.6l1.9 15.7.9 7.8.9 7.8.9 7.8.2 1.9c.8 6.9 6.7 11.9 13.4 11.9.5 0 1.1 0 1.6-.1l80.1-9.6c3.6-.4 6.8-2.2 9-5.1 2.4-2.8 3.4-6.3 3-9.9zm-4-7.9l.6 4.8-4.3.5-.6-4.8 4.3-.5zm-.9-7.8l.6 4.9-4.3.5-.6-4.8 4.3-.6zm-14.6-85.6l4.3-.5.6 4.8-4.3.5-.6-4.8zm.9 7.9l4.3-.5.6 4.9-4.3.5.1 1.1-.7-6zm1 7.8l4.3-.5.6 4.9-4.3.5-.6-4.9zm.9 7.8l4.3-.5.6 4.8-4.3.5-.6-4.8zm.9 7.8l4.3-.5.6 4.8-4.3.5-.6-4.8zm1 7.9l4.3-.5.6 4.8-4.3.5-.6-4.8zm.9 7.8l4.3-.5.6 4.9-4.3.5-.6-4.9zm.9 7.8l4.3-.5.6 4.8-4.3.5-.6-4.8zm1 7.8l4.3-.5.6 4.8-4.3.5-.6-4.8zm.9 7.9l4.3-.5.6 4.8-4.3.5-.6-4.8zm1 7.8l4.3-.5.6 4.8-4.3.5-.6-4.8zM4.3 38l-.6-4.8 4.3-.6.6 4.9-4.3.5zm.3 3l4.3-.5.6 4.8-4.3.5-.6-4.8zm1.6 12.6l-.6-4.8 4.3-.5.6 4.8-4.3.5zm.3 3l4.3-.5.6 4.8-4.3.5-.6-4.8zM8 69.3l-.6-4.9 4.3-.5.6 4.9-4.3.5zm.4 3l4.3-.5.6 4.9-4.3.4-.6-4.8zm1.5 12.6l-.6-4.8 4.3-.5.6 4.8-4.3.5zm.9 7.9l-.6-4.9 4.3-.5.6 4.8-4.3.6zm1 7.8l-.6-4.8 4.3-.5.6 4.8-4.3.5zm.9 7.8l-.6-4.8 4.3-.5.6 4.9-4.3.4zm.4 3l4.3-.5.6 4.8-4.3.5-.6-4.8zm.9 7.8l4.3-.5-.3-2.5.9 7.4-4.3.5-.6-4.9zm1 7.8l4.3-.5.6 4.8-4.3.5-.6-4.8zm.9 8.3l-.1-.4 4.3-.5.6 4.9-3.3.4c-.7-1.4-1.3-2.8-1.5-4.4zm91.8-.5l-80.1 9.6c-2.8.3-5.5-.5-7.7-2.1l2.7-.3 89.4-10.7 2.6-.3c-1.6 2-4 3.5-6.9 3.8zm8.7-7.1l-3.3.4-.6-4.8 4.3-.5.1.4c.2 1.5 0 3.1-.5 4.5zm-66.8-116l5.4-.6c.2-.5.3-1.1.3-1.7-.1-.5-.2-.9-.5-1.3l-5.7.7c-.1.4-.2.8-.1 1.3 0 .6.3 1.2.6 1.6z"/>
    <path fill="#f4f5f6" d="M52.7 14.4c-2.6.3-4.9-1.5-5.2-4.1-.3-2.6 1.5-4.9 4.1-5.2 2.6-.3 4.9 1.5 5.2 4.1s-1.6 4.9-4.1 5.2zm43.1 12.4c-.9-7.7-7.9-13.2-15.6-12.3l-18.9 2.3-1-8c-.5-4.5-4.6-7.7-9.1-7.2s-7.7 4.6-7.2 9.1l1 8L26 21c-7.7.9-13.2 7.9-12.3 15.6l82.1-9.8z"/>
    <path fill="#464a4b" d="M13.7 38.1c-.3 0-.7-.1-.9-.3-.3-.2-.5-.6-.6-1-1-8.5 5.1-16.3 13.6-17.3l17.5-2.1-.8-6.5c-.3-2.6.4-5.1 2-7.2 1.6-2 3.9-3.3 6.5-3.6 5.3-.6 10.2 3.2 10.8 8.5l.8 6.5L80 13c8.5-1 16.3 5.1 17.3 13.6.1.8-.5 1.6-1.3 1.7l-82.1 9.8h-.2zM52.1 3h-.8c-1.8.2-3.4 1.1-4.5 2.5s-1.6 3.2-1.4 5l1 8c.1.8-.5 1.6-1.3 1.7l-18.9 2.3c-3.3.4-6.3 2.1-8.4 4.7-1.8 2.2-2.7 4.9-2.7 7.7l79-9.5c-.7-2.7-2.2-5.1-4.4-6.9-2.6-2.1-5.9-3-9.2-2.6l-18.9 2.3c-.8.1-1.6-.5-1.7-1.3l-1-8C58.4 5.5 55.5 3 52.1 3zm0 12.9c-3.1 0-5.8-2.3-6.1-5.4-.4-3.4 2-6.5 5.4-6.9 3.4-.4 6.5 2 6.9 5.4.2 1.6-.3 3.3-1.3 4.6s-2.5 2.1-4.1 2.3h-.8zm0-9.4h-.4c-1.7.2-3 1.8-2.8 3.5.2 1.7 1.8 3 3.5 2.8.8-.1 1.6-.5 2.1-1.2s.8-1.5.7-2.3c-.1-1.6-1.5-2.8-3.1-2.8zM16.683 45.97l69.205-8.293.94 7.844-69.205 8.3zm1.66 14.12l62.95-7.55.357 2.98-62.95 7.55zm.934 7.843l71.985-8.635.357 2.98-71.99 8.634zm.916 7.877l74.864-8.98.357 2.98-74.864 8.98zm.97 7.755l69.206-8.302.35 2.98-69.205 8.3zm.89 7.825l66.225-7.944.358 2.98L22.41 94.37zm.927 7.846L96.654 90.4l.357 2.978-73.67 8.837zm.985 7.83l69.205-8.3.358 2.978-69.205 8.302zm.965 7.834l31.476-3.775.357 2.978-31.475 3.776z"/>
  </symbol>
</svg>
