<svg xmlns="http://www.w3.org/2000/svg" version="1.1">
  <symbol id="consulting" viewBox="0 0 120 147.5" preserveAspectRatio="xMidYMid meet">
    <title>Consulting</title>
    <desc>The clipboard is the best friend of consultants and health inspectors everywhere.</desc>
    <path fill="#518eaa" d="M118.4 123L105.5 15.6C104.8 9 98.8 4.3 92.2 5.1l-80.1 9.6C5.5 15.5.8 21.5 1.6 28l12.9 107.4c.8 6.5 6.8 11.3 13.3 10.5l80.1-9.6c6.6-.8 11.3-6.8 10.5-13.3zm-6.4 8.3L22.6 142h-.2c-.3 0-.7-.1-.9-.3-.3-.2-.5-.6-.6-1L7.8 31.1c-.1-.8.5-1.6 1.3-1.7l89.4-10.7c.4 0 .8.1 1.1.3.3.2.5.6.6 1l13.1 109.6c.1.8-.5 1.6-1.3 1.7z"/>
    <path fill="#f4f5f6" d="M52.7 14.4c-2.6.3-4.9-1.5-5.2-4.1-.3-2.6 1.5-4.9 4.1-5.2 2.6-.3 4.9 1.5 5.2 4.1s-1.6 4.9-4.1 5.2zm43.1 12.4c-.9-7.7-7.9-13.2-15.6-12.3l-18.9 2.3-1-8c-.5-4.5-4.6-7.7-9.1-7.2s-7.7 4.6-7.2 9.1l1 8L26 21c-7.7.9-13.2 7.9-12.3 15.6l82.1-9.8z"/>
    <path fill="#464a4b" d="M119.9 122.8l-.2-1.9-1.9-15.6-1.9-15.7-.9-7.8-1.9-15.6-1.9-15.6-2.8-23.6-1.4-11.6c-.4-3.6-2.2-6.8-5.1-9C99 4.2 95.5 3.2 92 3.6L61.5 7.2v.2c-1.1-4.7-5.7-8-10.6-7.4-2.6.3-4.9 1.6-6.5 3.6-1.3 1.7-2 3.7-2.1 5.8l-30.5 3.7c-3.6.4-6.8 2.2-9 5.1C.6 21-.4 24.6 0 28.1l4.2 35.1 1.9 15.7L8 94.6l1.9 15.7.9 7.8.9 7.8.9 7.8.2 1.9c.8 6.9 6.7 11.9 13.4 11.9.5 0 1.1 0 1.6-.1l80.1-9.6c3.6-.4 6.8-2.2 9-5.1 2.4-2.8 3.4-6.3 3-9.9zm-4-7.9l.6 4.8-4.3.5-.6-4.8 4.3-.5zm-.9-7.8l.6 4.9-4.3.5-.6-4.8 4.3-.6zm-.4-3l-4.3.5-.6-4.8 4.3-.5.6 4.8zM12.2 36.8c0 .4.2.8.6 1 .3.2.6.3.9.3h.2L96 28.3c.8-.1 1.4-.8 1.3-1.7-.2-1.6-.6-3.1-1.3-4.5l1.4-.2 12.8 106.6-86.4 10.4L11 32.3l1.4-.2c-.3 1.5-.4 3.1-.2 4.7zm.6-6.3s0-.1 0 0c0-.1 0 0 0 0zm100.3 61l.6 4.8-4.3.5-.6-4.9 4.3-.4zm-.3-3l-4.3.5-.6-4.8 4.3-.5.6 4.8zm-1.5-12.7l.6 4.8-4.3.5-.6-4.8 4.3-.5zm-.4-3l-4.3.5-.6-4.8 4.3-.5.6 4.8zM110 65l-4.3.5-.6-4.8 4.3-.5.6 4.8zm-1.6-12.7l.6 4.8-4.3.5-.6-4.9 4.3-.4zm-.3-3l-4.3.5-.6-4.8 4.3-.5.6 4.8zm-1-7.8l-4.3.5-.6-4.8 4.3-.5.6 4.8zm-.9-7.8l-4.3.5.1 1.1-.7-5.9 4.3-.5.6 4.8zm-.9-7.8l-4.3.5-.6-4.8 4.3-.5.6 4.8zm-1.9-12.7c.3.8.5 1.6.6 2.5l.3 2.3-5.6.7h.1-.2l-4.2.5s0 .1.1.1c-1.4-1.9-3.2-3.5-5.2-4.6.1 0 .2.1.3.1l13.8-1.6zm-8.1 7.5c-.1-.2-.2-.3-.3-.5.1.1.2.3.3.5zM92.4 6.6c2.8-.3 5.5.4 7.7 2.2.6.5 1.2 1 1.7 1.7L80.4 13h.4c-.3 0-.5 0-.8.1l-17.5 2.1-.7-5.6.1.7 30.5-3.7zm-3.7 7.9c-.3-.1-.6-.3-.9-.4.3.1.6.3.9.4zm-1.2-.5c-.4-.2-.8-.3-1.3-.4.4.1.9.2 1.3.4zm-1.6-.5c-.3-.1-.7-.2-1-.2.3 0 .7.1 1 .2zm-1.5-.4c-.3 0-.6-.1-.9-.1.3 0 .6.1.9.1zm-1.5-.2h-.8.8zM61.8 8.5c0-.3-.1-.5-.1-.8 0 .3 0 .5.1.8zM45.1 20.2c.8-.1 1.4-.8 1.3-1.7l-1-8c-.2-1.8.3-3.5 1.4-5 1.1-1.4 2.7-2.3 4.5-2.5h.8c3.4 0 6.3 2.5 6.7 5.9l1 8c.1.8.8 1.4 1.7 1.3L80.4 16c3.3-.4 6.6.5 9.2 2.6 2.2 1.8 3.8 4.2 4.4 6.9L15 35c0-2.8.9-5.5 2.7-7.7 2.1-2.6 5-4.3 8.4-4.7l19-2.4zM17.8 23c.2-.1.3-.3.5-.4-.2.1-.4.2-.5.4zm24.6-12.4v-.4.4zM5.3 20.1c1.7-2.2 4.2-3.6 7-4l30.4-3.6.6 4.9-17.5 2.1c-.5.1-1 .1-1.4.2.4-.1.9-.2 1.3-.2L4 22.1c.4-.7.8-1.3 1.3-2zm13.5 2.1c.2-.2.5-.3.7-.5-.2.1-.4.3-.7.5zm1.5-1c.3-.1.5-.3.8-.4-.3.2-.5.3-.8.4zm1.4-.6c.2-.1.5-.2.8-.3-.3.1-.6.2-.8.3zm1.3-.5c.3-.1.6-.2.8-.2-.3.1-.5.1-.8.2zM3.1 27.9c-.1-.9-.1-1.8 0-2.6l14-1.7c.1-.1.1-.1.2-.1-1.7 1.5-3 3.4-3.9 5.6l-4.2.5-5.8.7-.3-2.4zM4.3 38l-.6-4.8 4.3-.6.6 4.9-4.3.5zm.3 3l4.3-.5.6 4.8-4.3.5-.6-4.8zm1.6 12.6l-.6-4.8 4.3-.5.6 4.8-4.3.5zm.3 3l4.3-.5.6 4.8-4.3.5-.6-4.8zM8 69.3l-.6-4.9 4.3-.5.6 4.9-4.3.5zm.4 3l4.3-.5.6 4.9-4.3.4-.6-4.8zm1.5 12.6l-.6-4.8 4.3-.5.6 4.8-4.3.5zm.9 7.9l-.6-4.9 4.3-.5.6 4.8-4.3.6zm1 7.8l-.6-4.8 4.3-.5.6 4.8-4.3.5zm.9 7.8l-.6-4.8 4.3-.5.6 4.9-4.3.4zm.4 3l4.3-.5.6 4.8-4.3.5-.6-4.8zm.9 7.8l4.3-.5-.3-2.5.9 7.4-4.3.5-.6-4.9zm1 7.8l4.3-.5.6 4.8-4.3.5-.6-4.8zm.9 8.3l-.1-.4 4.3-.5.6 4.9-3.3.4c-.7-1.4-1.3-2.8-1.5-4.4zm91.8-.5l-80.1 9.6c-2.8.3-5.5-.5-7.7-2.1l2.7-.3 89.4-10.7 2.6-.3c-1.6 2-4 3.5-6.9 3.8zm8.7-7.1l-3.3.4-.6-4.8 4.3-.5.1.4c.2 1.5 0 3.1-.5 4.5z"/>
    <path fill="#464a4b" d="M52.1 15.9h.7c1.6-.2 3.1-1 4.1-2.3s1.5-2.9 1.3-4.6c-.4-3.4-3.5-5.8-6.9-5.4-3.3.4-5.7 3.5-5.3 6.9.4 3.1 3 5.4 6.1 5.4zm.4-3c-1.1.1-2.2-.3-2.9-1.2l5.3-.6c-.1.2-.2.4-.4.6-.4.7-1.2 1.1-2 1.2zm2.8-2.8v-.2.2zm-.1.5zm.1-1.2c0-.3-.1-.5-.2-.7.1.2.1.4.2.7zm-.2-.7l-.3-.6c.1.1.2.3.3.6zm-3.4-2.1h.4c1.1 0 2.1.6 2.7 1.5l-5.7.7c-.1.1-.1.3-.1.5.2-1.4 1.3-2.6 2.7-2.7zm-2.3 4.7l-.1-.1.1.1zm-.3-.5c0-.1 0-.1-.1-.2.1.1.1.2.1.2zM49 9.4v.7c-.1-.2-.1-.5 0-.7zM16.683 45.97l69.205-8.293.94 7.844-69.205 8.3zm1.66 14.12l62.95-7.55.357 2.98-62.95 7.55zm.934 7.843l71.985-8.635.357 2.98-71.99 8.634zm.916 7.877l74.864-8.98.357 2.98-74.864 8.98zm.97 7.755l69.206-8.302.35 2.98-69.205 8.3zm.89 7.825l66.225-7.944.358 2.98L22.41 94.37zm.927 7.846L96.654 90.4l.357 2.978-73.67 8.837zm.985 7.83l69.205-8.3.358 2.978-69.205 8.302zm.965 7.834l31.476-3.775.357 2.978-31.475 3.776z"/>
  </symbol>
  <symbol id="planning" viewBox="0 0 133.1 147.4" preserveAspectRatio="xMidYMid meet">
    <title>Planning</title>
    <desc>A blueprint. We don't *actually* use them, but we do agressively document our plans.</desc>
    <path fill="#518eaa" d="M133 113.8c-.1-.4-.3-.8-.6-1-.3-.2-.7-.4-1.1-.3l-6.3.8-14.8-112c-.1-.8-.9-1.4-1.7-1.3L9.8 13.1c-.8.1-1.4.9-1.3 1.7l15 113.5c.3 2.5 1.6 4.7 3.6 6.2 1.6 1.3 3.6 1.9 5.7 1.9.4 0 .8 0 1.2-.1l91-12c2.5-.3 4.7-1.6 6.2-3.6s2.2-4.5 1.8-6.9z"/>
    <path fill="#464a4b" d="M133 113.8c-.1-.4-.3-.8-.6-1-.3-.2-.7-.4-1.1-.3l-6.3.8-14.8-112c-.1-.8-.9-1.4-1.7-1.3L9.8 13.1c-.8.1-1.4.9-1.3 1.7l.2 1.9-7.4.5c-.4 0-.8.2-1 .5s-.3.6-.3 1L1.9 49l1.9 30.3v.2l1.2 18 .8 12.1.4 6 .8 12.2.4 5.9v.4l.4 5.9.4 6.1c.1.8.7 1.4 1.5 1.4h.1l99.4-6.3c.4 0 .8-.2 1-.5.3-.3.4-.7.4-1.1l-.8-13.2 15.3-2c2.5-.3 4.7-1.6 6.2-3.6 1.4-2.1 2.1-4.6 1.7-7zM107.5 3.2l14.6 110.5-81.7 10.8c-.8.1-1.4.9-1.3 1.7.1.9 0 1.7-.2 2.5-.7 2.4-2.7 4.3-5.3 4.6h-1.5c-.2 0-.4 0-.6-.1h-.1c-.2 0-.4-.1-.6-.2h-.1c-.2-.1-.4-.1-.6-.2H30c-.6-.3-1.2-.7-1.7-1.2l-.1-.1c-.5-.5-.9-1-1.2-1.6 0 0 0-.1-.1-.1l-.3-.9v-.1c-.1-.3-.2-.6-.2-.9l-.5-3.8-2.4-18.5-.4-3.2-.8-6-.8-6-.2-1.4-2.6-19.6-.4-3.1-.8-6v-.1l-.8-5.7L14 32.7l-.4-2.8-.8-6-.8-6-.3-2 95.8-12.7zM3.1 20l6.1-.4.4 3-6.3.4-.2-3zm.4 6.1l6.5-.4.4 3.1-6.7.4-.2-3.1zm.4 6l6.9-.4.2 1.2.2 1.8-7.1.5-.2-3.1zm.4 6.1l7.3-.5.4 3-7.5.5-.2-3zm.3 6l7.7-.5.4 3.1-8 .5-.1-3.1zm.4 6.1l8.2-.5.2 1.2.2 1.9-8.4.5-.2-3.1zm.4 6.1l8.6-.5.4 3.1-8.8.6-.2-3.2zm.4 6l9-.6.4 3.1-9.2.6-.2-3.1zm.4 6.1l9.4-.6.3 2 .1 1-9.6.6-.2-3zm.4 6.1l9.8-.6.4 3-10 .6-.2-3zm.6 9.1L7 80.6l10.2-.6.4 3.1-10.4.6zm.2 3L18 86l.4 2.9v.1l-10.8.8-.2-3.1zm.3 6l11-.7.4 3-11.2.8-.2-3.1zm.4 6.1l11.5-.7.4 3.1-11.7.7-.2-3.1zm.4 6.1l11.9-.8.3 2 .1 1-12.1.8-.2-3zm.4 6l12.3-.8.4 3-12.5.9-.2-3.1zm.6 9.2l-.2-3.1 12.7-.8.4 3.1-12.9.8zm.2 3l13.1-.8.4 3-13.3.9-.2-3.1zm.4 6l13.5-.9v.1c0 .2.1.5.1.7 0 .1.1.2.1.4s.1.3.1.5c0 .1.1.2.1.4.1.1.1.3.2.4.1.1.1.3.2.4 0 .1.1.1.1.2l-14.3.9-.1-3.1zm.9 15.2l-.2-3.1 96.4-6.2.2 3.1-96.4 6.2zm95.8-15.3l.2 3.1-96.4 6.2-.2-3.1 16.4-1s.1 0 .1.1c.1.1.2.1.2.2.1.1.3.2.4.3 0 0 .1 0 .1.1.5.3 1.1.6 1.6.9h.1c.3.1.5.2.8.3h.2c.3.1.5.1.8.2h.1c.5.1 1.1.2 1.6.2h.1c.4 0 .8 0 1.1-.1l33.6-4.5 4.1-.5 35.1-2.4zm22-10.2c-1 1.3-2.5 2.2-4.2 2.4l-16.7 2.2h-.1l-36.4 4.8-31 4.1.1-.1.6-.9s0-.1.1-.1c.2-.4.3-.7.5-1.1 0-.1.1-.2.1-.3.1-.3.2-.7.3-1.1v-.1c.1-.4.1-.8.1-1.2v-.1l81.8-10.8 6.1-.8c-.1 1.1-.6 2.2-1.3 3.1z"/>
    <path fill="#f4f5f6" d="M26.8 46.1c-.7 0-1.4-.5-1.5-1.3l-2.6-19.5c-.1-.4.1-.8.3-1.1.2-.3.6-.5 1-.6l47.6-6.3c.8-.1 1.6.5 1.7 1.3l2.6 19.5c.1.4-.1.8-.3 1.1-.2.3-.6.5-1 .6L27 46.1h-.2zm-.9-19.7l2.2 16.5L72.7 37l-2.2-16.5-44.6 5.9z"/>
    <path fill="#f4f5f6" d="M112.2 67.5l-2.6-19.7-5.1-38.4c0-.1 0-.2-.1-.3V9c0-.1 0-.1-.1-.2l-.1-.1c0-.1-.1-.1-.1-.2-.1-.1-.3-.3-.4-.3-.2-.1-.4-.1-.5-.1h-.3L17.5 19.3c-.8.1-1.4.9-1.3 1.7l7.7 58.2c.1.4.3.8.6 1 .3.2.6.3.9.3h.2l59.6-7.9 25.8-3.4c.4-.1.8-.3 1-.6.2-.3.3-.7.2-1.1zm-6-22.5l-12-14.2 8-16.1 4 30.3zM92.1 28.3L80.2 14.1l20.3-2.7-8.4 16.9zm-1.4 2.9l-7.5 15.1-3.8-28.5 11.3 13.4zm2.1 2.5L104 47l-19 2.5 7.8-15.8zM19.4 22.1L76 14.6l4.9 36.9 2.4 18.2-56.6 7.5-7.3-55.1zm66.9 47.3L84 52.7l22.8-3 2.2 16.8-22.7 2.9zM26.255 85.986l85.36-11.287 1.036 7.83-85.36 11.29zm1.787 13.154l79.213-10.45.392 2.974-79.213 10.45zm.78 6.007l74.75-9.863.393 2.975-74.75 9.86zm.84 6.043l83.08-10.96.39 2.974-83.077 10.96zm.713 5.97l41.54-5.48.393 2.973-41.54 5.48z"/>
  </symbol>
  <symbol id="installation" viewBox="0 0 152.3 147.9" preserveAspectRatio="xMidYMid meet">
    <title>Installation</title>
    <desc>We have a lot more tools than this hammer and wrench, trust us.</desc>
    <path fill="#f4f5f6" d="M140.9 48.2L130 59.1c-7.2 7.2-17.5 9.2-26.5 6.2L97.8 71c-2-.9-4.1-1.2-6.2-1-2.6.3-5.2 1.4-7.2 3.4L77.9 80c-2 2-3.1 4.5-3.4 7.2-.2 2.1.1 4.3 1 6.2L28 140.8c-4.5 4.5-11.7 4.5-16.1 0-4.5-4.4-4.5-11.7 0-16.1l50-50-15.9-16-4.8 4.8c-.1-2.9-1.2-5.7-3.4-7.9L23.6 41.4c-2.2-2.2-5-3.3-7.9-3.3L49.1 4.6C53.2.5 59.9.5 64 4.6l-6.6 6.6c-3.7 3.7-3.7 9.6 0 13.3L68.8 36l-5.6 5.6 15.9 15.9 8.3-8.4c-3-9-1-19.3 6.2-26.5l10.9-10.9c3.7-3.7 9.7-3.7 13.4 0L99.6 30l4.9 18.2 18.2 4.9L141 34.8c3.6 3.7 3.6 9.7-.1 13.4z"/>
    <path fill="#518eaa" d="M147.3 136.4l-6.5 6.5c-4.7 4.7-12.3 4.7-17 0L77.9 97c-1.1-1.1-1.9-2.3-2.5-3.6-.9-2-1.2-4.1-1-6.2.3-2.6 1.4-5.2 3.4-7.2l6.5-6.5c2-2 4.5-3.1 7.2-3.4 2.1-.2 4.3.1 6.2 1 1.3.6 2.5 1.4 3.6 2.4l45.9 45.9c4.8 4.7 4.8 12.3.1 17z"/>
    <path fill="#464a4b" d="M148.4 118.3l-45.9-45.9c-.7-.7-1.4-1.2-2.2-1.7L104 67c9.6 2.9 20 .3 27.1-6.8L142 49.3c2.1-2.1 3.2-4.8 3.2-7.8s-1.1-5.7-3.2-7.8c-.6-.6-1.5-.6-2.1 0l-17.6 17.6-16.6-4.3-4.4-16.5L119 12.8c.3-.3.4-.7.4-1.1 0-.4-.2-.8-.4-1.1-3.8-3.8-9.8-4.2-14.1-1.2l-.6.3c-.1.1-.1.1-.1.2-.2.2-.5.4-.7.6l-5 5-5.9 5.9c-7.2 7.2-9.7 17.5-6.8 27.1l-.8.9-5.8 5.9-.1.1-13.8-13.8 4.6-4.6c.6-.6.6-1.5 0-2.1L58.4 23.5c-1.5-1.5-2.3-3.5-2.3-5.6 0-2.1.8-4.1 2.3-5.6L65 5.6c.6-.6.6-1.5 0-2.1C62.8 1.2 59.8 0 56.5 0S50.3 1.2 48 3.5l-33 33c-3.3.1-6.4 1.4-8.8 3.8l-2.5 2.5c-5.1 5.1-5.1 13.3 0 18.4L18 75.5c2.5 2.5 5.9 3.8 9.2 3.8 3.3 0 6.7-1.3 9.2-3.8l2.5-2.5c2.4-2.3 3.7-5.4 3.8-8.8l3.3-3.3 4.2 4.2 5.3 5.3 4.3 4.3-4.2 4.2-5.9 5.9L38 96.4l-5.9 5.9-5.9 5.9-5.9 5.9-9.6 9.6c-2.4 2.4-3.8 5.7-3.8 9.1 0 3.4 1.3 6.7 3.8 9.1 2.4 2.4 5.7 3.8 9.1 3.8 3.4 0 6.7-1.3 9.1-3.8l46-46c.5.8 1.1 1.5 1.7 2.2l1.8 1.8 5.3 5.3 5.3 5.3 5.3 5.3 5.3 5.3 5.3 5.3 5.3 5.3 5.3 5.3 5.3 5.3 2 2c2.5 2.5 5.9 3.9 9.5 3.9 3.6 0 7-1.4 9.5-3.9l6.5-6.5c2.5-2.5 3.9-5.9 3.9-9.5.1-4-1.3-7.4-3.8-10zM50.2 5.6c3.2-3.1 8.1-3.5 11.6-1l-5.5 5.5c-2.1 2.1-3.2 4.8-3.2 7.7 0 2.9 1.1 5.7 3.2 7.7L66.6 36 45.4 57.3l-.4.4-2.7 2.7c0-.1 0-.1-.1-.2-.1-.4-.3-.8-.4-1.2 0-.1 0-.1-.1-.2-.2-.5-.4-.9-.7-1.3-.1-.1-.1-.2-.2-.3-.2-.3-.3-.5-.5-.7l10.2-10.2c.6-.6.6-1.5 0-2.1s-1.5-.6-2.1 0l-10 10-3-3 10-10c.6-.6.6-1.5 0-2.1s-1.5-.6-2.1 0l-10 10-3-3 10-10c.6-.6.6-1.5 0-2.1s-1.5-.6-2.1 0l-10 10-3-3 10-10c.6-.6.6-1.5 0-2.1s-1.5-.6-2.1 0l-10.2 10c-.2-.2-.5-.3-.8-.5-.1-.1-.2-.1-.3-.2-.4-.2-.9-.5-1.4-.7-.1 0-.1 0-.2-.1-.4-.2-.8-.3-1.2-.4-.1 0-.1 0-.2-.1L50.2 5.6zM36.8 70.8l-2.5 2.5c-3.9 3.9-10.2 3.9-14.1 0L5.9 59C2 55.1 2 48.8 5.9 44.9l2.5-2.5c1.9-1.9 4.4-2.9 7.1-2.9h.2c2.6.1 5 1.1 6.9 2.9l14.3 14.3c.8.8 1.4 1.7 1.9 2.6.6 1.3 1 2.7 1 4.2 0 2.8-1.1 5.4-3 7.3zm68.5-57.7l1.9 1.9c.3.3.7.4 1.1.4s.8-.1 1.1-.4c.6-.6.6-1.5 0-2.1l-1.6-1.6c1.1-.5 2.2-.8 3.4-.8 1.6 0 3.2.5 4.5 1.4L98.6 29c-.4.4-.5.9-.4 1.4l4.9 18.2c.1.5.5.9 1.1 1.1l18.2 4.9c.5.1 1.1 0 1.4-.4l17-17.2c.9 1.3 1.4 2.9 1.4 4.5 0 2.1-.8 4.1-2.3 5.6L129 58c-6.6 6.6-16.1 8.8-24.9 5.8-.5-.2-1.1 0-1.5.4l-5 5c-.1 0-.1 0-.2-.1-.4 0-.7-.1-.9-.1-.1 0-.2-.1-.3-.1-.3-.1-.5-.1-.8-.2h-.2c-.4-.1-.7-.1-1.1-.1h-1.8L86.7 63s.1 0 .1-.1c.6-.6.6-1.5 0-2.1l-4.5-4.5 3.8-3.8 4 4c.3.3.7.4 1.1.4s.8-.1 1.1-.4c.6-.6.6-1.5 0-2.1l-4-4 .2-.2c.4-.4.5-1 .4-1.5-.7-2.1-1.1-4.2-1.2-6.4l4 4c.3.3.7.4 1.1.4s.8-.1 1.1-.4c.6-.6.6-1.5 0-2.1l-6-6c.2-2.1.7-4.1 1.5-6l4.2 4.2c.3.3.7.4 1.1.4s.8-.1 1.1-.4c.6-.6.6-1.5 0-2.1l-5-5c.9-1.6 1.9-3 3.1-4.4l1.9 1.9c.3.3.7.4 1.1.4s.8-.1 1.1-.4c.6-.6.6-1.5 0-2.1l-1.9-1.9 3.8-3.8 1.9 1.9c.3.3.7.4 1.1.4s.8-.1 1.1-.4c.6-.6.6-1.5 0-2.1l-1.9-1.9 3.2-3.8zM63.1 43.7L78 58.6l10.6 10.6c-.1 0-.1.1-.2.1-.4.1-.7.3-1.1.4-.1 0-.1.1-.2.1-.4.2-.8.4-1.2.7-.1.1-.2.1-.3.2l-.9.6-.3.3c-.4.3-.7.6-1.1.9L76.8 79c-.3.3-.6.7-.9 1-.1.1-.2.2-.2.3l-.6.9c-.1.1-.1.2-.2.3-.2.4-.5.8-.7 1.2 0 .1-.1.1-.1.2-.2.4-.3.7-.4 1.1 0 .1-.1.1-.1.2l-4.4-4.4 7.5-7.5c.6-.6.6-1.5 0-2.1s-1.5-.6-2.1 0l-7.5 7.5-3.1-3.1 7.5-7.5c.6-.6.6-1.5 0-2.1s-1.5-.6-2.1 0l-7.5 7.5-3.1-3.1 7.5-7.5c.6-.6.6-1.5 0-2.1s-1.5-.6-2.1 0l-7.5 7.5-3.3-3.3 7.5-7.5c.6-.6.6-1.5 0-2.1s-1.5-.6-2.1 0l-7.5 7.5-3.1-3.1 14.9-15.1zm-36.1 96c-3.9 3.9-10.1 3.9-14 0-1.9-1.9-2.9-4.4-2.9-7 0-1 .2-2 .5-3l3.7 3.7c.3.3.7.4 1.1.4s.8-.1 1.1-.4c.6-.6.6-1.5 0-2.1l-4.4-4.4c.3-.4.6-.8 1-1.2l2.6-2.6 4.5 4.5c.3.3.7.4 1.1.4s.8-.1 1.1-.4c.6-.6.6-1.5 0-2.1l-4.5-4.5 3.8-3.8 4.5 4.5c.3.3.7.4 1.1.4s.8-.1 1.1-.4c.6-.6.6-1.5 0-2.1l-4.5-4.5 3.8-3.8 4.5 4.5c.3.3.7.4 1.1.4s.8-.1 1.1-.4c.6-.6.6-1.5 0-2.1l-4.5-4.5 3.8-3.8 4.5 4.5c.3.3.7.4 1.1.4s.8-.1 1.1-.4c.6-.6.6-1.5 0-2.1l-4.5-4.5 3.8-3.8 4.5 4.5c.3.3.7.4 1.1.4s.8-.1 1.1-.4c.6-.6.6-1.5 0-2.1l-4.5-4.5 3.8-3.8 4.5 4.5c.3.3.7.4 1.1.4s.8-.1 1.1-.4c.6-.6.6-1.5 0-2.1l-4.5-4.5 3.8-3.8 4.5 4.5c.3.3.7.4 1.1.4s.8-.1 1.1-.4c.6-.6.6-1.5 0-2.1L53 85.7l3.8-3.8 4.5 4.5c.3.3.7.4 1.1.4s.8-.1 1.1-.4c.6-.6.6-1.5 0-2.1L59 79.8l3.1-3.1 4.1 4.1 6.9 6.9v1.6c0 .4.1.7.1 1v.2c.1.4.1.8.2 1.2 0 .1 0 .1.1.2.1.3.2.7.3 1v.1L27 139.7zm119.2-4.4l-6.5 6.5c-2 2-4.6 3.1-7.4 3.1-.6 0-1.2-.1-1.8-.2l9.3-9.3c.6-.6.6-1.5 0-2.1s-1.5-.6-2.1 0l-10 10c-.1.1-.2.3-.3.4-.9-.5-1.8-1.1-2.6-1.9l-1-1 10.7-10.7c.6-.6.6-1.5 0-2.1s-1.5-.6-2.1 0l-10.7 10.7-3.1-3.1 10.7-10.7c.6-.6.6-1.5 0-2.1s-1.5-.6-2.1 0l-10.7 10.7-3.1-3.1 10.7-10.7c.6-.6.6-1.5 0-2.1s-1.5-.6-2.1 0l-10.7 10.7-3.1-3.1 10.7-10.7c.6-.6.6-1.5 0-2.1s-1.5-.6-2.1 0L106 122.9l-3.1-3.1 10.7-10.7c.6-.6.6-1.5 0-2.1s-1.5-.6-2.1 0l-10.7 10.7-3.1-3.1 10.7-10.7c.6-.6.6-1.5 0-2.1s-1.5-.6-2.1 0l-10.7 10.7-3.1-3.1L103 98.6c.6-.6.6-1.5 0-2.1s-1.5-.6-2.1 0l-10.7 10.7-3.1-3.1 10.7-10.7c.6-.6.6-1.5 0-2.1s-1.5-.6-2.1 0L85 102l-3.1-3.1 10.7-10.7c.6-.6.6-1.5 0-2.1s-1.5-.6-2.1 0L79.7 96.6l-.7-.7c-.8-.8-1.5-1.8-2-2.9.1-.1.2-.1.3-.2l10-10c.6-.6.6-1.5 0-2.1s-1.5-.6-2.1 0L76 89.8c0-.3-.1-.7-.1-1 0-.5 0-.9.1-1.4.3-2.4 1.3-4.6 3-6.3l6.5-6.5c1.7-1.7 3.9-2.7 6.3-3 .4 0 .9-.1 1.3-.1h.4c.3 0 .6 0 .9.1.1 0 .3 0 .4.1.3.1.6.1.9.2.1 0 .3.1.4.1.4.1.8.3 1.1.4h.1c1.2.5 2.2 1.2 3.1 2.1l45.9 45.9c2 2 3.1 4.6 3.1 7.4-.1 2.9-1.2 5.5-3.2 7.5z"/>
  </symbol>
  <symbol id="maintenance" viewBox="0 0 210.2 147.2" preserveAspectRatio="xMidYMid meet">
    <title>Maintenance</title>
    <desc>We might not use an old-fashioned watering can like this, but we sure will keep your plants well-fed and watered to perfection.</desc>
    <path fill="#f4f5f6" d="M108.7 91.4l-45.5-2.7-7.4-14.2c-1.4-.3-4.3 7.5-6.4 17.3-2.1 9.9-2.6 18.1-1.2 18.4l12.4-9.1 73.5 20.3m.1.1h-.2m-25.3-30.1h-.1"/>
    <path fill="#518eaa" d="M81.1 58.9c-.7-.9 13.3-14 31.4-29.3s33.3-27 34.1-26.1l62 73.2c.7.9-13.3 14-31.4 29.3s-33.3 27-34.1 26.1l-62-73.2zM3 145.7c0-2.4 0-4.7.1-6.9 0-.8-.6-1.5-1.4-1.6-.9 0-1.5.6-1.6 1.4-.1 2.3-.1 4.7-.1 7.1 0 .8.7 1.5 1.5 1.5s1.5-.6 1.5-1.5zm.6-13.8c.2-2.4.5-4.7.8-6.9.1-.8-.4-1.6-1.3-1.7-.8-.1-1.6.4-1.7 1.3-.3 2.3-.6 4.6-.8 7-.1.8.5 1.6 1.4 1.6h.1c.7 0 1.4-.6 1.5-1.3zm2-13.7c.5-2.3 1.1-4.5 1.8-6.6.3-.8-.2-1.6-1-1.9-.8-.3-1.6.2-1.9 1-.7 2.2-1.3 4.5-1.9 6.9-.2.8.3 1.6 1.1 1.8H4c.8 0 1.5-.5 1.6-1.2zm4.3-13c1-2.1 2.1-4.1 3.2-6 .5-.7.2-1.6-.4-2.1-.7-.3-1.7-.1-2.1.6-1.3 1.9-2.4 4.1-3.4 6.3-.3.8 0 1.6.7 2 .2.1.4.1.6.1.6 0 1.1-.3 1.4-.9zM17.2 94c1.5-1.7 3.2-3.2 5-4.5.7-.5.8-1.4.3-2.1-.5-.7-1.4-.8-2.1-.3-1.9 1.4-3.8 3-5.4 4.8-.6.6-.5 1.6.1 2.1.3.3.7.4 1 .4.4 0 .8-.1 1.1-.4zM28 86.1c2-.9 4.1-1.7 6.3-2.3.8-.2 1.3-1 1.1-1.8-.2-.8-1-1.3-1.8-1.1-2.4.6-4.7 1.5-6.8 2.5-.8.3-1.1 1.2-.7 2 .3.5.8.9 1.4.9 0 0 .3-.1.5-.2zm12.9-3.5c2.1-.2 4.3-.4 6.5-.4.8 0 1.5-.7 1.5-1.5s-.7-1.5-1.5-1.5c-2.4 0-4.7.1-6.9.4-.8.1-1.4.8-1.3 1.7.1.8.7 1.3 1.5 1.3h.2zm-27.4 63.1c0-2.4 0-4.7.1-6.9 0-.8-.6-1.5-1.4-1.6-.8 0-1.5.6-1.6 1.4-.1 2.3-.1 4.6-.1 7.1 0 .8.7 1.5 1.5 1.5s1.5-.6 1.5-1.5zm.6-13.8c.2-2.4.5-4.7.8-6.9.1-.8-.4-1.6-1.2-1.7-.8-.1-1.6.4-1.7 1.2-.4 2.2-.6 4.6-.9 7-.1.8.5 1.6 1.4 1.6h.1c.8.1 1.5-.5 1.5-1.2zm2.2-13.6c.6-2.3 1.2-4.5 2-6.5.3-.8-.1-1.6-.9-1.9-.8-.3-1.6.1-1.9.9-.8 2.1-1.5 4.4-2.1 6.9-.2.8.3 1.6 1.1 1.8h.4c.6-.1 1.2-.5 1.4-1.2zm4.8-12.7c1.2-2 2.5-3.8 3.9-5.4.6-.6.5-1.6-.1-2.1-.6-.6-1.6-.5-2.1.1-1.6 1.7-3 3.7-4.3 5.9-.4.7-.2 1.6.6 2 .2.1.5.2.7.2.6.1 1.1-.2 1.3-.7zM30 96c1.8-1.1 3.9-2 6-2.6.8-.2 1.3-1 1.1-1.8-.2-.8-1-1.3-1.8-1.1-2.4.7-4.7 1.6-6.8 2.9-.7.4-.9 1.4-.5 2.1.3.5.8.7 1.3.7.2.1.5 0 .7-.2zm16-4.9c0-.8-.6-1.5-1.5-1.5h-2.1c-.8 0-1.5.7-1.5 1.5s.7 1.5 1.5 1.5h1.9c1-.1 1.7-.7 1.7-1.5zm-21.1 54.6c0-2.4 0-4.8.1-6.9 0-.8-.6-1.5-1.4-1.6-.8-.1-1.5.6-1.6 1.4-.1 2.2-.1 4.6-.1 7.1 0 .8.7 1.5 1.5 1.5s1.5-.6 1.5-1.5zm.5-13.8c.2-2.4.5-4.7.8-6.8.1-.8-.4-1.6-1.2-1.7-.8-.1-1.6.4-1.7 1.2-.4 2.2-.6 4.6-.9 7.1-.1.8.5 1.6 1.4 1.6h.1c.8-.1 1.5-.6 1.5-1.4zm2.3-13.5c.7-2.4 1.4-4.5 2.3-6.3.4-.7.1-1.6-.7-2-.7-.4-1.6-.1-2 .7-1 2-1.8 4.3-2.5 6.8-.2.8.2 1.6 1 1.8.1 0 .3.1.4.1.7 0 1.3-.5 1.5-1.1zm6-11.6c1.6-1.5 3.3-2.6 5.3-3.2.8-.2 1.2-1.1 1-1.9s-1.1-1.2-1.9-1c-2.4.8-4.6 2.1-6.5 3.9-.6.6-.6 1.5 0 2.1.3.3.7.4 1.1.4.4.1.7 0 1-.3z"/>
    <path fill="#464a4b" d="M209.7 75.7l-18.8-22.2c5.9-5.2 9.5-12.4 10.1-20.3.7-8.2-1.9-16.1-7.2-22.3-10.7-12.7-29.7-14.4-42.6-4.1l-3.6-4.3c-1-1.2-1.5-1.8-12.6 6.8-6.5 5-14.8 11.8-23.6 19.2-8.8 7.4-16.9 14.6-22.8 20.1-10.2 9.6-9.7 10.2-8.7 11.3l25.3 29.8-13.5-.8c-.2-.1-.4-.1-.6 0l-26.9-1.6-7-13.5c-.2-.4-.6-.7-1-.8-1.7-.4-3 1.3-4.7 5.8-1.2 3.3-2.5 7.9-3.5 12.7-1 4.8-1.7 9.5-2 13-.3 4.8.2 6.8 1.9 7.2.4.1.9 0 1.2-.3l4.7-3.4c.1-.1.3-.2.4-.3l5.5-4c.3-.1.5-.3.7-.5l.5-.4L97.8 113c.1.1.3.1.4.1l21.7 6c.2.1.4.2.6.2h.1l5.1 1.4c.1 0 .2.1.4.1l7.1 2 8.7 10.3c.3.4.6.7 1.1.7 1.2 0 3.8-1.5 11.5-7.4 6.5-5 14.8-11.8 23.6-19.2 8.8-7.4 16.9-14.6 22.8-20.1 10.3-9.7 9.8-10.3 8.8-11.4zm-18.2-63c4.8 5.6 7.1 12.8 6.5 20.1-.6 7.1-3.8 13.6-9.1 18.3l-5.9-7c7.2-6.7 8-17.9 1.6-25.5-6.4-7.6-17.7-8.7-25.4-2.6l-5.9-7c11.5-9.3 28.6-7.7 38.2 3.7zM181 41.9l-20-23.6c6.5-5 15.8-4 21.2 2.3 5.4 6.3 4.8 15.7-1.2 21.3zm-88.5 7.2c.3-.3.6-.6 1-.9.4-.3.8-.7 1.2-1.1.3-.3.7-.6 1.1-1 .4-.4.9-.8 1.3-1.2.4-.3.7-.7 1.1-1 .5-.4 1-.9 1.5-1.3.4-.3.8-.7 1.2-1 .5-.5 1.1-1 1.7-1.5.4-.3.8-.7 1.2-1 .6-.5 1.3-1.1 1.9-1.7.4-.3.8-.7 1.1-1 .7-.6 1.5-1.3 2.3-2 .3-.3.6-.5 1-.8 1.1-1 2.3-1.9 3.5-3l.8.9C104.4 40 96.6 46.3 91 50.6l.5-.5 1-1zm28.3 59c-.6 2.7-1 5.4-1.3 7.8l-2.6-.7c.3-2.7.9-5.8 1.5-8.9.1-.3.1-.5.2-.8l2.2 2.6zm4.8 5.7c-.2 1.3-.4 2.5-.5 3.7l-2.6-.7c.2-1.8.5-3.7.9-5.6l2.2 2.6zm-10.3-12.1l.8.9c-.2 1-.5 2-.7 3-.7 3.1-1.2 6-1.5 8.7l-2.6-.7c.3-2.6.8-5.5 1.5-8.5.4-1.7.8-3.4 1.2-5l1.3 1.6zm-3.7-4.5c-.6 2.3-1.2 4.7-1.8 7.2-.6 2.9-1.1 5.8-1.5 8.4l-2.6-.7c.3-2.5.8-5.3 1.4-8.2.7-3.3 1.5-6.4 2.3-9.1l2.2 2.4zm-11.5 13.3c.3-2.4.8-5.1 1.4-7.8.8-3.6 1.7-7.2 2.6-10.1l2.8.2c-1 3-1.9 6.6-2.7 10.4-.6 2.8-1.1 5.5-1.4 8l-2.7-.7zm-5.6-1.5c.3-2.3.8-4.9 1.3-7.5.7-3.3 1.5-6.5 2.4-9.2l2.8.2c-.9 2.8-1.7 6.2-2.5 9.6-.6 2.6-1 5.2-1.4 7.6l-2.6-.7zm-5.5-1.5c.3-2.2.8-4.7 1.3-7.1.6-3 1.4-5.9 2.1-8.4l2.8.2c-.8 2.7-1.6 5.7-2.2 8.8-.5 2.5-1 5-1.3 7.3l-2.7-.8zm-5.6-1.6c.3-2.2.7-4.4 1.2-6.7.6-2.7 1.2-5.2 1.9-7.6l2.8.2c-.7 2.5-1.4 5.2-2 8-.5 2.4-.9 4.7-1.3 6.9l-2.6-.8zm-5.5-1.5c.3-2.1.7-4.2 1.2-6.4.5-2.4 1.1-4.6 1.6-6.8l2.8.2c-.6 2.2-1.2 4.7-1.7 7.1-.5 2.3-.9 4.5-1.2 6.6l-2.7-.7zm-5.6-1.6c.3-1.9.7-4 1.1-6 .4-2.1.9-4.1 1.4-5.9l2.8.2c-.5 2-1.1 4.1-1.5 6.3-.5 2.1-.8 4.2-1.1 6.2l-2.7-.8zm-5.6-1.5c.3-1.8.6-3.7 1.1-5.7.4-1.8.8-3.5 1.2-5.1l2.8.2c-.5 1.8-.9 3.6-1.3 5.5-.4 2-.8 3.9-1.1 5.8l-2.7-.7zm-.8-11c-.4 1.5-.8 3.1-1.1 4.7-.4 1.9-.7 3.7-1 5.5l-2.7-.7c.3-1.7.6-3.5 1-5.3.3-1.5.6-2.9 1-4.3l2.8.1zm-11 13.3c.3-3 .9-6.6 1.7-10.3.7-3.4 1.6-6.7 2.5-9.5l1.8 3.5c-.6 2.1-1.1 4.3-1.6 6.6-.6 2.6-1 5.1-1.4 7.5l-3 2.2zm-5.9 4.3c-.1-2.4.3-7.8 2-15.7 1.7-7.8 3.5-12.9 4.6-15.1l1.6 3.1c-1.2 3.3-2.4 7.8-3.5 12.6-1 4.9-1.8 9.7-2 13.2l-2.7 1.9zm79 10.3c.1-.5.1-.9.2-1.4l.5.6 1.1 1.3-1.8-.5zm48.2-13.4c-18.2 15.5-29.6 23.9-32.6 25.6l-2.5-2.9c1.8-1 4.5-3 9-6.4 6.5-5 14.8-11.8 23.6-19.2.6-.5.7-1.5.2-2.1-.5-.6-1.5-.7-2.1-.2-18.3 15.5-29.6 24-32.6 25.6l-2.5-2.9c1.8-1 4.5-3 9-6.4 6.5-5 14.8-11.8 23.6-19.2.6-.5.7-1.5.2-2.1-.5-.6-1.5-.7-2.1-.2-18.3 15.5-29.6 24-32.6 25.6l-2.5-2.9c1.8-1 4.5-3 9-6.4 6.5-5 14.8-11.8 23.6-19.2.6-.5.7-1.5.2-2.1-.5-.6-1.5-.7-2.1-.2-18.3 15.5-29.6 24-32.6 25.6l-2.5-2.9c1.8-1 4.5-3 9-6.4 6.5-5 14.8-11.8 23.6-19.2.6-.5.7-1.5.2-2.1-.5-.6-1.5-.7-2.1-.2-18.3 15.5-29.6 24-32.6 25.6l-2.2-2.6c-.1-.1-.2-.3-.3-.4 1.8-1 4.5-3 9-6.4 6.5-5 14.8-11.8 23.6-19.2.6-.5.7-1.5.2-2.1-.5-.6-1.5-.7-2.1-.2-18.3 15.5-29.6 24-32.6 25.6l-2.3-2.7c0-.1-.1-.1-.1-.2 1.8-1 4.5-3 8.9-6.4 6.5-5 14.8-11.8 23.6-19.2.6-.5.7-1.5.2-2.1-.5-.6-1.5-.7-2.1-.2C131.3 88.9 120 97.4 117 99l-2.5-2.9c1.8-1 4.5-3 9-6.4 6.5-5 14.8-11.8 23.6-19.2.6-.5.7-1.5.2-2.1-.5-.6-1.5-.7-2.1-.2-18.3 15.5-29.6 24-32.6 25.6l-2.2-2.5c0-.2-.1-.3-.2-.5 1.8-1.1 4.5-3 8.8-6.3 6.5-5 14.8-11.8 23.6-19.2.6-.5.7-1.5.2-2.1-.5-.6-1.5-.7-2.1-.2-18.3 15.5-29.6 24-32.6 25.6l-2.5-2.9c1.8-1 4.5-3 9-6.4 6.5-5 14.8-11.8 23.6-19.2.6-.5.7-1.5.2-2.1-.5-.6-1.5-.7-2.1-.2-18.3 15.5-29.6 24-32.6 25.6l-2.5-2.9c1.8-1 4.5-3 9-6.4 6.5-5 14.8-11.8 23.6-19.2.6-.5.7-1.5.2-2.1-.5-.6-1.5-.7-2.1-.2-18.3 15.5-29.6 24-32.6 25.6l-2.5-2.9c1.8-1 4.5-3 9-6.4 6.5-5 14.8-11.8 23.6-19.2.6-.5.7-1.5.2-2.1-.5-.6-1.5-.7-2.1-.2-18.3 15.5-29.6 24-32.6 25.6l-2.5-2.9c1.8-1 4.5-3 9-6.4 6.5-5 14.8-11.8 23.6-19.2.6-.5.7-1.5.2-2.1-.5-.6-1.5-.7-2.1-.2-18.3 15.5-29.6 24-32.6 25.6L88 64.9c1.8-1 4.5-3 9-6.4 6.5-5 14.8-11.8 23.6-19.2.6-.5.7-1.5.2-2.1-.5-.6-1.5-.7-2.1-.2-18.3 15.5-29.6 24-32.6 25.6l-2.4-2.8c1.8-1 4.5-3 9-6.4 6.5-5 14.8-11.8 23.6-19.2 8.8-7.4 16.9-14.6 22.8-20.1 4.1-3.8 6.5-6.2 7.8-7.8L207 77.2c-2.3 2.4-12.6 12.2-30.8 27.6z"/>
  </svg>
</svg>
