<svg xmlns="http://www.w3.org/2000/svg" version="1.1">
  <symbol id="logo" viewBox="0 0 754.3 151.9" preserveAspectRatio="xMinYMid meet">
    <title>Phenotonic logo</title>
    <desc>Phenotonic logo in black &amp; green.</desc>
    <path fill="#454e3e" d="M36.3 54.7c21 0 32.6 12.4 32.6 38.6S57.2 132 36.3 132c-8 0-15.1-2.6-19-6.9v18.2c0 4.8-3.9 8.7-8.7 8.7-4.8 0-8.7-3.9-8.7-8.7v-79c0-4.8 3.9-8.7 8.7-8.7 4.8 0 8.7 3.9 8.7 8.7 2.5-4 10-9.6 19-9.6zm-2.2 14.8c-11.2 0-17.2 8-17.2 23.9 0 15.7 5.9 23.8 17.2 23.8s17.2-8 17.2-23.8c-.1-15.9-6-23.9-17.2-23.9zm62.3-5.2c3.1-4.7 9.8-9.6 20.6-9.6 21.8 0 27 14 27 28v40.2c0 4.8-3.9 8.4-8.7 8.4-5.1 0-8.7-3.5-8.7-8.4v-37c0-9.2-3.7-15.4-14.1-15.4-12 0-16.1 7.1-16.1 16.5v35.8c0 4.8-3.7 8.4-8.7 8.4-5 0-8.7-3.5-8.7-8.4V43.6c0-4.8 3.9-8.7 8.7-8.7 4.8 0 8.7 3.9 8.7 8.7v20.7zm91.6-9.6c27.1 0 32.1 20.9 32.1 32 0 5.9 0 12.9-9.8 12.9h-39.7c0 11.6 8.2 16.9 18.8 16.9 7.1 0 12-2.4 15.9-5 1.8-1.1 3.1-1.8 5.1-1.8 4.2 0 7.5 3.4 7.5 7.5 0 2.6-1.3 4.7-2.7 5.9-2.7 2.6-11.2 8.8-25.9 8.8-22.3 0-36.1-12-36.1-38.9.1-24.5 13-38.3 34.8-38.3zm-16.8 30.4H203c0-7.9-4.5-15.6-14.9-15.6-9.4 0-16.1 5.3-16.9 15.6zm123.4-2.5v40.2c0 4.8-3.9 8.4-8.7 8.4-5.1 0-8.7-3.5-8.7-8.4V85.9c0-9.2-3.7-15.4-14.1-15.4-12 0-16.1 7.1-16.1 16.5v35.8c0 4.8-3.7 8.4-8.7 8.4-5 0-8.7-3.5-8.7-8.4V64.3c0-4.8 3.9-8.7 8.7-8.7 4.8 0 8.7 3.9 8.7 8.7 3.1-4.7 9.8-9.6 20.6-9.6 21.9 0 27 14 27 27.9zm44.5 49.4c-21.7 0-35.2-12.4-35.2-38.6 0-26.3 13.5-38.7 35.2-38.7 21.7 0 35.2 12.4 35.2 38.7 0 26.2-13.5 38.6-35.2 38.6zm0-62.5c-11.6 0-17.7 8-17.7 23.9 0 15.7 6.1 23.8 17.7 23.8s17.7-8 17.7-23.8c-.1-15.9-6.2-23.9-17.7-23.9zm49-26c0-4.7 3.9-8.5 8.5-8.5 4.7 0 8.5 3.9 8.5 8.5V57h7.2c4 0 7.2 3.2 7.2 7.2s-3.2 7.2-7.2 7.2h-7.2v38.9c0 3.7 3.2 5.8 6.1 5.8 4.2 0 7.5 3.4 7.5 7.5 0 4.2-3.4 7.5-7.5 7.5-14.3 0-23.1-9.2-23.1-21.8V71.4h-3.7c-4 0-7.2-3.2-7.2-7.2s3.2-7.2 7.2-7.2h3.7V43.5zm70.1 88.5c-21.7 0-35.2-12.4-35.2-38.6 0-26.3 13.5-38.7 35.2-38.7 21.7 0 35.2 12.4 35.2 38.7 0 26.2-13.5 38.6-35.2 38.6zm0-62.5c-11.6 0-17.7 8-17.7 23.9 0 15.7 6.1 23.8 17.7 23.8s17.7-8 17.7-23.8c0-15.9-6.1-23.9-17.7-23.9zm110 13.1v40.2c0 4.8-3.9 8.4-8.7 8.4-5.1 0-8.7-3.5-8.7-8.4V85.9c0-9.2-3.7-15.4-14.1-15.4-12 0-16.1 7.1-16.1 16.5v35.8c0 4.8-3.7 8.4-8.7 8.4-5 0-8.7-3.5-8.7-8.4V64.3c0-4.8 3.9-8.7 8.7-8.7 4.8 0 8.7 3.9 8.7 8.7 3.1-4.7 9.8-9.6 20.6-9.6 21.8 0 27 14 27 27.9zm11.1-45.7c0-7.4 3.7-10.6 10.3-10.6 6.7 0 10.4 3.2 10.4 10.6 0 6.3-3.7 10.1-10.4 10.1-6.6 0-10.3-3.9-10.3-10.1zm18.9 85.6c0 4.8-3.9 8.7-8.7 8.7s-8.7-3.9-8.7-8.7V64.3c0-4.8 3.9-8.7 8.7-8.7s8.7 3.9 8.7 8.7v58.2zm44.4-67.8c14.8 0 23.3 7.4 26.2 11.1 1.3 1.8 1.8 3.1 1.8 5 0 4.3-3.4 7.7-7.7 7.7-2.6 0-4.5-1.1-5.9-2.7-2.1-2.2-6.3-6.3-14.3-6.3-11.2 0-17.3 8.7-17.3 23.8 0 15.4 6.1 23.9 17.3 23.9 7.4 0 12.2-3.7 15.9-6.4 1.8-1.3 3.2-1.6 4.8-1.6 4.3 0 7.7 3.4 7.7 7.7 0 2.2-.8 4.2-2.7 5.9-3.7 3.4-12.5 9.2-25.7 9.2-21.8 0-34.9-12.5-34.9-38.7s13-38.6 34.8-38.6z" id="phenotonic_short_1_"/>
    <g fill="#4daa50">
      <path d="M692.6 33.9c-.1 0-.2 0-.3-.1.1.1.2.1.3.1zm.1 10.9c-.1 0-.3.1-.4.1.1-.1.2-.1.4-.1z"/>
      <path d="M702.8 40.1c-2.7 2.2-6.1 3.7-10.1 4.6-.1 0-.3.1-.4.1-.4 0-.7-.2-.8-.8-.2.3-1.2.9-2.1 1.3-.5.2-1 .3-1.2.1 0 0-.1-.1-.1-.2l.3-.9c-1.2.7-3.5 2.2-2.9-.2-.4.5-1.5 1.2-2.3 1.4-.3.1-.6.1-.7 0-.2-.2-.2-.5.2-1.3-.6.3-1.9 1-2.8 1.1-.3.1-.6 0-.7-.1-.2-.2-.2-.6.2-1.3-1.3.6-4.4 2-2.9-.6-1.2.3-5.2 1.5-3-.8-.9.2-4.7.9-3.5-.8-.3.1-3-.1-3-.7.1-.2.3-.3.5-.4-.6-.1-4.2-.8-4.2-1.4 0-.6 3.7-1.3 4.2-1.4-.2-.1-.4-.2-.5-.4 0-.6 2.6-.9 3-.7-1.2-1.7 2.6-.9 3.5-.8-2.2-2.3 1.9-1.1 3-.8-1.5-2.6 1.6-1.1 2.9-.6-.4-.8-.4-1.2-.2-1.3.1-.1.4-.1.7-.1.8.1 2.2.8 2.8 1.2-.4-.8-.4-1.2-.1-1.3.1-.1.4-.1.6 0 .8.2 1.9.8 2.3 1.4 0-.1-.3-1.4 0-1.3 1 .4 1.8.6 2.8 1.1-.1-.3-.3-.6-.3-.9 0-.1 0-.1.1-.2.2-.2.6-.1 1.1.1.9.4 1.9 1 2.1 1.3.1-.7.4-.9.8-.8.1 0 .2 0 .3.1 4 .9 7.5 2.5 10.2 4.6.7.6.7 1.3.2 1.7zm3.7 5c.5 3.4.2 7.2-1.1 11.1 0 .1-.1.2-.1.4-.2.4-.5.5-1.1.2.2.3.2 1.5.1 2.4-.1.6-.2 1-.5 1.1h-.2c-.2-.2-.4-.4-.6-.7 0 1.3.2 4.1-1.6 2.4.2.7.3 1.9.1 2.7-.1.3-.2.5-.4.6-.3.1-.6-.1-1.1-.8 0 .7-.1 2.2-.4 3-.1.3-.2.5-.4.6-.3.1-.6-.1-1-.9-.2 1.5-.5 4.8-1.9 2.2-.3 1.2-1.3 5.2-2.2 2.2-.3.8-1.6 4.5-2.4 2.6-.1.3-1.6 2.5-2.1 2.2-.1-.2-.1-.4-.1-.6-.4.5-2.8 3.2-3.3 2.9-.5-.3.7-3.8.9-4.3-.2.1-.4.2-.6.2-.5-.3.5-2.7.9-2.9-2.1.2.5-2.7 1-3.4-3.1.7 0-2.2.8-3-3 0-.2-2 1-2.8-.9 0-1.2-.2-1.3-.5 0-.2.1-.4.3-.6.6-.7 1.8-1.4 2.4-1.8-.9 0-1.2-.3-1.2-.6 0-.2.1-.4.3-.6.5-.6 1.7-1.2 2.4-1.3-.1 0-1.4-.4-1.2-.7.8-.7 1.4-1.3 2.4-1.9-.3 0-.6-.1-.9-.1-.1-.1-.1-.1-.1-.2 0-.2.3-.6.7-.9.7-.6 1.9-1.2 2.2-1.2-.6-.4-.6-.8-.3-1.1l.2-.2c2.8-3.1 5.9-5.2 9.1-6.5.6-.2 1.2.1 1.3.8zm6.2-.8c3.2 1.2 6.3 3.4 9.1 6.5l.3.3c.2.3.2.7-.3 1.1.3 0 1.4.6 2.2 1.1.4.3.8.7.7 1 0 .1-.1.1-.1.2-.3.1-.6.1-.9.1 1.2.7 3.6 1.9 1.3 2.6.7.1 1.8.7 2.3 1.3.2.2.4.4.3.6 0 .3-.4.5-1.2.5.6.4 1.8 1.2 2.4 1.8.2.2.3.5.3.6 0 .3-.4.4-1.3.5 1.2.9 3.9 2.8 1 2.8.9.9 3.9 3.7.8 3 .6.7 3.1 3.6 1 3.4.3.2 1.4 2.6.9 2.9-.2 0-.4-.1-.6-.2.2.5 1.4 4 .9 4.3-.5.3-3-2.5-3.3-2.9 0 .2 0 .4-.1.6-.5.3-2.1-1.8-2.1-2.2-.8 1.9-2.1-1.8-2.4-2.6-.9 3-1.9-1-2.2-2.2-1.5 2.6-1.8-.8-1.9-2.2-.5.7-.8 1-1.1.9-.2-.1-.3-.3-.4-.5-.3-.8-.4-2.3-.4-3-.5.8-.8.9-1.1.8-.1-.1-.3-.3-.3-.5-.2-.8-.2-2 0-2.7-.1.1-1.1 1-1.2.7-.2-1.1-.4-1.9-.4-3-.2.3-.4.5-.6.7h-.2c-.2-.1-.4-.5-.5-1.1-.1-.9-.1-2.2.1-2.5-.6.3-.9.1-1.1-.3 0-.1-.1-.2-.1-.3-1.2-3.9-1.6-7.7-1.1-11.1 0-.9.7-1.2 1.3-1zm2.4-5.7c2.7-2.2 6.1-3.7 10.1-4.6.1 0 .3-.1.4-.1.4 0 .7.2.8.8.2-.3 1.2-.9 2.1-1.3.5-.2 1-.3 1.2-.1 0 0 .1.1.1.2l-.3.9c1.2-.7 3.5-2.2 2.9.2.4-.5 1.5-1.2 2.3-1.4.3-.1.6-.1.7 0 .2.2.2.5-.2 1.3.6-.3 1.9-1 2.8-1.1.3-.1.6 0 .7.1.2.2.2.6-.2 1.3 1.3-.6 4.4-2 2.9.6 1.2-.3 5.2-1.5 3 .8.9-.2 4.7-.9 3.5.8.3-.1 3 .1 3 .7-.1.2-.3.3-.5.4.6.1 4.2.8 4.2 1.4 0 .6-3.7 1.3-4.2 1.4.2.1.4.2.5.4 0 .6-2.6.9-3 .7 1.2 1.7-2.6.9-3.5.8 2.2 2.3-1.9 1.1-3 .8 1.5 2.6-1.6 1.1-2.9.6.4.8.4 1.2.2 1.3-.1.1-.4.1-.7.1-.8-.1-2.2-.8-2.8-1.2.4.8.4 1.2.1 1.3-.1.1-.4.1-.6 0-.8-.2-1.9-.8-2.3-1.4 0 .1.3 1.4 0 1.3-1-.4-1.8-.6-2.8-1.1.1.3.3.6.3.9 0 .1 0 .1-.1.2-.2.2-.6.1-1.1-.1-.9-.4-1.9-1-2.1-1.3-.1.7-.4.9-.8.8-.1 0-.2 0-.3-.1-4-.9-7.5-2.5-10.2-4.6-.7-.6-.7-1.3-.2-1.7zm-3.8-4.9c-.5-3.4-.2-7.2 1.1-11.1 0-.1.1-.2.1-.4.2-.4.5-.5 1.1-.2-.2-.3-.2-1.5-.1-2.4.1-.6.2-1 .5-1.1h.2c.2.2.4.4.6.7 0-1.3-.2-4.1 1.6-2.4-.2-.7-.3-1.9-.1-2.7.1-.3.2-.5.4-.6.3-.1.6.1 1.1.8 0-.7.1-2.2.4-3 .1-.3.2-.5.4-.6.3-.1.6.1 1 .9.2-1.5.5-4.8 1.9-2.2.3-1.2 1.3-5.2 2.2-2.2.3-.8 1.6-4.5 2.4-2.6.1-.3 1.6-2.5 2.1-2.2.1.2.1.4.1.6.4-.5 2.8-3.2 3.3-2.9.5.3-.7 3.8-.9 4.3.2-.1.4-.2.6-.2.5.3-.5 2.7-.9 2.9 2.1-.2-.5 2.7-1 3.4 3.1-.7 0 2.2-.8 3 3 0 .2 2-1 2.8.9 0 1.2.2 1.3.5 0 .2-.1.4-.3.6-.6.7-1.8 1.4-2.4 1.8.9 0 1.2.3 1.2.6 0 .2-.1.4-.3.6-.5.6-1.7 1.2-2.4 1.3.1 0 1.4.4 1.2.7-.8.7-1.4 1.3-2.4 1.9.3 0 .6.1.9.1.1.1.1.1.1.2 0 .2-.3.6-.7.9-.7.6-1.9 1.2-2.2 1.2.6.4.6.8.3 1.1l-.2.2c-2.8 3.1-5.9 5.2-9.1 6.5-.5.2-1.2-.2-1.3-.8zm-6.1.7c-3.2-1.2-6.3-3.4-9.1-6.5l-.3-.3c-.2-.3-.2-.7.3-1.1-.3 0-1.4-.6-2.2-1.1-.4-.3-.8-.7-.7-1 0-.1.1-.1.1-.2.3-.1.6-.1.9-.1-1.2-.7-3.6-1.9-1.3-2.6-.7-.1-1.8-.7-2.3-1.3-.2-.2-.4-.4-.3-.6 0-.3.4-.5 1.2-.5-.6-.4-1.8-1.2-2.4-1.8-.2-.2-.3-.5-.3-.6 0-.3.4-.4 1.3-.5-1.2-.9-3.9-2.8-1-2.8-.9-.9-3.9-3.7-.8-3-.6-.7-3.1-3.6-1-3.4-.3-.2-1.4-2.6-.9-2.9.2 0 .4.1.6.2-.2-.5-1.4-4-.9-4.3.5-.3 3 2.5 3.3 2.9 0-.2 0-.4.1-.6.5-.3 2.1 1.8 2.1 2.2.8-1.9 2.1 1.8 2.4 2.6.9-3 1.9 1 2.2 2.2 1.5-2.6 1.8.8 1.9 2.2.5-.7.8-1 1.1-.9.2.1.3.3.4.5.3.8.4 2.3.4 3 .5-.8.8-.9 1.1-.8.1.1.3.3.3.5.2.8.2 2 0 2.7.1-.1 1.1-1 1.2-.7.2 1.1.4 1.9.4 3 .2-.3.4-.5.6-.7h.2c.2.1.4.5.5 1.1.1.9.1 2.2-.1 2.5.6-.3.9-.1 1.1.3 0 .1.1.2.1.3 1.2 3.9 1.6 7.7 1.1 11.1-.1.9-.7 1.3-1.3 1z"/>
    </g>
  </symbol>
  <symbol id="cart-icon" viewBox="0 0 24 24" preserveAspectRatio="xMinYMid meet">
    <title>Shopping Cart</title>
    <path d="M7 18c-1.1 0-1.99.9-1.99 2S5.9 22 7 22s2-.9 2-2-.9-2-2-2zM1 2v2h2l3.6 7.59-1.35 2.45c-.16.28-.25.61-.25.96 0 1.1.9 2 2 2h12v-2H7.42c-.14 0-.25-.11-.25-.25l.03-.12.9-1.63h7.45c.75 0 1.41-.41 1.75-1.03l3.58-6.49c.08-.14.12-.31.12-.48 0-.55-.45-1-1-1H5.21l-.94-2H1zm16 16c-1.1 0-1.99.9-1.99 2s.89 2 1.99 2 2-.9 2-2-.9-2-2-2z"/>
  </symbol>
  <symbol id="menu-icon" viewBox="0 0 24 24" preserveAspectRatio="xMinYMid meet">
    <title>Menu Icon</title>
    <path d="M3 18h18v-2H3v2zm0-5h18v-2H3v2zm0-7v2h18V6H3z"/>
  </symbol>
</svg>
