<svg xmlns="http://www.w3.org/2000/svg" width="91.4" height="230.9" viewBox="0 0 91.4 230.9" preserveAspectRatio="xMidYMid meet" role="img" title="Bag Outputting CO2">
  <style>
    .bag-co2--st0{fill:none;stroke:#2d2926;stroke-width:3;stroke-linecap:round;stroke-linejoin:round;stroke-miterlimit:10;} .bag-co2--st1{fill:none;stroke:#2d2926;stroke-width:3;stroke-linecap:round;stroke-linejoin:round;stroke-miterlimit:10;stroke-dasharray:7;}
  </style>
  <line class="bag-co2--st0" x1="80.5" y1="43.4" x2="69.3" y2="45.7"/>
  <line class="bag-co2--st0" x1="15" y1="56.9" x2="1.5" y2="59.6"/>
  <path class="bag-co2--st0" d="M5.5 58.8S1 9.8 39.1 2.1C73.1-4.8 76 44.3 76 44.3"/>
  <polygon class="bag-co2--st0" points="83.5,130.8 20.2,145.9 6.2,132.6 15,56.9 15,56.8 15.4,53.1 16.6,56.5 18.4,61.6 69.4,51.1"/>
  <path class="bag-co2--st0" d="M50.4 66.5l-5.7 1.2c-2 .4-3.9-.9-4.3-2.9-.4-2 .9-3.9 2.9-4.3l5.7-1.2c2-.4 3.9.9 4.3 2.9.3 1.9-1 3.9-2.9 4.3z"/>
  <polyline class="bag-co2--st0" points="6.8,127.4 19.8,139.6 82.4,124.7"/>
  <polyline class="bag-co2--st0" points="7.4,122.1 19.4,133.4 81.4,118.6"/>
  <polyline class="bag-co2--st0" points="8.1,116.8 19,127.2 80.3,112.6"/>
  <polyline class="bag-co2--st0" points="8.7,111.6 18.7,121 79.2,106.5"/>
  <line class="bag-co2--st0" x1="8.7" y1="111.6" x2="18.7" y2="121"/>
  <line class="bag-co2--st0" x1="9.3" y1="106.5" x2="18.3" y2="115"/>
  <line class="bag-co2--st0" x1="9.9" y1="101.4" x2="18" y2="109"/>
  <line class="bag-co2--st0" x1="10.5" y1="96.3" x2="17.6" y2="102.9"/>
  <line class="bag-co2--st0" x1="11.1" y1="91.2" x2="17.2" y2="96.9"/>
  <line class="bag-co2--st0" x1="11.7" y1="86" x2="16.9" y2="90.9"/>
  <line class="bag-co2--st0" x1="12.3" y1="80.9" x2="16.5" y2="84.9"/>
  <line class="bag-co2--st0" x1="13" y1="75.8" x2="16.2" y2="78.8"/>
  <line class="bag-co2--st0" x1="13" y1="75.8" x2="16.2" y2="78.8"/>
  <line class="bag-co2--st0" x1="13.6" y1="70.6" x2="15.8" y2="72.6"/>
  <path class="bag-co2--st0" d="M71.1 50.8l-1.7.3-51 10.5-1.8-5.1-1.2-3.5 15.3-3.2c.1.1.2.1.2.2.9.9 1.2 2.2.8 3.3-.2.5-.4.9-.8 1.3l29.1-6c.4-.4.6-.8.8-1.2.4-1.1.1-2.5-.8-3.4 0 0-.1 0-.1-.1l8.2-1.7 1.2 3.5 1.8 5.1z"/>
  <g>
    <path class="bag-co2--st0" d="M48.8 15.5H31.3c-3.5 0-6.3-2.8-6.3-6.3s2.8-6.3 6.3-6.3h17.5c3.5 0 6.3 2.8 6.3 6.3 0 3.4-2.9 6.3-6.3 6.3z"/>
    <circle class="bag-co2--st0" cx="48.8" cy="9.2" r="6.3"/>
    <path class="bag-co2--st0" d="M42.9 2.9c-3.5 0-6.3 2.8-6.3 6.3s2.8 6.3 6.3 6.3"/>
    <path class="bag-co2--st0" d="M37.1 2.9c-3.5 0-6.3 2.8-6.3 6.3s2.8 6.3 6.3 6.3"/>
  </g>
  <path class="bag-co2--st0" d="M26.4 50.1c.4-.4 1-.7 1.5-.8L26 50.6c.1-.2.2-.3.4-.5zm33.7-6c-.1-.1-.2-.1-.2-.2-.8-.7-1.7-.9-2.7-.8l-29.3 6.1c1-.2 2 0 2.9.6.1.1.2.1.2.2.9.9 1.2 2.2.8 3.3-.2.5-.4.9-.8 1.3l29.1-6c.4-.4.6-.8.8-1.2.3-1.1.1-2.4-.8-3.3z"/>
  <g>
    <path class="bag-co2--st1" d="M83 226.4v-67.9M53.3 226.4v-67.9M22.7 226.4v-67.9"/>
    <polyline class="bag-co2--st0" points="15.8,223.4 22.7,229.4 29.7,223.4"/>
    <polyline class="bag-co2--st0" points="46.3,223.4 53.3,229.4 60.3,223.4"/>
    <polyline class="bag-co2--st0" points="76,223.4 83,229.4 89.9,223.4"/>
  </g>
</svg>
