<svg xmlns="http://www.w3.org/2000/svg" width="545.3" height="212.7" viewBox="0 0 545.3 212.7" preserveAspectRatio="xMidYMid meet" role="img" title="Instructions">
  <style>
    .instructions--st0{fill:none;stroke:#2d2926;stroke-width:3;stroke-linecap:round;stroke-linejoin:round;stroke-miterlimit:10;} .instructions--st1{fill:#2d2926;}
  </style>
  <polygon class="instructions--st0" points="35.9,86 36,99.7 30.2,86.3 21.6,66.7 15.5,66.2 18.8,38 19.2,24.1 63.3,15.9 63.7,29 67.1,48.1 34.7,56.4 35.6,64.9"/>
  <path class="instructions--st0" d="M48.5 46.1l-4.8 1c-1.7.3-3.3-.7-3.6-2.4-.3-1.7.7-3.3 2.4-3.6l4.8-1c1.7-.3 3.3.7 3.6 2.4.3 1.6-.8 3.3-2.4 3.6z"/>
  <line class="instructions--st0" x1="16" y1="62.6" x2="20.4" y2="66.6"/>
  <line class="instructions--st0" x1="16.6" y1="58.3" x2="20.1" y2="61.6"/>
  <line class="instructions--st0" x1="17.1" y1="54" x2="19.8" y2="56.5"/>
  <line class="instructions--st0" x1="17.1" y1="54" x2="19.8" y2="56.5"/>
  <line class="instructions--st0" x1="17.6" y1="49.6" x2="19.4" y2="51.3"/>
  <polygon class="instructions--st0" points="94.2,82.7 94.2,128.8 36,145.9 1.5,134 1.5,87.9 1.9,87.9 1.5,87.7 14.4,66.1 15.5,66.2 21.6,66.7 30.2,86.3 36,99.7 74.2,88.4 93.5,82.8"/>
  <polygon class="instructions--st0" points="75,53.8 68.4,55.7 35.6,64.9 34.7,56.4 67.1,48.1 74.1,46.3"/>
  <polygon class="instructions--st0" points="94.2,82.6 93.5,82.8 74.2,88.4 36,99.7 35.9,86 35.6,64.9 68.4,55.7 75,53.8"/>
  <line class="instructions--st0" x1="36" y1="105.6" x2="1.5" y2="93.7"/>
  <line class="instructions--st0" x1="36" y1="111.4" x2="1.5" y2="99.4"/>
  <line class="instructions--st0" x1="36" y1="117.2" x2="1.5" y2="105.2"/>
  <line class="instructions--st0" x1="33.3" y1="93.3" x2="4.2" y2="83.3"/>
  <line class="instructions--st0" x1="30.4" y1="86.8" x2="6.9" y2="78.7"/>
  <line class="instructions--st0" x1="27.5" y1="80.2" x2="9.7" y2="74.1"/>
  <line class="instructions--st0" x1="24.7" y1="73.7" x2="12.4" y2="69.5"/>
  <line class="instructions--st0" x1="36" y1="99.9" x2="1.5" y2="87.9"/>
  <polyline class="instructions--st0" points="94.2,106.6 36,122.9 1.5,111"/>
  <polyline class="instructions--st0" points="94.2,112.4 36,128.7 1.5,116.7"/>
  <polyline class="instructions--st0" points="94.2,118.1 36,134.5 1.5,122.5"/>
  <polyline class="instructions--st0" points="94.2,123.6 36,140.2 1.5,128.3"/>
  <g>
    <line class="instructions--st0" x1="42.7" y1="14.5" x2="42.7" y2="1.5"/>
    <polyline class="instructions--st0" points="48.3,6.4 42.7,1.5 37,6.4"/>
  </g>
  <g>
    <line class="instructions--st0" x1="192" y1="28.7" x2="192" y2="15.8"/>
    <polyline class="instructions--st0" points="197.6,20.7 192,15.8 186.3,20.7"/>
    <line class="instructions--st0" x1="169.6" y1="145.9" x2="233" y2="130.8"/>
    <polyline class="instructions--st0" points="169.6,145.9 233,130.8 218,46 217.4,30.4 164.9,40.3 164.4,56.8"/>
    <polyline class="instructions--st0" points="164.4,56.8 155.6,132.6 169.6,145.9"/>
    <path class="instructions--st0" d="M199.8 66.5l-5.7 1.2c-2 .4-3.9-.9-4.3-2.9-.4-2 .9-3.9 2.9-4.3l5.7-1.2c2-.4 3.9.9 4.3 2.9.4 1.9-.9 3.9-2.9 4.3z"/>
    <g>
      <polyline class="instructions--st0" points="156.2,127.4 169.2,139.6 231.9,124.7"/>
      <polyline class="instructions--st0" points="156.9,122.1 168.9,133.4 230.8,118.6"/>
      <polyline class="instructions--st0" points="157.5,116.8 168.5,127.2 229.7,112.6"/>
      <polyline class="instructions--st0" points="158.1,111.6 168.1,121 228.7,106.5"/>
      <line class="instructions--st0" x1="158.1" y1="111.6" x2="168.1" y2="121"/>
      <line class="instructions--st0" x1="158.7" y1="106.5" x2="167.8" y2="115"/>
      <line class="instructions--st0" x1="159.4" y1="101.4" x2="167.4" y2="109"/>
      <line class="instructions--st0" x1="160" y1="96.3" x2="167.1" y2="102.9"/>
      <line class="instructions--st0" x1="160.6" y1="91.2" x2="166.7" y2="96.9"/>
      <line class="instructions--st0" x1="161.2" y1="86" x2="166.3" y2="90.9"/>
      <line class="instructions--st0" x1="161.8" y1="80.9" x2="166" y2="84.9"/>
      <line class="instructions--st0" x1="162.4" y1="75.8" x2="165.6" y2="78.8"/>
      <line class="instructions--st0" x1="162.4" y1="75.8" x2="165.6" y2="78.8"/>
      <line class="instructions--st0" x1="163" y1="70.6" x2="165.2" y2="72.6"/>
    </g>
    <g>
      <polyline class="instructions--st0" points="236.9,45.7 243.2,49.6 248,43.9"/>
      <path class="instructions--st0" d="M230.8 37.2c6.9 0 12.4 5.6 12.4 12.4"/>
    </g>
    <g>
      <line class="instructions--st0" x1="151" y1="59.6" x2="229.9" y2="43.4"/>
      <path class="instructions--st0" d="M155 58.8s-4.5-49 33.6-56.7c34-6.9 36.9 42.2 36.9 42.2"/>
    </g>
  </g>
  <g>
    <line class="instructions--st0" x1="349.6" y1="11.9" x2="349.6" y2="24.8"/>
    <polyline class="instructions--st0" points="344,19.9 349.6,24.8 355.3,19.9"/>
    <line class="instructions--st0" x1="389.1" y1="43.5" x2="378" y2="45.8"/>
    <line class="instructions--st0" x1="323.6" y1="57" x2="310.1" y2="59.8"/>
    <path class="instructions--st0" d="M314.2 59s-4.5-49 33.6-56.7c34-6.9 36.9 42.2 36.9 42.2"/>
    <g>
      <polygon class="instructions--st0" points="392.1,130.9 328.8,146 314.8,132.8 323.6,57 323.6,56.9 324,53.2 325.3,56.7 327,61.8 378,51.2"/>
      <path class="instructions--st0" d="M359 66.6l-5.7 1.2c-2 .4-3.9-.9-4.3-2.9-.4-2 .9-3.9 2.9-4.3l5.7-1.2c2-.4 3.9.9 4.3 2.9.4 2-.9 3.9-2.9 4.3z"/>
      <polyline class="instructions--st0" points="315.4,127.5 328.4,139.8 391.1,124.8"/>
      <polyline class="instructions--st0" points="316.1,122.3 328.1,133.5 390,118.8"/>
      <polyline class="instructions--st0" points="316.7,117 327.7,127.4 388.9,112.7"/>
      <polyline class="instructions--st0" points="317.3,111.7 327.3,121.2 387.9,106.7"/>
      <line class="instructions--st0" x1="317.3" y1="111.7" x2="327.3" y2="121.2"/>
      <line class="instructions--st0" x1="317.9" y1="106.6" x2="327" y2="115.1"/>
      <line class="instructions--st0" x1="318.5" y1="101.5" x2="326.6" y2="109.1"/>
      <line class="instructions--st0" x1="319.2" y1="96.4" x2="326.2" y2="103.1"/>
      <line class="instructions--st0" x1="319.8" y1="91.3" x2="325.9" y2="97"/>
      <line class="instructions--st0" x1="320.4" y1="86.2" x2="325.5" y2="91"/>
      <line class="instructions--st0" x1="321" y1="81.1" x2="325.2" y2="85"/>
      <line class="instructions--st0" x1="321.6" y1="76" x2="324.8" y2="79"/>
      <line class="instructions--st0" x1="321.6" y1="76" x2="324.8" y2="79"/>
      <line class="instructions--st0" x1="322.2" y1="70.7" x2="324.4" y2="72.7"/>
      <polygon class="instructions--st0" points="379.7,50.9 378,51.2 327,61.8 325.3,56.7 324,53.2 376.7,42.3 378,45.8"/>
    </g>
    <path class="instructions--st0" d="M333.2 41.9c-1.3-1.3-1.3-3.3 0-4.6 1.3-1.3 3.3-1.3 4.6 0 1.3 1.3 1.3 3.3 0 4.6l29.1-6.1c1.3-1.3 1.3-3.3 0-4.6-.8-.8-1.8-1.1-2.9-.9l-29.3 6.1"/>
  </g>
  <g>
    <line class="instructions--st0" x1="540.8" y1="43.5" x2="529.6" y2="45.8"/>
    <line class="instructions--st0" x1="475.3" y1="57" x2="461.8" y2="59.8"/>
    <path class="instructions--st0" d="M465.8 59s-4.5-49 33.6-56.7c34-6.9 36.9 42.2 36.9 42.2"/>
    <polygon class="instructions--st0" points="543.8,130.9 480.5,146 466.5,132.8 475.3,57 475.3,56.9 475.7,53.2 476.9,56.7 478.7,61.8 529.7,51.2"/>
    <path class="instructions--st0" d="M510.7 66.6l-5.7 1.2c-2 .4-3.9-.9-4.3-2.9-.4-2 .9-3.9 2.9-4.3l5.7-1.2c2-.4 3.9.9 4.3 2.9.3 2-1 3.9-2.9 4.3z"/>
    <polyline class="instructions--st0" points="467.1,127.5 480.1,139.8 542.7,124.8"/>
    <polyline class="instructions--st0" points="467.7,122.3 479.7,133.5 541.7,118.8"/>
    <polyline class="instructions--st0" points="468.4,117 479.4,127.4 540.6,112.7"/>
    <polyline class="instructions--st0" points="469,111.7 479,121.2 539.5,106.7"/>
    <line class="instructions--st0" x1="469" y1="111.7" x2="479" y2="121.2"/>
    <line class="instructions--st0" x1="469.6" y1="106.6" x2="478.6" y2="115.1"/>
    <line class="instructions--st0" x1="470.2" y1="101.5" x2="478.3" y2="109.1"/>
    <line class="instructions--st0" x1="470.8" y1="96.4" x2="477.9" y2="103.1"/>
    <line class="instructions--st0" x1="471.4" y1="91.3" x2="477.5" y2="97"/>
    <line class="instructions--st0" x1="472" y1="86.2" x2="477.2" y2="91"/>
    <line class="instructions--st0" x1="472.6" y1="81.1" x2="476.8" y2="85"/>
    <line class="instructions--st0" x1="473.3" y1="76" x2="476.5" y2="79"/>
    <line class="instructions--st0" x1="473.3" y1="76" x2="476.5" y2="79"/>
    <line class="instructions--st0" x1="473.9" y1="70.7" x2="476.1" y2="72.7"/>
    <path class="instructions--st0" d="M531.4 50.9l-1.7.3-51 10.5-1.8-5.1-1.2-3.5L491 50c.1.1.2.1.2.2.9.9 1.2 2.2.8 3.3-.2.5-.4.9-.8 1.3l29.1-6c.4-.4.6-.8.8-1.2.4-1.1.1-2.5-.8-3.4l-.2-.2 8.2-1.7 1.2 3.5 1.9 5.1z"/>
    <g>
      <path class="instructions--st0" d="M509.1 15.6h-17.5c-3.5 0-6.3-2.8-6.3-6.3s2.8-6.3 6.3-6.3h17.5c3.5 0 6.3 2.8 6.3 6.3s-2.9 6.3-6.3 6.3z"/>
      <circle class="instructions--st0" cx="509.1" cy="9.3" r="6.3"/>
      <path class="instructions--st0" d="M503.2 3c-3.5 0-6.3 2.8-6.3 6.3s2.8 6.3 6.3 6.3"/>
      <path class="instructions--st0" d="M497.4 3c-3.5 0-6.3 2.8-6.3 6.3s2.8 6.3 6.3 6.3"/>
    </g>
    <path class="instructions--st0" d="M486.7 50.3c.4-.4 1-.7 1.5-.8l-1.9 1.3c.1-.2.2-.4.4-.5zm33.7-6.1l-.2-.2c-.8-.7-1.7-.9-2.7-.8l-29.3 6.1c1-.2 2 0 2.9.6.1.1.2.1.2.2.9.9 1.2 2.2.8 3.3-.2.5-.4.9-.8 1.3l29.1-6c.4-.4.6-.8.8-1.2.3-1.1.1-2.4-.8-3.3z"/>
  </g>
  <circle class="instructions--st0" cx="42.7" cy="194.9" r="16.3"/>
  <circle class="instructions--st0" cx="199.5" cy="194.9" r="16.3"/>
  <circle class="instructions--st0" cx="356.4" cy="194.9" r="16.3"/>
  <circle class="instructions--st0" cx="513.3" cy="194.9" r="16.3"/>
  <g>
    <path class="instructions--st1" d="M44.5 201.5h-2.7V193l-1.1.3-.6-2.3 2.2-.7h2.2v11.2z"/>
  </g>
  <g>
    <path class="instructions--st1" d="M195.7 201.5v-1c0-3.2 4.8-5.2 4.8-6.9 0-.7-.4-1.1-1.1-1.1-.7 0-1.2.5-1.3 1.1l-2.4-.7c.3-1.2 1.3-2.9 3.8-2.9 2.2 0 3.8 1.3 3.8 3.5 0 2.8-3.8 4.1-4.3 5.6h4.4v2.4h-7.7z"/>
  </g>
  <g>
    <path class="instructions--st1" d="M352.5 198.8l2.4-.7c.2.6.7 1.1 1.4 1.1.8 0 1.2-.5 1.2-1.2 0-.6-.4-1.2-1.3-1.2h-1.6v-2.1l2-2.1H353v-2.4h6.8v2.4l-2 1.9c1.3.3 2.5 1.1 2.5 3.3 0 2.3-1.7 3.8-3.9 3.8-2.6.1-3.6-1.6-3.9-2.8z"/>
  </g>
  <g>
    <path class="instructions--st1" d="M516.4 199v2.5h-2.7V199h-4.9v-2l4.4-6.8h3.2v6.4h1.2v2.3h-1.2zm-4.8-2.3h2.1v-3.5l-2.1 3.5z"/>
  </g>
</svg>
