<svg xmlns="http://www.w3.org/2000/svg" width="153.8" height="147.5" viewBox="0 0 153.8 147.5" preserveAspectRatio="xMidYMid meet" role="img" title="Mushroom">
  <style>
    .mushroom--st0{fill:none;stroke:#2d2926;stroke-width:3;stroke-linecap:round;stroke-linejoin:round;stroke-miterlimit:10;}
  </style>
  <path class="mushroom--st0" d="M50.9 114.2l-8 12.7-8-12.7-8 12.7-8-12.7-8 12.7M142.8 126.9l-8.1-12.7-8 12.7-8-12.7-8 12.7-8-12.7M102.4 76.9v58l-.9-1.6-8 12.7-8-12.7-8 12.7-8.1-12.7-8 12.7-8-12.7-2.1 3.3V76.9M152.3 76.9H1.5c0-41.6 33.8-75.4 75.4-75.4s75.4 33.7 75.4 75.4zM55.2 7.8h-8.5M55.5 14.1H35.1M56.6 20.4H26.9M58.6 26.7h-38M59.4 33H15.6M60.7 39.3H11.5M64.1 45.6H8.3M67.1 52H5.7M71.7 58.3H3.8M102.4 64.6H2.5M131.1 70.9H1.7M90.7 83.5H51.3M81.2 89.8H51.3M71.7 96.1H51.3M71.7 102.4H51.3M71.7 108.7H51.3M71.7 115H51.3M71.7 121.3H51.3M71.7 127.6H51.3M71.7 134H51.3M65.1 140.3h-7.3M29.4 146l8-12.7 8 12.7 5.9-9.4M102.4 134.9l7.1 11.1 8-12.7 8 12.7"/>
</svg>
