<svg xmlns="http://www.w3.org/2000/svg" width="153.2" height="147.2" viewBox="0 0 153.2 147.2" preserveAspectRatio="xMidYMid meet" role="img" title="Recycle">
  <style>
    .recycle--st0{fill:none;stroke:#2d2926;stroke-width:3;stroke-linecap:round;stroke-linejoin:round;stroke-miterlimit:10;}
  </style>
  <polygon class="recycle--st0" points="27.1,72.2 27.1,72.3 25.7,74.6 23.2,79.1 20.6,83.6 20.5,83.5 23.1,79.1 25.7,74.6"/>
  <polygon class="recycle--st0" points="79.7,42.3 79.6,42.5 78.1,45.1 75.5,49.6 72.9,54.1 70.3,58.5 67.7,63 65.1,67.5 62.6,72 60,76.5 58.1,79.7 56.7,74.6 54.8,67.5 53,60.5 52.5,58.8 50.9,59.3 43.8,61.2 36.8,63.1 31.5,64.5 33.5,61.2 36.1,56.7 38.6,52.2 41.2,47.7 43.8,43.2 46.4,38.8 49,34.3 51.6,29.8 54.2,25.3 56.7,20.8 59.3,16.4 61.9,11.9"/>
  <line class="recycle--st0" x1="43.8" y1="61.2" x2="36" y2="56.7"/>
  <line class="recycle--st0" x1="62.6" y1="72" x2="54.8" y2="67.5"/>
  <line class="recycle--st0" x1="36.8" y1="63.1" x2="33.5" y2="61.2"/>
  <line class="recycle--st0" x1="60" y1="76.5" x2="56.7" y2="74.6"/>
  <line class="recycle--st0" x1="25.7" y1="74.6" x2="25.7" y2="74.6"/>
  <line class="recycle--st0" x1="23.2" y1="79.1" x2="23.1" y2="79.1"/>
  <line class="recycle--st0" x1="50.9" y1="59.3" x2="38.6" y2="52.2"/>
  <line class="recycle--st0" x1="65.1" y1="67.5" x2="53" y2="60.5"/>
  <line class="recycle--st0" x1="67.7" y1="63" x2="41.2" y2="47.7"/>
  <line class="recycle--st0" x1="70.3" y1="58.5" x2="43.8" y2="43.2"/>
  <line class="recycle--st0" x1="72.9" y1="54.1" x2="46.4" y2="38.8"/>
  <line class="recycle--st0" x1="75.5" y1="49.6" x2="49" y2="34.3"/>
  <line class="recycle--st0" x1="78.1" y1="45.1" x2="51.6" y2="29.8"/>
  <line class="recycle--st0" x1="76.9" y1="38.5" x2="54.2" y2="25.3"/>
  <line class="recycle--st0" x1="71.7" y1="29.5" x2="56.7" y2="20.8"/>
  <line class="recycle--st0" x1="66.8" y1="20.7" x2="59.3" y2="16.4"/>
  <polygon class="recycle--st0" points="85.9,136.8 25.2,136.8 42.6,106.2 85.8,106.2 82.1,110 76.9,115.1 71.7,120.3 70.5,121.5 71.7,122.7 76.9,127.8 82.1,133"/>
  <rect x="94.9" y="136.8" class="recycle--st0" width="13.1" height=".1"/>
  <g>
    <line class="recycle--st0" x1="76.9" y1="136.8" x2="76.9" y2="127.8"/>
    <line class="recycle--st0" x1="76.9" y1="115.1" x2="76.9" y2="106.2"/>
    <line class="recycle--st0" x1="82.1" y1="136.8" x2="82.1" y2="133"/>
    <line class="recycle--st0" x1="82.1" y1="110" x2="82.1" y2="106.2"/>
    <line class="recycle--st0" x1="97.6" y1="136.8" x2="97.6" y2="136.8"/>
    <line class="recycle--st0" x1="102.7" y1="136.8" x2="102.7" y2="136.8"/>
    <line class="recycle--st0" x1="71.7" y1="136.8" x2="71.7" y2="122.7"/>
    <line class="recycle--st0" x1="71.7" y1="120.3" x2="71.7" y2="106.2"/>
    <line class="recycle--st0" x1="66.5" y1="106.2" x2="66.5" y2="136.8"/>
    <line class="recycle--st0" x1="61.4" y1="106.2" x2="61.4" y2="136.8"/>
    <line class="recycle--st0" x1="56.2" y1="106.2" x2="56.2" y2="136.8"/>
    <line class="recycle--st0" x1="51" y1="106.2" x2="51" y2="136.8"/>
    <line class="recycle--st0" x1="45.9" y1="106.2" x2="45.9" y2="136.8"/>
    <line class="recycle--st0" x1="40.7" y1="110.6" x2="40.7" y2="136.8"/>
    <line class="recycle--st0" x1="35.5" y1="119.5" x2="35.5" y2="136.8"/>
    <line class="recycle--st0" x1="30.3" y1="128.2" x2="30.3" y2="136.8"/>
  </g>
  <polygon class="recycle--st0" points="112.9,39 110.3,34.5 110.4,34.5 113,39 115.6,43.5 116.9,45.8 116.9,45.8 115.5,43.5"/>
  <polygon class="recycle--st0" points="151.8,106.2 116.5,106.4 116.4,106.2 114.9,103.6 112.3,99.1 109.7,94.6 107.1,90.1 104.6,85.7 102,81.2 99.4,76.7 96.8,72.2 94.9,68.9 100.1,70.3 107.1,72.2 114.1,74.2 115.8,74.6 116.2,73 118.1,65.9 120,58.8 121.4,53.6 123.3,56.9 125.9,61.4 128.5,65.9 131.1,70.3 133.6,74.8 136.2,79.3 138.8,83.8 141.4,88.3 144,92.7 146.6,97.2 149.2,101.7"/>
  <g>
    <line class="recycle--st0" x1="125.9" y1="61.4" x2="118.1" y2="65.9"/>
    <line class="recycle--st0" x1="107.1" y1="72.2" x2="99.4" y2="76.7"/>
    <line class="recycle--st0" x1="123.3" y1="56.9" x2="120" y2="58.8"/>
    <line class="recycle--st0" x1="100.1" y1="70.3" x2="96.8" y2="72.2"/>
    <line class="recycle--st0" x1="115.5" y1="43.5" x2="115.5" y2="43.5"/>
    <line class="recycle--st0" x1="113" y1="39" x2="112.9" y2="39"/>
    <line class="recycle--st0" x1="128.5" y1="65.9" x2="116.2" y2="73"/>
    <line class="recycle--st0" x1="114.1" y1="74.2" x2="102" y2="81.2"/>
    <line class="recycle--st0" x1="104.6" y1="85.7" x2="131.1" y2="70.4"/>
    <line class="recycle--st0" x1="107.1" y1="90.1" x2="133.6" y2="74.8"/>
    <line class="recycle--st0" x1="109.7" y1="94.6" x2="136.2" y2="79.3"/>
    <line class="recycle--st0" x1="112.3" y1="99.1" x2="138.8" y2="83.8"/>
    <line class="recycle--st0" x1="114.9" y1="103.6" x2="141.4" y2="88.3"/>
    <line class="recycle--st0" x1="121.2" y1="105.9" x2="144" y2="92.7"/>
    <line class="recycle--st0" x1="131.6" y1="105.9" x2="146.6" y2="97.2"/>
    <line class="recycle--st0" x1="141.7" y1="106" x2="149.2" y2="101.7"/>
  </g>
  <polygon class="recycle--st0" points="124.6,41.4 121.4,53.6 120,58.8 118.1,65.9 116.2,73 115.8,74.6 114.1,74.2 107.1,72.2 100.1,70.3 94.9,68.9 82.6,65.6 90.4,61.2 79.6,42.5 79.7,42.3 61.9,11.9 91.3,1.5 110.3,34.5 112.9,39 115.5,43.5 116.9,45.8 116.9,45.8"/>
  <polygon class="recycle--st0" points="79.7,42.3 79.6,42.5 61.9,11.9"/>
  <polygon class="recycle--st0" points="61.3,92 53.6,87.6 42.8,106.2 42.6,106.2 25.2,136.8 1.5,116.6 20.6,83.6 23.2,79.1 25.7,74.6 27.1,72.3 27.1,72.2 19.4,67.8 31.5,64.5 36.8,63.1 43.8,61.2 50.9,59.3 52.5,58.8 53,60.5 54.8,67.5 56.7,74.6 58.1,79.7"/>
  <polygon class="recycle--st0" points="42.8,106.2 25.2,136.8 42.6,106.2"/>
  <polygon class="recycle--st0" points="151.8,106.2 146.1,136.8 94.9,136.8 94.9,145.7 85.9,136.8 82.1,133 76.9,127.8 71.7,122.7 70.5,121.5 71.7,120.3 76.9,115.1 82.1,110 85.8,106.2 94.9,97.2 94.9,106.2 116.4,106.2 116.5,106.4"/>
  <polygon class="recycle--st0" points="151.8,106.2 116.5,106.4 116.4,106.2"/>
</svg>
