<svg xmlns="http://www.w3.org/2000/svg" version="1.1" x="0" y="0" width="241.3" height="147.2" viewBox="0 0 241.3 147.2" xml:space="preserve"><style type="text/css">
	.time--st0{fill:none;stroke:#2d2926;stroke-width:3;stroke-linecap:round;stroke-linejoin:round;stroke-dasharray:6.6422,6.6422;}
	.time--st1{fill:none;stroke:#2d2926;stroke-width:3;stroke-linecap:round;stroke-linejoin:round;stroke-miterlimit:10;}
</style><circle class="time--st0" cx="218.6" cy="45.6" r="21.1"/><circle class="time--st1" cx="120.6" cy="47.7" r="32.6"/><polygon class="time--st1" points="120.6 7.7 139.8 1.5 148.9 19.4 166.9 28.6 160.7 47.7 166.9 66.9 148.9 76 139.8 94 120.6 87.8 101.5 94 92.3 76 74.4 66.9 80.6 47.7 74.4 28.6 92.3 19.4 101.5 1.5 "/><path class="time--st1" d="M27.4 77.9c12.7 39.4 49.7 67.9 93.3 67.9 43.6 0 80.6-28.5 93.3-67.9"/><polyline class="time--st1" points="219.9 85.7 213.9 76.8 204.3 81.5 "/><circle class="time--st1" cx="22.6" cy="45.6" r="21.1"/><line class="time--st1" x1="130.7" y1="20.6" x2="138.3" y2="20.6"/><line class="time--st1" x1="137.8" y1="26" x2="144.8" y2="26"/><line class="time--st1" x1="140.9" y1="31.4" x2="148.8" y2="31.4"/><line class="time--st1" x1="143.7" y1="36.9" x2="151.3" y2="36.9"/><line class="time--st1" x1="145.4" y1="42.3" x2="152.6" y2="42.3"/><line class="time--st1" x1="147" y1="47.7" x2="153.2" y2="47.7"/><line class="time--st1" x1="145.4" y1="53.2" x2="152.6" y2="53.2"/><line class="time--st1" x1="143.7" y1="58.6" x2="151.3" y2="58.6"/><line class="time--st1" x1="140.9" y1="64" x2="148.8" y2="64"/><line class="time--st1" x1="137.8" y1="69.4" x2="144.8" y2="69.4"/><line class="time--st1" x1="130.7" y1="74.9" x2="138.3" y2="74.9"/><line class="time--st1" x1="9.5" y1="29.8" x2="20.4" y2="29.8"/><line class="time--st1" x1="4.4" y1="35.1" x2="16.8" y2="35.1"/><line class="time--st1" x1="2.2" y1="40.4" x2="14.6" y2="40.4"/><line class="time--st1" x1="1.5" y1="45.6" x2="14" y2="45.6"/><line class="time--st1" x1="2.2" y1="50.9" x2="14.6" y2="50.9"/><line class="time--st1" x1="4.4" y1="56.2" x2="16.8" y2="56.2"/><line class="time--st1" x1="9.5" y1="61.5" x2="20.4" y2="61.5"/></svg>
